999
"DXF R12 Output" (www.mydxf.blogspot.com)
 0 
SECTION
 2 
HEADER
 9 
$ACADVER
 1 
AC1009
 9 
$EXTMIN
 10 
 0 
 20 
 0 
 9 
$EXTMAX
 10 
 8.5 
 20 
 11 
 0 
ENDSEC
 0 
SECTION
 2 
ENTITIES
0
LINE
8
Layer 1
10
97.144900
20
332.261000
11
97.144900
21
334.888000
0
LINE
8
Layer 1
10
93.547700
20
332.261000
11
97.144900
21
332.261000
0
LINE
8
Layer 1
10
93.547700
20
334.888000
11
93.547700
21
332.261000
0
LINE
8
Layer 1
10
142.447000
20
308.209000
11
169.839000
21
308.209000
0
LINE
8
Layer 1
10
125.319000
20
308.209000
11
142.447000
21
308.209000
0
LINE
8
Layer 1
10
90.915500
20
308.209000
11
91.190051
21
308.210439
0
LINE
8
Layer 1
10
169.839000
20
308.209000
11
170.135000
21
308.209000
0
LINE
8
Layer 1
10
90.311800
20
308.820000
11
90.486687
21
308.389296
0
LINE
8
Layer 1
10
90.486687
20
308.389296
11
90.915741
21
308.210396
0
LINE
8
Layer 1
10
91.190000
20
308.211000
11
125.318900
21
308.209561
0
LINE
8
Layer 1
10
170.745000
20
319.637000
11
170.745000
21
334.278000
0
LINE
8
Layer 1
10
166.236000
20
334.888000
11
97.144900
21
334.888000
0
LINE
8
Layer 1
10
90.314100
20
334.284000
11
90.314100
21
319.622000
0
LINE
8
Layer 1
10
90.311200
20
308.819000
11
90.314079
21
319.621800
0
LINE
8
Layer 1
10
170.745000
20
319.637000
11
170.745000
21
308.814000
0
LINE
8
Layer 1
10
170.135000
20
308.210000
11
170.565983
21
308.384733
0
LINE
8
Layer 1
10
170.565983
20
308.384733
11
170.745034
21
308.813941
0
LINE
8
Layer 1
10
170.745000
20
334.279000
11
170.569884
21
334.709646
0
LINE
8
Layer 1
10
170.569884
20
334.709646
11
170.140701
21
334.888317
0
LINE
8
Layer 1
10
90.924200
20
334.888000
11
90.493624
21
334.713238
0
LINE
8
Layer 1
10
90.493624
20
334.713238
11
90.314598
21
334.284417
0
LINE
8
Layer 1
10
170.141000
20
334.888000
11
169.745302
21
334.893018
0
LINE
8
Layer 1
10
168.785000
20
334.893000
11
166.235900
21
334.887982
0
LINE
8
Layer 1
10
97.523400
20
322.028000
11
98.207900
21
322.028000
0
LINE
8
Layer 1
10
98.207900
20
322.028000
11
98.207900
21
320.867000
0
LINE
8
Layer 1
10
98.207900
20
320.867000
11
97.523400
21
320.867000
0
LINE
8
Layer 1
10
97.523400
20
320.867000
11
97.523400
21
322.028000
0
LINE
8
Layer 1
10
169.745000
20
334.893000
11
168.785000
21
334.893000
0
LINE
8
Layer 1
10
90.924100
20
334.888000
11
93.547700
21
334.888000
0
LINE
8
Layer 1
10
97.144900
20
332.261000
11
97.144900
21
334.888000
0
LINE
8
Layer 1
10
93.547700
20
332.261000
11
97.144900
21
332.261000
0
LINE
8
Layer 1
10
93.547700
20
334.888000
11
93.547700
21
332.261000
0
LINE
8
Layer 1
10
142.447000
20
308.209000
11
169.839000
21
308.209000
0
LINE
8
Layer 1
10
125.319000
20
308.209000
11
142.447000
21
308.209000
0
LINE
8
Layer 1
10
90.915500
20
308.209000
11
91.190051
21
308.210439
0
LINE
8
Layer 1
10
169.839000
20
308.209000
11
170.135000
21
308.209000
0
LINE
8
Layer 1
10
90.311800
20
308.820000
11
90.486687
21
308.389296
0
LINE
8
Layer 1
10
90.486687
20
308.389296
11
90.915741
21
308.210396
0
LINE
8
Layer 1
10
91.190000
20
308.211000
11
125.318900
21
308.209561
0
LINE
8
Layer 1
10
170.745000
20
319.637000
11
170.745000
21
334.278000
0
LINE
8
Layer 1
10
166.236000
20
334.888000
11
97.144900
21
334.888000
0
LINE
8
Layer 1
10
90.314100
20
334.284000
11
90.314100
21
319.622000
0
LINE
8
Layer 1
10
90.311200
20
308.819000
11
90.314079
21
319.621800
0
LINE
8
Layer 1
10
170.745000
20
319.637000
11
170.745000
21
308.814000
0
LINE
8
Layer 1
10
170.135000
20
308.210000
11
170.565983
21
308.384733
0
LINE
8
Layer 1
10
170.565983
20
308.384733
11
170.745034
21
308.813941
0
LINE
8
Layer 1
10
170.745000
20
334.279000
11
170.569884
21
334.709646
0
LINE
8
Layer 1
10
170.569884
20
334.709646
11
170.140701
21
334.888317
0
LINE
8
Layer 1
10
90.924200
20
334.888000
11
90.493624
21
334.713238
0
LINE
8
Layer 1
10
90.493624
20
334.713238
11
90.314598
21
334.284417
0
LINE
8
Layer 1
10
170.141000
20
334.888000
11
169.745302
21
334.893018
0
LINE
8
Layer 1
10
168.785000
20
334.893000
11
166.235900
21
334.887982
0
LINE
8
Layer 1
10
97.523400
20
322.028000
11
98.207900
21
322.028000
0
LINE
8
Layer 1
10
98.207900
20
322.028000
11
98.207900
21
320.867000
0
LINE
8
Layer 1
10
98.207900
20
320.867000
11
97.523400
21
320.867000
0
LINE
8
Layer 1
10
97.523400
20
320.867000
11
97.523400
21
322.028000
0
LINE
8
Layer 1
10
169.745000
20
334.893000
11
168.785000
21
334.893000
0
LINE
8
Layer 1
10
90.924100
20
334.888000
11
93.547700
21
334.888000
0
LINE
8
Layer 1
10
97.144900
20
332.261000
11
97.144900
21
334.888000
0
LINE
8
Layer 1
10
93.547700
20
332.261000
11
97.144900
21
332.261000
0
LINE
8
Layer 1
10
93.547700
20
334.888000
11
93.547700
21
332.261000
0
LINE
8
Layer 1
10
142.447000
20
308.209000
11
169.839000
21
308.209000
0
LINE
8
Layer 1
10
125.319000
20
308.209000
11
142.447000
21
308.209000
0
LINE
8
Layer 1
10
90.915500
20
308.209000
11
91.190051
21
308.210439
0
LINE
8
Layer 1
10
169.839000
20
308.209000
11
170.135000
21
308.209000
0
LINE
8
Layer 1
10
90.311800
20
308.820000
11
90.486687
21
308.389296
0
LINE
8
Layer 1
10
90.486687
20
308.389296
11
90.915741
21
308.210396
0
LINE
8
Layer 1
10
91.190000
20
308.211000
11
125.318900
21
308.209561
0
LINE
8
Layer 1
10
170.745000
20
319.637000
11
170.745000
21
334.278000
0
LINE
8
Layer 1
10
166.236000
20
334.888000
11
97.144900
21
334.888000
0
LINE
8
Layer 1
10
90.314100
20
334.284000
11
90.314100
21
319.622000
0
LINE
8
Layer 1
10
90.311200
20
308.819000
11
90.314079
21
319.621800
0
LINE
8
Layer 1
10
170.745000
20
319.637000
11
170.745000
21
308.814000
0
LINE
8
Layer 1
10
170.135000
20
308.210000
11
170.565983
21
308.384733
0
LINE
8
Layer 1
10
170.565983
20
308.384733
11
170.745034
21
308.813941
0
LINE
8
Layer 1
10
170.745000
20
334.279000
11
170.569884
21
334.709646
0
LINE
8
Layer 1
10
170.569884
20
334.709646
11
170.140701
21
334.888317
0
LINE
8
Layer 1
10
90.924200
20
334.888000
11
90.493624
21
334.713238
0
LINE
8
Layer 1
10
90.493624
20
334.713238
11
90.314598
21
334.284417
0
LINE
8
Layer 1
10
170.141000
20
334.888000
11
169.745302
21
334.893018
0
LINE
8
Layer 1
10
168.785000
20
334.893000
11
166.235900
21
334.887982
0
LINE
8
Layer 1
10
97.523400
20
322.028000
11
98.207900
21
322.028000
0
LINE
8
Layer 1
10
98.207900
20
322.028000
11
98.207900
21
320.867000
0
LINE
8
Layer 1
10
98.207900
20
320.867000
11
97.523400
21
320.867000
0
LINE
8
Layer 1
10
97.523400
20
320.867000
11
97.523400
21
322.028000
0
LINE
8
Layer 1
10
169.745000
20
334.893000
11
168.785000
21
334.893000
0
LINE
8
Layer 1
10
90.924100
20
334.888000
11
93.547700
21
334.888000
 0 
ENDSEC
 0 
EOF