<?xml version="1.0" encoding="UTF-8" standalone="no"?>
<svg
   xmlns:dc="http://purl.org/dc/elements/1.1/"
   xmlns:cc="http://creativecommons.org/ns#"
   xmlns:rdf="http://www.w3.org/1999/02/22-rdf-syntax-ns#"
   xmlns:svg="http://www.w3.org/2000/svg"
   xmlns="http://www.w3.org/2000/svg"
   xmlns:sodipodi="http://sodipodi.sourceforge.net/DTD/sodipodi-0.dtd"
   xmlns:inkscape="http://www.inkscape.org/namespaces/inkscape"
   version="1.1"
   width="30cm"
   height="30cm"
   viewBox="0 0 118110.23 118110.24"
   id="svg1826"
   sodipodi:docname="cool844v21topunder.svg"
   inkscape:version="1.0 (4035a4f, 2020-05-01)">
  <metadata
     id="metadata1832">
    <rdf:RDF>
      <cc:Work
         rdf:about="">
        <dc:format>image/svg+xml</dc:format>
        <dc:type
           rdf:resource="http://purl.org/dc/dcmitype/StillImage" />
        <dc:title>SVG Picture created as cool844v21-brd.svg date 2021/08/05 01:02:12 </dc:title>
      </cc:Work>
    </rdf:RDF>
  </metadata>
  <defs
     id="defs1830" />
  <sodipodi:namedview
     inkscape:document-rotation="0"
     pagecolor="#ffffff"
     bordercolor="#666666"
     borderopacity="1"
     objecttolerance="10"
     gridtolerance="10"
     guidetolerance="10"
     inkscape:pageopacity="0"
     inkscape:pageshadow="2"
     inkscape:window-width="1280"
     inkscape:window-height="800"
     id="namedview1828"
     showgrid="false"
     inkscape:zoom="0.32639392"
     inkscape:cx="1066.7008"
     inkscape:cy="681.74229"
     inkscape:window-x="4"
     inkscape:window-y="75"
     inkscape:window-maximized="0"
     inkscape:current-layer="layer1" />
  <title
     id="title10">SVG Picture created as cool844v21-brd.svg date 2021/08/05 01:02:12 </title>
  <desc
     id="desc12">Picture generated by PCBNEW </desc>
  <g
     style="fill:#000000;fill-opacity:1;stroke:#000000;stroke-linecap:round;stroke-linejoin:round;stroke-opacity:1"
     id="g14" />
  <g
     style="fill:#000000;fill-opacity:0;stroke:#000000;stroke-width:-0.000393701;stroke-linecap:round;stroke-linejoin:round;stroke-opacity:1"
     id="g16" />
  <g
     style="fill:#000000;fill-opacity:0;stroke:#000000;stroke-width:39.3701;stroke-linecap:round;stroke-linejoin:round;stroke-opacity:1"
     id="g18" />
  <g
     style="fill:#000000;fill-opacity:0;stroke:#000000;stroke-width:39.3701;stroke-linecap:round;stroke-linejoin:round;stroke-opacity:1"
     id="g24" />
  <g
     style="fill:#000000;fill-opacity:0;stroke:#000000;stroke-width:39.3701;stroke-linecap:round;stroke-linejoin:round;stroke-opacity:1"
     id="g30" />
  <g
     style="fill:#000000;fill-opacity:0;stroke:#000000;stroke-width:39.3701;stroke-linecap:round;stroke-linejoin:round;stroke-opacity:1"
     id="g36" />
  <g
     style="fill:#000000;fill-opacity:0;stroke:#000000;stroke-width:39.3701;stroke-linecap:round;stroke-linejoin:round;stroke-opacity:1"
     id="g42" />
  <g
     style="fill:#000000;fill-opacity:0;stroke:#000000;stroke-width:39.3701;stroke-linecap:round;stroke-linejoin:round;stroke-opacity:1"
     id="g48" />
  <g
     style="fill:#000000;fill-opacity:0;stroke:#000000;stroke-width:39.3701;stroke-linecap:round;stroke-linejoin:round;stroke-opacity:1"
     id="g54" />
  <g
     style="fill:#000000;fill-opacity:0;stroke:#000000;stroke-width:39.3701;stroke-linecap:round;stroke-linejoin:round;stroke-opacity:1"
     id="g60" />
  <g
     style="fill:#000000;fill-opacity:0;stroke:#000000;stroke-width:39.3701;stroke-linecap:round;stroke-linejoin:round;stroke-opacity:1"
     id="g66" />
  <g
     style="fill:#000000;fill-opacity:0;stroke:#000000;stroke-width:39.3701;stroke-linecap:round;stroke-linejoin:round;stroke-opacity:1"
     id="g72" />
  <g
     style="fill:#000000;fill-opacity:0;stroke:#000000;stroke-width:39.3701;stroke-linecap:round;stroke-linejoin:round;stroke-opacity:1"
     id="g78" />
  <g
     style="fill:#000000;fill-opacity:0;stroke:#000000;stroke-width:39.3701;stroke-linecap:round;stroke-linejoin:round;stroke-opacity:1"
     id="g88" />
  <g
     style="fill:#000000;fill-opacity:0;stroke:#000000;stroke-width:39.3701;stroke-linecap:round;stroke-linejoin:round;stroke-opacity:1"
     id="g96" />
  <g
     style="fill:#000000;fill-opacity:0;stroke:#000000;stroke-width:39.3701;stroke-linecap:round;stroke-linejoin:round;stroke-opacity:1"
     id="g104" />
  <g
     style="fill:#000000;fill-opacity:0;stroke:#000000;stroke-width:39.3701;stroke-linecap:round;stroke-linejoin:round;stroke-opacity:1"
     id="g114" />
  <g
     style="fill:#000000;fill-opacity:0;stroke:#000000;stroke-width:39.3701;stroke-linecap:round;stroke-linejoin:round;stroke-opacity:1"
     id="g122" />
  <g
     style="fill:#000000;fill-opacity:0;stroke:#000000;stroke-width:39.3701;stroke-linecap:round;stroke-linejoin:round;stroke-opacity:1"
     id="g130" />
  <g
     style="fill:#000000;fill-opacity:0;stroke:#000000;stroke-width:39.3701;stroke-linecap:round;stroke-linejoin:round;stroke-opacity:1"
     id="g138" />
  <g
     style="fill:#000000;fill-opacity:0;stroke:#000000;stroke-width:39.3701;stroke-linecap:round;stroke-linejoin:round;stroke-opacity:1"
     id="g146" />
  <g
     style="fill:#000000;fill-opacity:0;stroke:#000000;stroke-width:39.3701;stroke-linecap:round;stroke-linejoin:round;stroke-opacity:1"
     id="g152" />
  <g
     style="fill:#000000;fill-opacity:0;stroke:#000000;stroke-width:39.3701;stroke-linecap:round;stroke-linejoin:round;stroke-opacity:1"
     id="g158" />
  <g
     style="fill:#000000;fill-opacity:0;stroke:#000000;stroke-width:39.3701;stroke-linecap:round;stroke-linejoin:round;stroke-opacity:1"
     id="g164" />
  <g
     style="fill:#000000;fill-opacity:0;stroke:#000000;stroke-width:39.3701;stroke-linecap:round;stroke-linejoin:round;stroke-opacity:1"
     id="g170" />
  <g
     style="fill:#000000;fill-opacity:0;stroke:#000000;stroke-width:39.3701;stroke-linecap:round;stroke-linejoin:round;stroke-opacity:1"
     id="g176" />
  <g
     style="fill:#000000;fill-opacity:0;stroke:#000000;stroke-width:39.3701;stroke-linecap:round;stroke-linejoin:round;stroke-opacity:1"
     id="g182" />
  <g
     style="fill:#000000;fill-opacity:0;stroke:#000000;stroke-width:39.3701;stroke-linecap:round;stroke-linejoin:round;stroke-opacity:1"
     id="g188" />
  <g
     style="fill:#000000;fill-opacity:0;stroke:#000000;stroke-width:39.3701;stroke-linecap:round;stroke-linejoin:round;stroke-opacity:1"
     id="g198" />
  <g
     style="fill:#000000;fill-opacity:0;stroke:#000000;stroke-width:39.3701;stroke-linecap:round;stroke-linejoin:round;stroke-opacity:1"
     id="g206" />
  <g
     style="fill:#000000;fill-opacity:0;stroke:#000000;stroke-width:39.3701;stroke-linecap:round;stroke-linejoin:round;stroke-opacity:1"
     id="g214" />
  <g
     style="fill:#000000;fill-opacity:0;stroke:#000000;stroke-width:39.3701;stroke-linecap:round;stroke-linejoin:round;stroke-opacity:1"
     id="g224" />
  <g
     style="fill:#000000;fill-opacity:0;stroke:#000000;stroke-width:39.3701;stroke-linecap:round;stroke-linejoin:round;stroke-opacity:1"
     id="g232" />
  <g
     style="fill:#000000;fill-opacity:0;stroke:#000000;stroke-width:39.3701;stroke-linecap:round;stroke-linejoin:round;stroke-opacity:1"
     id="g240" />
  <g
     style="fill:#000000;fill-opacity:0;stroke:#000000;stroke-width:39.3701;stroke-linecap:round;stroke-linejoin:round;stroke-opacity:1"
     id="g248" />
  <g
     style="fill:#000000;fill-opacity:0;stroke:#000000;stroke-width:39.3701;stroke-linecap:round;stroke-linejoin:round;stroke-opacity:1"
     id="g256" />
  <g
     style="fill:#000000;fill-opacity:0;stroke:#000000;stroke-width:39.3701;stroke-linecap:round;stroke-linejoin:round;stroke-opacity:1"
     id="g262" />
  <g
     style="fill:#000000;fill-opacity:0;stroke:#000000;stroke-width:39.3701;stroke-linecap:round;stroke-linejoin:round;stroke-opacity:1"
     id="g268" />
  <g
     style="fill:#000000;fill-opacity:0;stroke:#000000;stroke-width:39.3701;stroke-linecap:round;stroke-linejoin:round;stroke-opacity:1"
     id="g274" />
  <g
     style="fill:#000000;fill-opacity:0;stroke:#000000;stroke-width:39.3701;stroke-linecap:round;stroke-linejoin:round;stroke-opacity:1"
     id="g280" />
  <g
     style="fill:#000000;fill-opacity:0;stroke:#000000;stroke-width:39.3701;stroke-linecap:round;stroke-linejoin:round;stroke-opacity:1"
     id="g286" />
  <g
     style="fill:#000000;fill-opacity:0;stroke:#000000;stroke-width:39.3701;stroke-linecap:round;stroke-linejoin:round;stroke-opacity:1"
     id="g296" />
  <g
     style="fill:#000000;fill-opacity:0;stroke:#000000;stroke-width:39.3701;stroke-linecap:round;stroke-linejoin:round;stroke-opacity:1"
     id="g304" />
  <g
     style="fill:#000000;fill-opacity:0;stroke:#000000;stroke-width:39.3701;stroke-linecap:round;stroke-linejoin:round;stroke-opacity:1"
     id="g312" />
  <g
     style="fill:#000000;fill-opacity:0;stroke:#000000;stroke-width:39.3701;stroke-linecap:round;stroke-linejoin:round;stroke-opacity:1"
     id="g320" />
  <g
     style="fill:#000000;fill-opacity:0;stroke:#000000;stroke-width:39.3701;stroke-linecap:round;stroke-linejoin:round;stroke-opacity:1"
     id="g330" />
  <g
     style="fill:#000000;fill-opacity:0;stroke:#000000;stroke-width:39.3701;stroke-linecap:round;stroke-linejoin:round;stroke-opacity:1"
     id="g340" />
  <g
     style="fill:#000000;fill-opacity:0;stroke:#000000;stroke-width:39.3701;stroke-linecap:round;stroke-linejoin:round;stroke-opacity:1"
     id="g346" />
  <g
     style="fill:#000000;fill-opacity:0;stroke:#000000;stroke-width:39.3701;stroke-linecap:round;stroke-linejoin:round;stroke-opacity:1"
     id="g352" />
  <g
     style="fill:#000000;fill-opacity:0;stroke:#000000;stroke-width:39.3701;stroke-linecap:round;stroke-linejoin:round;stroke-opacity:1"
     id="g358" />
  <g
     style="fill:#000000;fill-opacity:0;stroke:#000000;stroke-width:39.3701;stroke-linecap:round;stroke-linejoin:round;stroke-opacity:1"
     id="g364" />
  <g
     style="fill:#000000;fill-opacity:0;stroke:#000000;stroke-width:39.3701;stroke-linecap:round;stroke-linejoin:round;stroke-opacity:1"
     id="g370" />
  <g
     style="fill:#000000;fill-opacity:0;stroke:#000000;stroke-width:39.3701;stroke-linecap:round;stroke-linejoin:round;stroke-opacity:1"
     id="g380" />
  <g
     style="fill:#000000;fill-opacity:0;stroke:#000000;stroke-width:39.3701;stroke-linecap:round;stroke-linejoin:round;stroke-opacity:1"
     id="g388" />
  <g
     style="fill:#000000;fill-opacity:0;stroke:#000000;stroke-width:39.3701;stroke-linecap:round;stroke-linejoin:round;stroke-opacity:1"
     id="g396" />
  <g
     style="fill:#000000;fill-opacity:0;stroke:#000000;stroke-width:39.3701;stroke-linecap:round;stroke-linejoin:round;stroke-opacity:1"
     id="g404" />
  <g
     style="fill:#000000;fill-opacity:0;stroke:#000000;stroke-width:39.3701;stroke-linecap:round;stroke-linejoin:round;stroke-opacity:1"
     id="g414" />
  <g
     style="fill:#000000;fill-opacity:0;stroke:#000000;stroke-width:39.3701;stroke-linecap:round;stroke-linejoin:round;stroke-opacity:1"
     id="g424" />
  <g
     style="fill:#000000;fill-opacity:0;stroke:#000000;stroke-width:39.3701;stroke-linecap:round;stroke-linejoin:round;stroke-opacity:1"
     id="g446" />
  <g
     style="fill:#000000;fill-opacity:0;stroke:#000000;stroke-width:39.3701;stroke-linecap:round;stroke-linejoin:round;stroke-opacity:1"
     id="g452" />
  <g
     style="fill:#000000;fill-opacity:0;stroke:#000000;stroke-width:39.3701;stroke-linecap:round;stroke-linejoin:round;stroke-opacity:1"
     id="g550" />
  <g
     style="fill:#000000;fill-opacity:0;stroke:#000000;stroke-width:39.3701;stroke-linecap:round;stroke-linejoin:round;stroke-opacity:1"
     id="g556" />
  <g
     style="fill:#000000;fill-opacity:0;stroke:#000000;stroke-width:39.3701;stroke-linecap:round;stroke-linejoin:round;stroke-opacity:1"
     id="g574" />
  <g
     style="fill:#000000;fill-opacity:0;stroke:#000000;stroke-width:39.3701;stroke-linecap:round;stroke-linejoin:round;stroke-opacity:1"
     id="g600" />
  <g
     style="fill:#000000;fill-opacity:0;stroke:#000000;stroke-width:39.3701;stroke-linecap:round;stroke-linejoin:round;stroke-opacity:1"
     id="g626" />
  <g
     style="fill:#000000;fill-opacity:0;stroke:#000000;stroke-width:39.3701;stroke-linecap:round;stroke-linejoin:round;stroke-opacity:1"
     id="g632" />
  <g
     style="fill:#000000;fill-opacity:0;stroke:#000000;stroke-width:39.3701;stroke-linecap:round;stroke-linejoin:round;stroke-opacity:1"
     id="g658" />
  <g
     style="fill:#000000;fill-opacity:0;stroke:#000000;stroke-width:39.3701;stroke-linecap:round;stroke-linejoin:round;stroke-opacity:1"
     id="g740" />
  <g
     style="fill:#000000;fill-opacity:0;stroke:#000000;stroke-width:39.3701;stroke-linecap:round;stroke-linejoin:round;stroke-opacity:1"
     id="g746" />
  <g
     style="fill:#000000;fill-opacity:0;stroke:#000000;stroke-width:39.3701;stroke-linecap:round;stroke-linejoin:round;stroke-opacity:1"
     id="g770" />
  <g
     style="fill:#000000;fill-opacity:0;stroke:#000000;stroke-width:39.3701;stroke-linecap:round;stroke-linejoin:round;stroke-opacity:1"
     id="g776" />
  <g
     inkscape:label="Layer 1"
     id="layer1"
     inkscape:groupmode="layer">
    <g
       style="fill:#c2c200;fill-opacity:0;stroke:#c2c200;stroke-width:59.0551;stroke-linecap:round;stroke-linejoin:round;stroke-opacity:1"
       id="g1824"
       transform="translate(-11489.184,-9574.3239)">
      <path
         d="m 111186,23480 244,-192"
         id="path782" />
      <path
         d="m 111042,23300 122,-192"
         id="path784" />
      <circle
         cx="60070"
         cy="14765"
         r="433.07101"
         id="circle786" />
      <circle
         cx="73935"
         cy="14765"
         r="433.07101"
         id="circle788" />
      <circle
         cx="125504"
         cy="14765"
         r="433.07101"
         id="circle790" />
      <circle
         cx="125504"
         cy="48419.301"
         r="433.07101"
         id="circle792" />
      <path
         d="m 126437,50059.1 a 842.556,842.556 0 0 0 850,-842.1"
         id="path794" />
      <circle
         cx="71196.898"
         cy="48419.301"
         r="433.07101"
         id="circle796" />
      <circle
         cx="16890"
         cy="48419.301"
         r="433.07101"
         id="circle798" />
      <path
         d="M 15925,50059 H 126436"
         id="path800" />
      <path
         d="m 15082.7,49208.6 a 842.556,842.556 0 0 0 842,850.5"
         id="path802" />
      <path
         d="m 15082,49208 4,-15071"
         id="path804" />
      <path
         d="M 15086,13685 V 34137"
         id="path806" />
      <path
         d="m 15937,12842.5 a 842.556,842.556 0 0 0 -850.4,842"
         id="path808" />
      <path
         d="m 16299,12842 h -362"
         id="path810" />
      <path
         d="M 63909,12842 H 16299"
         id="path812" />
      <path
         d="M 88649,12842 H 63909"
         id="path814" />
      <path
         d="M 126015,12842 H 88649"
         id="path816" />
      <path
         d="m 126444,12842 h -429"
         id="path818" />
      <path
         d="m 127287,13692.9 a 842.556,842.556 0 0 0 -842,-850.4"
         id="path820" />
      <path
         d="M 127287,34118 V 13692"
         id="path822" />
      <path
         d="M 127287,34118 V 49216"
         id="path824" />
      <path
         d="M 71242,14020 H 63846"
         id="path826" />
      <path
         d="M 71242,27494 V 14020"
         id="path828" />
      <path
         d="m 70010,27494 h 1232"
         id="path830" />
      <path
         d="M 70010,36504 V 27494"
         id="path832" />
      <path
         d="m 64730,36504 h 5280"
         id="path834" />
      <path
         d="m 65094,27512 -2,5968"
         id="path836" />
      <path
         d="m 63846,27512 h 1248"
         id="path838" />
      <path
         d="M 63846,14020 V 27512"
         id="path840" />
      <path
         d="m 25618,15044 h -992"
         id="path842" />
      <path
         d="m 25618,13082 v 1962"
         id="path844" />
      <path
         d="m 24626,13082 h 992"
         id="path846" />
      <path
         d="M 24626,15044 V 13082"
         id="path848" />
      <path
         d="M 18592,15048 V 13086"
         id="path850" />
      <path
         d="m 19584,15048 h -992"
         id="path852" />
      <path
         d="m 19584,13086 v 1962"
         id="path854" />
      <path
         d="m 18592,13086 h 992"
         id="path856" />
      <path
         d="M 26200,32210 H 25038"
         id="path858" />
      <path
         d="m 25038,33456 h 1162"
         id="path860" />
      <path
         d="m 25038,32210 v 1246"
         id="path862" />
      <path
         d="M 26200,33456 V 32210"
         id="path864" />
      <path
         d="M 26212,29572 H 25050"
         id="path866" />
      <path
         d="M 26212,30818 V 29572"
         id="path868" />
      <path
         d="m 25050,30818 h 1162"
         id="path870" />
      <path
         d="m 25050,29572 v 1246"
         id="path872" />
      <path
         d="m 97150,23698 -992,48"
         id="path874" />
      <path
         d="m 99872,22670 68,782"
         id="path876" />
      <path
         d="m 96158,23746 -50,-700"
         id="path878" />
      <path
         d="m 96108,23046 3764,-376"
         id="path880" />
      <path
         d="m 99808,22322 -3776,358"
         id="path882" />
      <path
         d="m 99734,21476 74,846"
         id="path884" />
      <path
         d="m 96032,22680 -64,-876"
         id="path886" />
      <path
         d="m 100600,21398 -866,78"
         id="path888" />
      <path
         d="m 88906,24410 -50,-700"
         id="path890" />
      <path
         d="m 92620,23334 68,756"
         id="path892" />
      <path
         d="m 89674,24354 -768,56"
         id="path894" />
      <path
         d="m 88856,23710 3764,-376"
         id="path896" />
      <path
         d="m 88756,23332 -64,-892"
         id="path898" />
      <path
         d="m 92458,22110 74,864"
         id="path900" />
      <path
         d="m 92532,22974 -3776,358"
         id="path902" />
      <path
         d="m 93126,22052 -668,58"
         id="path904" />
      <path
         d="m 82204,25006 -792,74"
         id="path906" />
      <path
         d="m 81362,24380 3764,-376"
         id="path908" />
      <path
         d="m 85126,24004 62,718"
         id="path910" />
      <path
         d="m 81412,25080 -50,-700"
         id="path912" />
      <path
         d="m 84968,23626 -3776,358"
         id="path914" />
      <path
         d="m 84894,22774 74,852"
         id="path916" />
      <path
         d="m 85656,22708 -762,66"
         id="path918" />
      <path
         d="m 81192,23984 -62,-880"
         id="path920" />
      <path
         d="m 78190,23444 1000,-100"
         id="path922" />
      <path
         d="m 75476,24420 -56,-810"
         id="path924" />
      <path
         d="m 79190,23344 62,718"
         id="path926" />
      <path
         d="m 79252,24062 -3776,358"
         id="path928" />
      <path
         d="m 75472,24670 3764,-376"
         id="path930" />
      <path
         d="m 75522,25370 -50,-700"
         id="path932" />
      <path
         d="m 79236,24294 62,718"
         id="path934" />
      <path
         d="m 79298,25012 -3776,358"
         id="path936" />
      <path
         d="m 95558,38760 -50,-700"
         id="path938" />
      <path
         d="m 99272,37684 62,718"
         id="path940" />
      <path
         d="m 99334,38402 -3776,358"
         id="path942" />
      <path
         d="m 95508,38060 3764,-376"
         id="path944" />
      <path
         d="m 95424,37818 -50,-700"
         id="path946" />
      <path
         d="m 99138,36742 62,718"
         id="path948" />
      <path
         d="m 99200,37460 -3776,358"
         id="path950" />
      <path
         d="m 95374,37118 3764,-376"
         id="path952" />
      <path
         d="m 87916,38362 -56,-790"
         id="path954" />
      <path
         d="m 91630,37286 62,718"
         id="path956" />
      <path
         d="m 90690,37324 940,-38"
         id="path958" />
      <path
         d="m 91692,38004 -3776,358"
         id="path960" />
      <path
         d="m 76802,39678 84,-168"
         id="path962" />
      <path
         d="m 80566,39302 62,718"
         id="path964" />
      <path
         d="m 76864,40532 -62,-854"
         id="path966" />
      <path
         d="m 80628,40020 -978,98"
         id="path968" />
      <path
         d="m 80580,38208 82,944"
         id="path970" />
      <path
         d="m 76886,39510 -50,-700"
         id="path972" />
      <path
         d="m 80662,39152 -96,150"
         id="path974" />
      <path
         d="m 76836,38810 900,-352"
         id="path976" />
      <path
         d="m 41516,37906 50,-700"
         id="path978" />
      <path
         d="m 37802,36830 -62,718"
         id="path980" />
      <path
         d="m 37740,37548 3776,358"
         id="path982" />
      <path
         d="m 41566,37206 540,-202"
         id="path984" />
      <path
         d="m 44090,37178 664,270"
         id="path986" />
      <path
         d="m 44692,38166 -18,444"
         id="path988" />
      <path
         d="m 44754,37448 -62,718"
         id="path990" />
      <path
         d="m 48468,38524 50,-700"
         id="path992" />
      <path
         d="m 44612,39328 3776,358"
         id="path994" />
      <path
         d="m 44674,38610 -62,718"
         id="path996" />
      <path
         d="m 48388,39686 50,-700"
         id="path998" />
      <path
         d="m 48438,38986 30,-462"
         id="path1000" />
      <path
         d="m 53002,39038 3776,358"
         id="path1002" />
      <path
         d="m 56828,38696 224,-386"
         id="path1004" />
      <path
         d="m 56778,39396 50,-700"
         id="path1006" />
      <path
         d="m 53064,38320 -62,718"
         id="path1008" />
      <path
         d="m 61170,39746 2802,282"
         id="path1010" />
      <path
         d="m 64022,39328 498,-368"
         id="path1012" />
      <path
         d="m 63972,40028 50,-700"
         id="path1014" />
      <path
         d="m 60258,38952 -62,634"
         id="path1016" />
      <path
         d="m 55858,23148 -866,-56"
         id="path1018" />
      <path
         d="m 54930,23810 v 398"
         id="path1020" />
      <path
         d="m 58706,24168 50,-700"
         id="path1022" />
      <path
         d="m 54992,23092 -62,718"
         id="path1024" />
      <path
         d="m 58694,24584 12,-416"
         id="path1026" />
      <path
         d="m 55566,25120 1980,174"
         id="path1028" />
      <path
         d="m 58644,25284 50,-700"
         id="path1030" />
      <path
         d="m 54930,24208 -82,850"
         id="path1032" />
      <path
         d="m 49074,23788 -62,718"
         id="path1034" />
      <path
         d="m 52788,24864 50,-700"
         id="path1036" />
      <path
         d="m 49174,23258 -100,530"
         id="path1038" />
      <path
         d="m 49012,24506 1062,134"
         id="path1040" />
      <path
         d="m 52838,24164 112,-548"
         id="path1042" />
      <path
         d="m 52950,23616 54,-716"
         id="path1044" />
      <path
         d="m 49238,22570 -64,688"
         id="path1046" />
      <path
         d="m 48384,22496 854,74"
         id="path1048" />
      <path
         d="m 43390,24048 -786,-62"
         id="path1050" />
      <path
         d="m 47168,24386 60,-832"
         id="path1052" />
      <path
         d="m 47228,23554 50,-410"
         id="path1054" />
      <path
         d="m 43464,23178 -74,870"
         id="path1056" />
      <path
         d="m 43502,22786 -38,392"
         id="path1058" />
      <path
         d="m 47328,22444 -926,-124"
         id="path1060" />
      <path
         d="m 43564,22074 -62,712"
         id="path1062" />
      <path
         d="m 47278,23144 50,-700"
         id="path1064" />
      <path
         d="m 39712,22818 30,-340"
         id="path1066" />
      <path
         d="m 39646,23730 66,-912"
         id="path1068" />
      <path
         d="m 35948,22442 -90,956"
         id="path1070" />
      <path
         d="m 35858,23398 -724,-62"
         id="path1072" />
      <path
         d="m 39792,21778 -864,-110"
         id="path1074" />
      <path
         d="m 39742,22478 50,-700"
         id="path1076" />
      <path
         d="m 35966,22120 -18,322"
         id="path1078" />
      <path
         d="m 36024,21420 -58,700"
         id="path1080" />
      <path
         d="m 32016,22330 -2,932"
         id="path1082" />
      <path
         d="m 28184,23262 4,-932"
         id="path1084" />
      <path
         d="m 26786,23262 h 1398"
         id="path1086" />
      <path
         d="m 31954,22074 62,256"
         id="path1088" />
      <path
         d="m 31018,21262 936,-14"
         id="path1090" />
      <path
         d="m 28188,22330 -62,-256"
         id="path1092" />
      <path
         d="m 31954,21248 v 826"
         id="path1094" />
      <path
         d="m 28126,22074 v -806"
         id="path1096" />
      <path
         d="m 23374,21274 -994,4"
         id="path1098" />
      <path
         d="m 18552,22194 -2,-920"
         id="path1100" />
      <path
         d="m 18522,22338 30,-144"
         id="path1102" />
      <path
         d="m 22380,21278 v 916"
         id="path1104" />
      <path
         d="m 22380,22194 -30,144"
         id="path1106" />
      <path
         d="m 18522,23260 v -922"
         id="path1108" />
      <path
         d="m 22350,22338 v 922"
         id="path1110" />
      <path
         d="m 18200,23262 322,-2"
         id="path1112" />
      <path
         d="m 20660,37234 v -826"
         id="path1114" />
      <path
         d="m 24488,36408 v 826"
         id="path1116" />
      <path
         d="m 20660,37274 v -40"
         id="path1118" />
      <path
         d="m 20660,36408 -1522,-140"
         id="path1120" />
      <path
         d="m 24488,38100 872,158"
         id="path1122" />
      <path
         d="m 24488,37234 v 40"
         id="path1124" />
      <path
         d="m 20660,38100 v -826"
         id="path1126" />
      <path
         d="m 24488,37274 v 826"
         id="path1128" />
      <path
         d="m 29726,37188 v -826"
         id="path1130" />
      <path
         d="m 33554,36362 v 826"
         id="path1132" />
      <path
         d="m 33554,37188 -740,290"
         id="path1134" />
      <path
         d="m 34178,36274 -624,88"
         id="path1136" />
      <path
         d="m 28986,37478 740,-290"
         id="path1138" />
      <path
         d="m 28986,38304 v -826"
         id="path1140" />
      <path
         d="m 29228,38304 h -242"
         id="path1142" />
      <path
         d="m 32814,37478 v 778"
         id="path1144" />
      <path
         d="m 116918,37078 h 3828"
         id="path1146" />
      <path
         d="m 116918,37904 v -826"
         id="path1148" />
      <path
         d="m 120746,37904 h -3828"
         id="path1150" />
      <path
         d="m 120746,37078 v 826"
         id="path1152" />
      <path
         d="m 120780,38508 v 826"
         id="path1154" />
      <path
         d="m 116952,38508 h 3828"
         id="path1156" />
      <path
         d="m 116952,39334 v -826"
         id="path1158" />
      <path
         d="m 120780,39334 h -3828"
         id="path1160" />
      <path
         d="m 115200,39224 v 826"
         id="path1162" />
      <path
         d="m 111372,39224 v -126"
         id="path1164" />
      <path
         d="m 111372,40168 v -944"
         id="path1166" />
      <path
         d="m 115200,40050 -870,118"
         id="path1168" />
      <path
         d="m 115200,38272 v 826"
         id="path1170" />
      <path
         d="m 115200,39098 v 126"
         id="path1172" />
      <path
         d="m 114328,38272 h 872"
         id="path1174" />
      <path
         d="m 111372,39098 v -918"
         id="path1176" />
      <path
         d="m 103290,38670 v -826"
         id="path1178" />
      <path
         d="m 107118,37844 v 826"
         id="path1180" />
      <path
         d="m 107118,38670 h -3828"
         id="path1182" />
      <path
         d="m 103290,37844 -70,-212"
         id="path1184" />
      <path
         d="m 107048,36806 v 826"
         id="path1186" />
      <path
         d="m 107048,37632 70,212"
         id="path1188" />
      <path
         d="m 106078,36804 970,2"
         id="path1190" />
      <path
         d="m 103220,37632 v -948"
         id="path1192" />
      <path
         d="m 108250,21300 v 976"
         id="path1194" />
      <path
         d="m 108564,21300 h -314"
         id="path1196" />
      <path
         d="m 104422,22276 v -976"
         id="path1198" />
      <path
         d="m 108250,22276 262,186"
         id="path1200" />
      <path
         d="m 104684,23288 v -826"
         id="path1202" />
      <path
         d="m 104684,22462 -262,-186"
         id="path1204" />
      <path
         d="m 104684,23288 992,16"
         id="path1206" />
      <path
         d="m 108512,22462 v 838"
         id="path1208" />
      <path
         d="M 114172,28096 V 24268"
         id="path1210" />
      <path
         d="m 114998,28096 h -826"
         id="path1212" />
      <path
         d="m 114998,24268 v 3828"
         id="path1214" />
      <path
         d="m 114172,24268 h 826"
         id="path1216" />
      <path
         d="m 120562,21014 h -586"
         id="path1218" />
      <path
         d="m 120562,14608 v 6406"
         id="path1220" />
      <path
         d="m 123268,14608 h -2706"
         id="path1222" />
      <path
         d="m 113860,21004 h 606"
         id="path1224" />
      <path
         d="m 113860,14634 v 6370"
         id="path1226" />
      <path
         d="m 111164,14634 h 2696"
         id="path1228" />
      <path
         d="m 115986,23288 h -4556"
         id="path1230" />
      <path
         d="M 111164,23108 V 14634"
         id="path1232" />
      <path
         d="m 86216,45006 592,-32"
         id="path1234" />
      <path
         d="m 92894,44414 -604,56"
         id="path1236" />
      <path
         d="m 95004,37940 80,742"
         id="path1238" />
      <path
         d="m 85696,38754 520,6252"
         id="path1240" />
      <path
         d="m 92330,38172 2674,-232"
         id="path1242" />
      <path
         d="m 86808,44974 -464,-5276"
         id="path1244" />
      <path
         d="m 95084,38682 704,7698"
         id="path1246" />
      <path
         d="m 91836,39218 454,5252"
         id="path1248" />
      <path
         d="m 83706,47394 -730,-8400"
         id="path1250" />
      <path
         d="m 92402,38942 -72,-770"
         id="path1252" />
      <path
         d="M 95788,46380 83706,47394"
         id="path1254" />
      <path
         d="m 82976,38994 2720,-240"
         id="path1256" />
      <path
         d="m 86344,39698 5492,-480"
         id="path1258" />
      <path
         d="m 92402,38942 492,5472"
         id="path1260" />
      <path
         d="m 51260,45090 604,56"
         id="path1262" />
      <path
         d="m 51752,39618 -492,5472"
         id="path1264" />
      <path
         d="m 58458,39430 -520,6252"
         id="path1266" />
      <path
         d="m 60196,39586 -1738,-156"
         id="path1268" />
      <path
         d="m 60448,48070 722,-8324"
         id="path1270" />
      <path
         d="m 48366,47056 12082,1014"
         id="path1272" />
      <path
         d="m 49070,39358 -704,7698"
         id="path1274" />
      <path
         d="m 49150,38616 -80,742"
         id="path1276" />
      <path
         d="m 51824,38848 -2674,-232"
         id="path1278" />
      <path
         d="m 51752,39618 72,-770"
         id="path1280" />
      <path
         d="m 36616,36524 1186,306"
         id="path1282" />
      <path
         d="m 42106,37004 480,-5490"
         id="path1284" />
      <path
         d="m 42586,31514 -5492,-480"
         id="path1286" />
      <path
         d="m 37094,31034 -478,5490"
         id="path1288" />
      <path
         d="m 50060,32168 -5492,-480"
         id="path1290" />
      <path
         d="m 48518,37824 1062,-166"
         id="path1292" />
      <path
         d="m 49580,37658 480,-5490"
         id="path1294" />
      <path
         d="m 44568,31688 -478,5490"
         id="path1296" />
      <path
         d="m 57052,38310 480,-5490"
         id="path1298" />
      <path
         d="m 52040,32340 -478,5490"
         id="path1300" />
      <path
         d="m 51562,37830 1502,490"
         id="path1302" />
      <path
         d="m 57532,32820 -5492,-480"
         id="path1304" />
      <path
         d="m 55086,30610 480,-5490"
         id="path1306" />
      <path
         d="m 50074,24640 -478,5490"
         id="path1308" />
      <path
         d="m 49596,30130 5490,480"
         id="path1310" />
      <path
         d="m 54848,25058 -2060,-194"
         id="path1312" />
      <path
         d="m 48096,24466 -928,-80"
         id="path1314" />
      <path
         d="m 42126,29476 5490,480"
         id="path1316" />
      <path
         d="m 42604,23986 -478,5490"
         id="path1318" />
      <path
         d="m 47616,29956 480,-5490"
         id="path1320" />
      <path
         d="m 40626,23816 -980,-86"
         id="path1322" />
      <path
         d="m 35134,23336 -478,5490"
         id="path1324" />
      <path
         d="m 34656,28826 5490,480"
         id="path1326" />
      <path
         d="m 40146,29306 480,-5490"
         id="path1328" />
      <path
         d="m 38928,21668 480,-5490"
         id="path1330" />
      <path
         d="m 33438,21188 2586,232"
         id="path1332" />
      <path
         d="m 33916,15698 -478,5490"
         id="path1334" />
      <path
         d="m 39408,16178 -5492,-480"
         id="path1336" />
      <path
         d="m 46882,16830 -5492,-480"
         id="path1338" />
      <path
         d="m 46402,22320 480,-5490"
         id="path1340" />
      <path
         d="m 40912,21840 2652,234"
         id="path1342" />
      <path
         d="m 41390,16350 -478,5490"
         id="path1344" />
      <path
         d="m 53874,22972 480,-5490"
         id="path1346" />
      <path
         d="m 48862,17002 -478,5494"
         id="path1348" />
      <path
         d="m 53004,22900 870,72"
         id="path1350" />
      <path
         d="m 54354,17482 -5492,-480"
         id="path1352" />
      <path
         d="m 58756,23468 2592,160"
         id="path1354" />
      <path
         d="m 61828,18138 -5492,-480"
         id="path1356" />
      <path
         d="m 61348,23628 480,-5490"
         id="path1358" />
      <path
         d="m 56336,17658 -478,5490"
         id="path1360" />
      <path
         d="m 62558,31264 480,-5490"
         id="path1362" />
      <path
         d="m 57546,25294 -478,5490"
         id="path1364" />
      <path
         d="m 63038,25774 -4394,-490"
         id="path1366" />
      <path
         d="m 57068,30784 5490,480"
         id="path1368" />
      <path
         d="m 59030,38480 1228,472"
         id="path1370" />
      <path
         d="m 64520,38960 208,-2456"
         id="path1372" />
      <path
         d="m 59508,32990 -478,5490"
         id="path1374" />
      <path
         d="m 65092,33480 -5584,-490"
         id="path1376" />
      <path
         d="m 52318,39894 -454,5252"
         id="path1378" />
      <path
         d="m 57810,40374 -5492,-480"
         id="path1380" />
      <path
         d="m 57346,45650 464,-5276"
         id="path1382" />
      <path
         d="m 57938,45682 -592,-32"
         id="path1384" />
      <path
         d="m 72688,23846 2732,-236"
         id="path1386" />
      <path
         d="m 78190,23444 -490,-5568"
         id="path1388" />
      <path
         d="m 77700,17876 -5492,480"
         id="path1390" />
      <path
         d="m 72208,18356 480,5490"
         id="path1392" />
      <path
         d="m 85176,17218 -5492,480"
         id="path1394" />
      <path
         d="m 80164,23188 966,-84"
         id="path1396" />
      <path
         d="m 85656,22708 -480,-5490"
         id="path1398" />
      <path
         d="m 79684,17698 480,5490"
         id="path1400" />
      <path
         d="m 87154,17042 480,5490"
         id="path1402" />
      <path
         d="m 93126,22052 -480,-5490"
         id="path1404" />
      <path
         d="m 92646,16562 -5492,480"
         id="path1406" />
      <path
         d="m 87634,22532 1058,-92"
         id="path1408" />
      <path
         d="m 100600,21398 -480,-5490"
         id="path1410" />
      <path
         d="m 95108,21878 860,-74"
         id="path1412" />
      <path
         d="m 100120,15908 -5492,480"
         id="path1414" />
      <path
         d="m 94628,16388 480,5490"
         id="path1416" />
      <path
         d="m 97150,23698 480,5490"
         id="path1418" />
      <path
         d="m 97630,29188 5492,-480"
         id="path1420" />
      <path
         d="m 102642,23218 -2702,234"
         id="path1422" />
      <path
         d="m 103122,28708 -480,-5490"
         id="path1424" />
      <path
         d="m 95166,23874 -2478,216"
         id="path1426" />
      <path
         d="m 95646,29364 -480,-5490"
         id="path1428" />
      <path
         d="m 89674,24354 480,5490"
         id="path1430" />
      <path
         d="m 90154,29844 5492,-480"
         id="path1432" />
      <path
         d="m 82684,30496 5492,-480"
         id="path1434" />
      <path
         d="m 87696,24526 -2508,196"
         id="path1436" />
      <path
         d="m 82204,25006 480,5490"
         id="path1438" />
      <path
         d="m 88176,30016 -480,-5490"
         id="path1440" />
      <path
         d="m 80708,30668 -480,-5490"
         id="path1442" />
      <path
         d="m 74736,25658 480,5490"
         id="path1444" />
      <path
         d="m 80228,25178 -5492,480"
         id="path1446" />
      <path
         d="m 75216,31148 5492,-480"
         id="path1448" />
      <path
         d="m 82748,32488 -5492,480"
         id="path1450" />
      <path
         d="m 83228,37978 -480,-5490"
         id="path1452" />
      <path
         d="m 77256,32968 480,5490"
         id="path1454" />
      <path
         d="m 80580,38208 2648,-230"
         id="path1456" />
      <path
         d="m 80146,45778 -496,-5660"
         id="path1458" />
      <path
         d="m 76864,40532 -2690,236"
         id="path1460" />
      <path
         d="m 74654,46258 5492,-480"
         id="path1462" />
      <path
         d="m 74174,40768 480,5490"
         id="path1464" />
      <path
         d="m 85198,37802 2662,-230"
         id="path1466" />
      <path
         d="m 84718,32312 480,5490"
         id="path1468" />
      <path
         d="m 90210,31832 -5492,480"
         id="path1470" />
      <path
         d="m 90690,37324 -480,-5492"
         id="path1472" />
      <path
         d="m 92198,31660 480,5490"
         id="path1474" />
      <path
         d="m 97690,31180 -5492,480"
         id="path1476" />
      <path
         d="m 98170,36670 -480,-5490"
         id="path1478" />
      <path
         d="m 92678,37150 5492,-480"
         id="path1480" />
      <path
         d="m 100568,31176 v 5508"
         id="path1482" />
      <path
         d="m 100568,36684 h 2652"
         id="path1484" />
      <path
         d="M 106078,36804 V 31172"
         id="path1486" />
      <path
         d="m 106078,31172 h -5510"
         id="path1488" />
      <path
         d="m 101318,45684 h 5510"
         id="path1490" />
      <path
         d="M 106828,45684 V 40172"
         id="path1492" />
      <path
         d="m 101318,40176 v 5508"
         id="path1494" />
      <path
         d="m 106828,40172 h -5510"
         id="path1496" />
      <path
         d="m 111372,40168 h -2552"
         id="path1498" />
      <path
         d="m 108820,40172 v 5508"
         id="path1500" />
      <path
         d="M 114330,45680 V 40168"
         id="path1502" />
      <path
         d="m 108820,45680 h 5510"
         id="path1504" />
      <path
         d="m 121830,40170 h -5510"
         id="path1506" />
      <path
         d="M 121830,45682 V 40170"
         id="path1508" />
      <path
         d="m 116320,45682 h 5510"
         id="path1510" />
      <path
         d="m 116320,40174 v 5508"
         id="path1512" />
      <path
         d="m 114324,32668 h -5510"
         id="path1514" />
      <path
         d="m 114328,38272 -4,-5604"
         id="path1516" />
      <path
         d="m 108814,32672 v 5508"
         id="path1518" />
      <path
         d="m 108814,38180 h 2558"
         id="path1520" />
      <path
         d="m 117636,31168 v 5508"
         id="path1522" />
      <path
         d="m 117636,36676 h 5510"
         id="path1524" />
      <path
         d="m 123146,31164 h -5510"
         id="path1526" />
      <path
         d="M 123146,36676 V 31164"
         id="path1528" />
      <path
         d="m 105676,28812 h 5510"
         id="path1530" />
      <path
         d="m 105676,23304 v 5508"
         id="path1532" />
      <path
         d="M 111186,28812 V 23480"
         id="path1534" />
      <path
         d="m 111042,23300 h -2530"
         id="path1536" />
      <path
         d="M 121492,28810 V 23298"
         id="path1538" />
      <path
         d="m 115982,23302 v 5508"
         id="path1540" />
      <path
         d="m 121492,23298 1780,-10"
         id="path1542" />
      <path
         d="m 115982,28810 h 5510"
         id="path1544" />
      <path
         d="M 119976,21014 V 15802"
         id="path1546" />
      <path
         d="m 119976,15802 h -5510"
         id="path1548" />
      <path
         d="m 123268,14608 4,8680"
         id="path1550" />
      <path
         d="m 114466,15806 v 5198"
         id="path1552" />
      <path
         d="M 108564,21300 V 15788"
         id="path1554" />
      <path
         d="m 103054,15792 v 5508"
         id="path1556" />
      <path
         d="m 103054,21300 h 1368"
         id="path1558" />
      <path
         d="m 108564,15788 h -5510"
         id="path1560" />
      <path
         d="m 19850,38262 v 5508"
         id="path1562" />
      <path
         d="M 25360,43770 V 38258"
         id="path1564" />
      <path
         d="m 19850,43770 h 5510"
         id="path1566" />
      <path
         d="m 20660,38100 -810,158"
         id="path1568" />
      <path
         d="m 29228,43774 h 5510"
         id="path1570" />
      <path
         d="m 34738,38262 -1924,-6"
         id="path1572" />
      <path
         d="M 34738,43774 V 38262"
         id="path1574" />
      <path
         d="m 29228,38304 v 5470"
         id="path1576" />
      <path
         d="m 28668,36274 1058,88"
         id="path1578" />
      <path
         d="M 34178,36274 V 30762"
         id="path1580" />
      <path
         d="M 34178,30762 H 28668"
         id="path1582" />
      <path
         d="m 28668,30766 v 5508"
         id="path1584" />
      <path
         d="M 24648,36268 V 30756"
         id="path1586" />
      <path
         d="m 19138,30760 v 5508"
         id="path1588" />
      <path
         d="M 24648,30756 H 19138"
         id="path1590" />
      <path
         d="m 24488,36408 160,-140"
         id="path1592" />
      <path
         d="m 26786,23262 v 5514"
         id="path1594" />
      <path
         d="M 32296,28776 V 23264"
         id="path1596" />
      <path
         d="m 26786,28776 h 5510"
         id="path1598" />
      <path
         d="m 32296,23264 -282,-2"
         id="path1600" />
      <path
         d="m 23710,23262 -1360,-2"
         id="path1602" />
      <path
         d="M 23710,28774 V 23262"
         id="path1604" />
      <path
         d="m 18200,28774 h 5510"
         id="path1606" />
      <path
         d="m 18200,23262 v 5512"
         id="path1608" />
      <path
         d="m 25508,21262 2618,6"
         id="path1610" />
      <path
         d="M 31018,21262 V 15750"
         id="path1612" />
      <path
         d="M 31018,15750 H 25508"
         id="path1614" />
      <path
         d="m 25508,15754 v 5508"
         id="path1616" />
      <path
         d="M 23374,15762 H 17864"
         id="path1618" />
      <path
         d="M 23374,21274 V 15762"
         id="path1620" />
      <path
         d="m 17864,21274 h 686"
         id="path1622" />
      <path
         d="m 17864,15766 v 5508"
         id="path1624" />
      <circle
         cx="16880"
         cy="14765"
         r="433.07101"
         id="circle1626" />
      <path
         d="m 10539,49988 v 35"
         id="path1628" />
      <g
         id="g1630" />
      <g
         id="g1632" />
      <g
         id="g1634" />
      <g
         id="g1636" />
      <g
         id="g1638" />
      <g
         id="g1640" />
      <g
         id="g1642" />
      <g
         id="g1644" />
      <g
         id="g1646" />
      <g
         id="g1648" />
      <g
         id="g1650" />
      <g
         id="g1652" />
      <g
         id="g1654" />
      <g
         id="g1656" />
      <g
         id="g1658" />
      <g
         id="g1660" />
      <g
         id="g1662" />
      <g
         id="g1664" />
      <g
         id="g1666" />
      <g
         id="g1668" />
      <g
         id="g1670" />
      <g
         id="g1672" />
      <g
         id="g1674" />
      <g
         id="g1676" />
      <g
         id="g1678" />
      <g
         id="g1680" />
      <g
         id="g1682" />
      <g
         id="g1684" />
      <g
         id="g1686" />
      <g
         id="g1688" />
      <g
         id="g1690" />
      <g
         id="g1692" />
      <g
         id="g1694" />
      <g
         id="g1696" />
      <g
         id="g1698" />
      <g
         id="g1700" />
      <g
         id="g1702" />
      <g
         id="g1704" />
      <g
         id="g1706" />
      <g
         id="g1708" />
      <g
         id="g1710" />
      <g
         id="g1712" />
      <g
         id="g1714" />
      <g
         id="g1716" />
      <g
         id="g1718" />
      <g
         id="g1720" />
      <g
         id="g1722" />
      <g
         id="g1724" />
      <g
         id="g1726" />
      <g
         id="g1728" />
      <g
         id="g1730" />
      <g
         id="g1732" />
      <g
         id="g1734" />
      <g
         id="g1736" />
      <g
         id="g1738" />
      <g
         id="g1740" />
      <g
         id="g1742" />
      <g
         id="g1744" />
      <g
         id="g1746" />
      <g
         id="g1748" />
      <g
         id="g1750" />
      <g
         id="g1752" />
      <g
         id="g1754" />
      <g
         id="g1756" />
      <g
         id="g1758" />
      <g
         id="g1760" />
      <g
         id="g1762" />
      <g
         id="g1764" />
      <g
         id="g1766" />
      <g
         id="g1768" />
      <g
         id="g1770" />
      <g
         id="g1772" />
      <g
         id="g1774" />
      <g
         id="g1776" />
      <g
         id="g1778" />
      <g
         id="g1780" />
      <g
         id="g1782" />
      <g
         id="g1784" />
      <g
         id="g1786" />
      <g
         id="g1788" />
      <g
         id="g1790" />
      <g
         id="g1792" />
      <g
         id="g1794" />
      <g
         id="g1796" />
      <g
         id="g1798" />
      <g
         id="g1800" />
      <g
         id="g1802" />
      <g
         id="g1804" />
      <g
         id="g1806" />
      <g
         id="g1808" />
      <g
         id="g1810" />
      <g
         id="g1812" />
      <g
         id="g1814" />
      <g
         id="g1816" />
      <g
         id="g1818" />
      <g
         id="g1820" />
      <g
         id="g1822" />
    </g>
  </g>
</svg>
