999
"DXF R12 Output" (www.mydxf.blogspot.com)
 0 
SECTION
 2 
HEADER
 9 
$ACADVER
 1 
AC1009
 9 
$EXTMIN
 10 
 0 
 20 
 0 
 9 
$EXTMAX
 10 
 8.5 
 20 
 11 
 0 
ENDSEC
 0 
SECTION
 2 
ENTITIES
0
LINE
8
Layer 1
10
3298.230000
20
20523.800000
11
5789.230000
21
20523.800000
0
LINE
8
Layer 1
10
3296.230000
20
24434.800000
11
5929.230000
21
24433.800000
0
LINE
8
Layer 1
10
113254.000000
20
20516.800000
11
111764.000000
21
20516.800000
0
LINE
8
Layer 1
10
113798.000000
20
24431.800000
11
111904.000000
21
24433.800000
0
LINE
8
Layer 1
10
2447.230000
20
21366.800000
11
2454.230000
21
23583.800000
0
LINE
8
Layer 1
10
114649.000000
20
21374.000000
11
114648.933225
21
21352.942672
0
LINE
8
Layer 1
10
114648.933225
20
21352.942672
11
114648.342698
21
21331.943951
0
LINE
8
Layer 1
10
114648.342698
20
21331.943951
11
114647.232001
21
21311.012659
0
LINE
8
Layer 1
10
114647.232001
20
21311.012659
11
114645.604718
21
21290.157616
0
LINE
8
Layer 1
10
114645.604718
20
21290.157616
11
114643.464433
21
21269.387645
0
LINE
8
Layer 1
10
114643.464433
20
21269.387645
11
114640.814728
21
21248.711566
0
LINE
8
Layer 1
10
114640.814728
20
21248.711566
11
114637.659187
21
21228.138200
0
LINE
8
Layer 1
10
114637.659187
20
21228.138200
11
114634.001393
21
21207.676369
0
LINE
8
Layer 1
10
114634.001393
20
21207.676369
11
114629.844931
21
21187.334894
0
LINE
8
Layer 1
10
114629.844931
20
21187.334894
11
114625.193383
21
21167.122596
0
LINE
8
Layer 1
10
114625.193383
20
21167.122596
11
114620.050332
21
21147.048297
0
LINE
8
Layer 1
10
114620.050332
20
21147.048297
11
114614.419362
21
21127.120816
0
LINE
8
Layer 1
10
114614.419362
20
21127.120816
11
114608.304056
21
21107.348977
0
LINE
8
Layer 1
10
114608.304056
20
21107.348977
11
114601.707998
21
21087.741599
0
LINE
8
Layer 1
10
114601.707998
20
21087.741599
11
114594.634772
21
21068.307504
0
LINE
8
Layer 1
10
114594.634772
20
21068.307504
11
114587.087959
21
21049.055514
0
LINE
8
Layer 1
10
114587.087959
20
21049.055514
11
114579.071145
21
21029.994449
0
LINE
8
Layer 1
10
114579.071145
20
21029.994449
11
114570.587911
21
21011.133131
0
LINE
8
Layer 1
10
114570.587911
20
21011.133131
11
114561.641842
21
20992.480381
0
LINE
8
Layer 1
10
114561.641842
20
20992.480381
11
114552.236521
21
20974.045020
0
LINE
8
Layer 1
10
114552.236521
20
20974.045020
11
114542.375531
21
20955.835869
0
LINE
8
Layer 1
10
114542.375531
20
20955.835869
11
114532.062456
21
20937.861750
0
LINE
8
Layer 1
10
114532.062456
20
20937.861750
11
114521.300879
21
20920.131483
0
LINE
8
Layer 1
10
114521.300879
20
20920.131483
11
114510.094384
21
20902.653891
0
LINE
8
Layer 1
10
114510.094384
20
20902.653891
11
114498.446553
21
20885.437793
0
LINE
8
Layer 1
10
114498.446553
20
20885.437793
11
114486.360970
21
20868.492012
0
LINE
8
Layer 1
10
114486.360970
20
20868.492012
11
114473.841219
21
20851.825369
0
LINE
8
Layer 1
10
114473.841219
20
20851.825369
11
114460.890882
21
20835.446684
0
LINE
8
Layer 1
10
114460.890882
20
20835.446684
11
114447.513544
21
20819.364779
0
LINE
8
Layer 1
10
114447.513544
20
20819.364779
11
114433.712788
21
20803.588475
0
LINE
8
Layer 1
10
114433.712788
20
20803.588475
11
114419.492196
21
20788.126593
0
LINE
8
Layer 1
10
114419.492196
20
20788.126593
11
114404.855353
21
20772.987956
0
LINE
8
Layer 1
10
114404.855353
20
20772.987956
11
114389.845214
21
20758.219365
0
LINE
8
Layer 1
10
114389.845214
20
20758.219365
11
114374.508206
21
20743.864185
0
LINE
8
Layer 1
10
114374.508206
20
20743.864185
11
114358.853119
21
20729.926077
0
LINE
8
Layer 1
10
114358.853119
20
20729.926077
11
114342.888741
21
20716.408699
0
LINE
8
Layer 1
10
114342.888741
20
20716.408699
11
114326.623863
21
20703.315714
0
LINE
8
Layer 1
10
114326.623863
20
20703.315714
11
114310.067274
21
20690.650780
0
LINE
8
Layer 1
10
114310.067274
20
20690.650780
11
114293.227764
21
20678.417559
0
LINE
8
Layer 1
10
114293.227764
20
20678.417559
11
114276.114122
21
20666.619710
0
LINE
8
Layer 1
10
114276.114122
20
20666.619710
11
114258.735138
21
20655.260894
0
LINE
8
Layer 1
10
114258.735138
20
20655.260894
11
114241.099601
21
20644.344772
0
LINE
8
Layer 1
10
114241.099601
20
20644.344772
11
114223.216300
21
20633.875003
0
LINE
8
Layer 1
10
114223.216300
20
20633.875003
11
114205.094027
21
20623.855249
0
LINE
8
Layer 1
10
114205.094027
20
20623.855249
11
114186.741569
21
20614.289168
0
LINE
8
Layer 1
10
114186.741569
20
20614.289168
11
114168.167716
21
20605.180422
0
LINE
8
Layer 1
10
114168.167716
20
20605.180422
11
114149.381259
21
20596.532672
0
LINE
8
Layer 1
10
114149.381259
20
20596.532672
11
114130.390986
21
20588.349576
0
LINE
8
Layer 1
10
114130.390986
20
20588.349576
11
114111.205688
21
20580.634796
0
LINE
8
Layer 1
10
114111.205688
20
20580.634796
11
114091.834153
21
20573.391993
0
LINE
8
Layer 1
10
114091.834153
20
20573.391993
11
114072.285171
21
20566.624825
0
LINE
8
Layer 1
10
114072.285171
20
20566.624825
11
114052.567532
21
20560.336954
0
LINE
8
Layer 1
10
114052.567532
20
20560.336954
11
114032.690026
21
20554.532040
0
LINE
8
Layer 1
10
114032.690026
20
20554.532040
11
114012.661441
21
20549.213744
0
LINE
8
Layer 1
10
114012.661441
20
20549.213744
11
113992.490568
21
20544.385725
0
LINE
8
Layer 1
10
113992.490568
20
20544.385725
11
113972.186196
21
20540.051643
0
LINE
8
Layer 1
10
113972.186196
20
20540.051643
11
113951.757114
21
20536.215161
0
LINE
8
Layer 1
10
113951.757114
20
20536.215161
11
113931.212113
21
20532.879936
0
LINE
8
Layer 1
10
113931.212113
20
20532.879936
11
113910.559981
21
20530.049631
0
LINE
8
Layer 1
10
113910.559981
20
20530.049631
11
113889.809508
21
20527.727905
0
LINE
8
Layer 1
10
113889.809508
20
20527.727905
11
113868.969484
21
20525.918419
0
LINE
8
Layer 1
10
113868.969484
20
20525.918419
11
113848.048698
21
20524.624832
0
LINE
8
Layer 1
10
113848.048698
20
20524.624832
11
113827.055940
21
20523.850806
0
LINE
8
Layer 1
10
113827.055940
20
20523.850806
11
113806.000000
21
20523.600000
0
LINE
8
Layer 1
10
3298.330000
20
20523.600000
11
3277.280767
21
20523.666652
0
LINE
8
Layer 1
10
3277.280767
20
20523.666652
11
3256.290072
21
20524.256656
0
LINE
8
Layer 1
10
3256.290072
20
20524.256656
11
3235.366726
21
20525.366435
0
LINE
8
Layer 1
10
3235.366726
20
20525.366435
11
3214.519540
21
20526.992411
0
LINE
8
Layer 1
10
3214.519540
20
20526.992411
11
3193.757328
21
20529.131005
0
LINE
8
Layer 1
10
3193.757328
20
20529.131005
11
3173.088900
21
20531.778640
0
LINE
8
Layer 1
10
3173.088900
20
20531.778640
11
3152.523068
21
20534.931737
0
LINE
8
Layer 1
10
3152.523068
20
20534.931737
11
3132.068645
21
20538.586718
0
LINE
8
Layer 1
10
3132.068645
20
20538.586718
11
3111.734442
21
20542.740006
0
LINE
8
Layer 1
10
3111.734442
20
20542.740006
11
3091.529270
21
20547.388022
0
LINE
8
Layer 1
10
3091.529270
20
20547.388022
11
3071.461942
21
20552.527188
0
LINE
8
Layer 1
10
3071.461942
20
20552.527188
11
3051.541270
21
20558.153927
0
LINE
8
Layer 1
10
3051.541270
20
20558.153927
11
3031.776064
21
20564.264660
0
LINE
8
Layer 1
10
3031.776064
20
20564.264660
11
3012.175138
21
20570.855810
0
LINE
8
Layer 1
10
3012.175138
20
20570.855810
11
2992.747302
21
20577.923797
0
LINE
8
Layer 1
10
2992.747302
20
20577.923797
11
2973.501369
21
20585.465045
0
LINE
8
Layer 1
10
2973.501369
20
20585.465045
11
2954.446150
21
20593.475975
0
LINE
8
Layer 1
10
2954.446150
20
20593.475975
11
2935.590458
21
20601.953009
0
LINE
8
Layer 1
10
2935.590458
20
20601.953009
11
2916.943103
21
20610.892569
0
LINE
8
Layer 1
10
2916.943103
20
20610.892569
11
2898.512899
21
20620.291077
0
LINE
8
Layer 1
10
2898.512899
20
20620.291077
11
2880.308655
21
20630.144955
0
LINE
8
Layer 1
10
2880.308655
20
20630.144955
11
2862.339185
21
20640.450625
0
LINE
8
Layer 1
10
2862.339185
20
20640.450625
11
2844.613301
21
20651.204509
0
LINE
8
Layer 1
10
2844.613301
20
20651.204509
11
2827.139813
21
20662.403029
0
LINE
8
Layer 1
10
2827.139813
20
20662.403029
11
2809.927534
21
20674.042607
0
LINE
8
Layer 1
10
2809.927534
20
20674.042607
11
2792.985276
21
20686.119665
0
LINE
8
Layer 1
10
2792.985276
20
20686.119665
11
2776.321850
21
20698.630625
0
LINE
8
Layer 1
10
2776.321850
20
20698.630625
11
2759.946068
21
20711.571908
0
LINE
8
Layer 1
10
2759.946068
20
20711.571908
11
2743.866742
21
20724.939937
0
LINE
8
Layer 1
10
2743.866742
20
20724.939937
11
2728.092684
21
20738.731134
0
LINE
8
Layer 1
10
2728.092684
20
20738.731134
11
2712.632705
21
20752.941921
0
LINE
8
Layer 1
10
2712.632705
20
20752.941921
11
2697.495618
21
20767.568720
0
LINE
8
Layer 1
10
2697.495618
20
20767.568720
11
2682.728184
21
20782.568637
0
LINE
8
Layer 1
10
2682.728184
20
20782.568637
11
2668.373729
21
20797.895315
0
LINE
8
Layer 1
10
2668.373729
20
20797.895315
11
2654.435915
21
20813.539974
0
LINE
8
Layer 1
10
2654.435915
20
20813.539974
11
2640.918402
21
20829.493838
0
LINE
8
Layer 1
10
2640.918402
20
20829.493838
11
2627.824848
21
20845.748127
0
LINE
8
Layer 1
10
2627.824848
20
20845.748127
11
2615.158915
21
20862.294063
0
LINE
8
Layer 1
10
2615.158915
20
20862.294063
11
2602.924263
21
20879.122870
0
LINE
8
Layer 1
10
2602.924263
20
20879.122870
11
2591.124552
21
20896.225768
0
LINE
8
Layer 1
10
2591.124552
20
20896.225768
11
2579.763441
21
20913.593981
0
LINE
8
Layer 1
10
2579.763441
20
20913.593981
11
2568.844592
21
20931.218728
0
LINE
8
Layer 1
10
2568.844592
20
20931.218728
11
2558.371663
21
20949.091234
0
LINE
8
Layer 1
10
2558.371663
20
20949.091234
11
2548.348316
21
20967.202719
0
LINE
8
Layer 1
10
2548.348316
20
20967.202719
11
2538.778210
21
20985.544406
0
LINE
8
Layer 1
10
2538.778210
20
20985.544406
11
2529.665006
21
21004.107516
0
LINE
8
Layer 1
10
2529.665006
20
21004.107516
11
2521.012363
21
21022.883272
0
LINE
8
Layer 1
10
2521.012363
20
21022.883272
11
2512.823942
21
21041.862896
0
LINE
8
Layer 1
10
2512.823942
20
21041.862896
11
2505.103402
21
21061.037609
0
LINE
8
Layer 1
10
2505.103402
20
21061.037609
11
2497.854404
21
21080.398634
0
LINE
8
Layer 1
10
2497.854404
20
21080.398634
11
2491.080609
21
21099.937192
0
LINE
8
Layer 1
10
2491.080609
20
21099.937192
11
2484.785675
21
21119.644506
0
LINE
8
Layer 1
10
2484.785675
20
21119.644506
11
2478.973264
21
21139.511797
0
LINE
8
Layer 1
10
2478.973264
20
21139.511797
11
2473.647035
21
21159.530288
0
LINE
8
Layer 1
10
2473.647035
20
21159.530288
11
2468.810649
21
21179.691200
0
LINE
8
Layer 1
10
2468.810649
20
21179.691200
11
2464.467765
21
21199.985756
0
LINE
8
Layer 1
10
2464.467765
20
21199.985756
11
2460.622044
21
21220.405177
0
LINE
8
Layer 1
10
2460.622044
20
21220.405177
11
2457.277145
21
21240.940685
0
LINE
8
Layer 1
10
2457.277145
20
21240.940685
11
2454.436730
21
21261.583502
0
LINE
8
Layer 1
10
2454.436730
20
21261.583502
11
2452.104457
21
21282.324851
0
LINE
8
Layer 1
10
2452.104457
20
21282.324851
11
2450.283988
21
21303.155954
0
LINE
8
Layer 1
10
2450.283988
20
21303.155954
11
2448.978982
21
21324.068031
0
LINE
8
Layer 1
10
2448.978982
20
21324.068031
11
2448.193099
21
21345.052306
0
LINE
8
Layer 1
10
2448.193099
20
21345.052306
11
2447.930000
21
21366.100000
0
LINE
8
Layer 1
10
111764.000000
20
20516.800000
11
108358.000000
21
20523.800000
0
LINE
8
Layer 1
10
114648.000000
20
23588.800000
11
114648.000000
21
21374.800000
0
LINE
8
Layer 1
10
108358.000000
20
20523.800000
11
5789.230000
21
20523.800000
0
LINE
8
Layer 1
10
113806.000000
20
20523.800000
11
113254.000000
21
20516.800000
0
LINE
8
Layer 1
10
111904.000000
20
24433.800000
11
5929.230000
21
24433.800000
0
LINE
8
Layer 1
10
113798.000000
20
24431.300000
11
113819.059081
21
24431.248192
0
LINE
8
Layer 1
10
113819.059081
20
24431.248192
11
113840.059913
21
24430.672506
0
LINE
8
Layer 1
10
113840.059913
20
24430.672506
11
113860.993670
21
24429.576519
0
LINE
8
Layer 1
10
113860.993670
20
24429.576519
11
113881.851526
21
24427.963809
0
LINE
8
Layer 1
10
113881.851526
20
24427.963809
11
113902.624656
21
24425.837955
0
LINE
8
Layer 1
10
113902.624656
20
24425.837955
11
113923.304234
21
24423.202535
0
LINE
8
Layer 1
10
113923.304234
20
24423.202535
11
113943.881433
21
24420.061127
0
LINE
8
Layer 1
10
113943.881433
20
24420.061127
11
113964.347429
21
24416.417309
0
LINE
8
Layer 1
10
113964.347429
20
24416.417309
11
113984.693395
21
24412.274660
0
LINE
8
Layer 1
10
113984.693395
20
24412.274660
11
114004.910506
21
24407.636757
0
LINE
8
Layer 1
10
114004.910506
20
24407.636757
11
114024.989936
21
24402.507180
0
LINE
8
Layer 1
10
114024.989936
20
24402.507180
11
114044.922859
21
24396.889505
0
LINE
8
Layer 1
10
114044.922859
20
24396.889505
11
114064.700450
21
24390.787313
0
LINE
8
Layer 1
10
114064.700450
20
24390.787313
11
114084.313883
21
24384.204179
0
LINE
8
Layer 1
10
114084.313883
20
24384.204179
11
114103.754332
21
24377.143684
0
LINE
8
Layer 1
10
114103.754332
20
24377.143684
11
114123.012971
21
24369.609405
0
LINE
8
Layer 1
10
114123.012971
20
24369.609405
11
114142.080974
21
24361.604920
0
LINE
8
Layer 1
10
114142.080974
20
24361.604920
11
114160.949517
21
24353.133807
0
LINE
8
Layer 1
10
114160.949517
20
24353.133807
11
114179.609773
21
24344.199646
0
LINE
8
Layer 1
10
114179.609773
20
24344.199646
11
114198.052916
21
24334.806013
0
LINE
8
Layer 1
10
114198.052916
20
24334.806013
11
114216.270120
21
24324.956488
0
LINE
8
Layer 1
10
114216.270120
20
24324.956488
11
114234.252561
21
24314.654647
0
LINE
8
Layer 1
10
114234.252561
20
24314.654647
11
114251.991411
21
24303.904071
0
LINE
8
Layer 1
10
114251.991411
20
24303.904071
11
114269.477846
21
24292.708336
0
LINE
8
Layer 1
10
114269.477846
20
24292.708336
11
114286.703040
21
24281.071022
0
LINE
8
Layer 1
10
114286.703040
20
24281.071022
11
114303.658167
21
24268.995705
0
LINE
8
Layer 1
10
114303.658167
20
24268.995705
11
114320.334400
21
24256.485966
0
LINE
8
Layer 1
10
114320.334400
20
24256.485966
11
114336.722916
21
24243.545380
0
LINE
8
Layer 1
10
114336.722916
20
24243.545380
11
114352.814886
21
24230.177528
0
LINE
8
Layer 1
10
114352.814886
20
24230.177528
11
114368.601487
21
24216.385987
0
LINE
8
Layer 1
10
114368.601487
20
24216.385987
11
114384.073892
21
24202.174336
0
LINE
8
Layer 1
10
114384.073892
20
24202.174336
11
114399.223276
21
24187.546151
0
LINE
8
Layer 1
10
114399.223276
20
24187.546151
11
114414.002794
21
24172.544371
0
LINE
8
Layer 1
10
114414.002794
20
24172.544371
11
114428.369044
21
24157.215404
0
LINE
8
Layer 1
10
114428.369044
20
24157.215404
11
114442.318358
21
24141.568040
0
LINE
8
Layer 1
10
114442.318358
20
24141.568040
11
114455.847070
21
24125.611068
0
LINE
8
Layer 1
10
114455.847070
20
24125.611068
11
114468.951513
21
24109.353278
0
LINE
8
Layer 1
10
114468.951513
20
24109.353278
11
114481.628021
21
24092.803458
0
LINE
8
Layer 1
10
114481.628021
20
24092.803458
11
114493.872926
21
24075.970400
0
LINE
8
Layer 1
10
114493.872926
20
24075.970400
11
114505.682563
21
24058.862891
0
LINE
8
Layer 1
10
114505.682563
20
24058.862891
11
114517.053265
21
24041.489721
0
LINE
8
Layer 1
10
114517.053265
20
24041.489721
11
114527.981365
21
24023.859680
0
LINE
8
Layer 1
10
114527.981365
20
24023.859680
11
114538.463196
21
24005.981557
0
LINE
8
Layer 1
10
114538.463196
20
24005.981557
11
114548.495092
21
23987.864141
0
LINE
8
Layer 1
10
114548.495092
20
23987.864141
11
114558.073386
21
23969.516221
0
LINE
8
Layer 1
10
114558.073386
20
23969.516221
11
114567.194412
21
23950.946588
0
LINE
8
Layer 1
10
114567.194412
20
23950.946588
11
114575.854502
21
23932.164030
0
LINE
8
Layer 1
10
114575.854502
20
23932.164030
11
114584.049991
21
23913.177337
0
LINE
8
Layer 1
10
114584.049991
20
23913.177337
11
114591.777211
21
23893.995299
0
LINE
8
Layer 1
10
114591.777211
20
23893.995299
11
114599.032496
21
23874.626704
0
LINE
8
Layer 1
10
114599.032496
20
23874.626704
11
114605.812180
21
23855.080341
0
LINE
8
Layer 1
10
114605.812180
20
23855.080341
11
114612.112595
21
23835.365002
0
LINE
8
Layer 1
10
114612.112595
20
23835.365002
11
114617.930076
21
23815.489473
0
LINE
8
Layer 1
10
114617.930076
20
23815.489473
11
114623.260955
21
23795.462546
0
LINE
8
Layer 1
10
114623.260955
20
23795.462546
11
114628.101566
21
23775.293010
0
LINE
8
Layer 1
10
114628.101566
20
23775.293010
11
114632.448242
21
23754.989653
0
LINE
8
Layer 1
10
114632.448242
20
23754.989653
11
114636.297316
21
23734.561266
0
LINE
8
Layer 1
10
114636.297316
20
23734.561266
11
114639.645123
21
23714.016637
0
LINE
8
Layer 1
10
114639.645123
20
23714.016637
11
114642.487994
21
23693.364556
0
LINE
8
Layer 1
10
114642.487994
20
23693.364556
11
114644.822265
21
23672.613813
0
LINE
8
Layer 1
10
114644.822265
20
23672.613813
11
114646.644267
21
23651.773196
0
LINE
8
Layer 1
10
114646.644267
20
23651.773196
11
114647.950335
21
23630.851495
0
LINE
8
Layer 1
10
114647.950335
20
23630.851495
11
114648.736801
21
23609.857500
0
LINE
8
Layer 1
10
114648.736801
20
23609.857500
11
114649.000000
21
23588.800000
0
LINE
8
Layer 1
10
2454.230000
20
23583.800000
11
2454.296652
21
23604.849233
0
LINE
8
Layer 1
10
2454.296652
20
23604.849233
11
2454.886656
21
23625.839928
0
LINE
8
Layer 1
10
2454.886656
20
23625.839928
11
2455.996435
21
23646.763274
0
LINE
8
Layer 1
10
2455.996435
20
23646.763274
11
2457.622411
21
23667.610460
0
LINE
8
Layer 1
10
2457.622411
20
23667.610460
11
2459.761005
21
23688.372672
0
LINE
8
Layer 1
10
2459.761005
20
23688.372672
11
2462.408640
21
23709.041100
0
LINE
8
Layer 1
10
2462.408640
20
23709.041100
11
2465.561737
21
23729.606932
0
LINE
8
Layer 1
10
2465.561737
20
23729.606932
11
2469.216718
21
23750.061355
0
LINE
8
Layer 1
10
2469.216718
20
23750.061355
11
2473.370006
21
23770.395558
0
LINE
8
Layer 1
10
2473.370006
20
23770.395558
11
2478.018022
21
23790.600730
0
LINE
8
Layer 1
10
2478.018022
20
23790.600730
11
2483.157188
21
23810.668058
0
LINE
8
Layer 1
10
2483.157188
20
23810.668058
11
2488.783927
21
23830.588730
0
LINE
8
Layer 1
10
2488.783927
20
23830.588730
11
2494.894660
21
23850.353936
0
LINE
8
Layer 1
10
2494.894660
20
23850.353936
11
2501.485810
21
23869.954862
0
LINE
8
Layer 1
10
2501.485810
20
23869.954862
11
2508.553797
21
23889.382698
0
LINE
8
Layer 1
10
2508.553797
20
23889.382698
11
2516.095045
21
23908.628631
0
LINE
8
Layer 1
10
2516.095045
20
23908.628631
11
2524.105975
21
23927.683850
0
LINE
8
Layer 1
10
2524.105975
20
23927.683850
11
2532.583009
21
23946.539542
0
LINE
8
Layer 1
10
2532.583009
20
23946.539542
11
2541.522569
21
23965.186897
0
LINE
8
Layer 1
10
2541.522569
20
23965.186897
11
2550.921077
21
23983.617101
0
LINE
8
Layer 1
10
2550.921077
20
23983.617101
11
2560.774955
21
24001.821345
0
LINE
8
Layer 1
10
2560.774955
20
24001.821345
11
2571.080625
21
24019.790815
0
LINE
8
Layer 1
10
2571.080625
20
24019.790815
11
2581.834509
21
24037.516699
0
LINE
8
Layer 1
10
2581.834509
20
24037.516699
11
2593.033029
21
24054.990187
0
LINE
8
Layer 1
10
2593.033029
20
24054.990187
11
2604.672607
21
24072.202466
0
LINE
8
Layer 1
10
2604.672607
20
24072.202466
11
2616.749665
21
24089.144724
0
LINE
8
Layer 1
10
2616.749665
20
24089.144724
11
2629.260625
21
24105.808150
0
LINE
8
Layer 1
10
2629.260625
20
24105.808150
11
2642.201908
21
24122.183932
0
LINE
8
Layer 1
10
2642.201908
20
24122.183932
11
2655.569937
21
24138.263258
0
LINE
8
Layer 1
10
2655.569937
20
24138.263258
11
2669.361134
21
24154.037316
0
LINE
8
Layer 1
10
2669.361134
20
24154.037316
11
2683.571921
21
24169.497295
0
LINE
8
Layer 1
10
2683.571921
20
24169.497295
11
2698.198720
21
24184.634382
0
LINE
8
Layer 1
10
2698.198720
20
24184.634382
11
2713.198637
21
24199.401816
0
LINE
8
Layer 1
10
2713.198637
20
24199.401816
11
2728.525315
21
24213.756271
0
LINE
8
Layer 1
10
2728.525315
20
24213.756271
11
2744.169974
21
24227.694085
0
LINE
8
Layer 1
10
2744.169974
20
24227.694085
11
2760.123838
21
24241.211598
0
LINE
8
Layer 1
10
2760.123838
20
24241.211598
11
2776.378127
21
24254.305152
0
LINE
8
Layer 1
10
2776.378127
20
24254.305152
11
2792.924063
21
24266.971085
0
LINE
8
Layer 1
10
2792.924063
20
24266.971085
11
2809.752870
21
24279.205737
0
LINE
8
Layer 1
10
2809.752870
20
24279.205737
11
2826.855768
21
24291.005448
0
LINE
8
Layer 1
10
2826.855768
20
24291.005448
11
2844.223981
21
24302.366559
0
LINE
8
Layer 1
10
2844.223981
20
24302.366559
11
2861.848728
21
24313.285408
0
LINE
8
Layer 1
10
2861.848728
20
24313.285408
11
2879.721234
21
24323.758337
0
LINE
8
Layer 1
10
2879.721234
20
24323.758337
11
2897.832719
21
24333.781684
0
LINE
8
Layer 1
10
2897.832719
20
24333.781684
11
2916.174406
21
24343.351790
0
LINE
8
Layer 1
10
2916.174406
20
24343.351790
11
2934.737516
21
24352.464994
0
LINE
8
Layer 1
10
2934.737516
20
24352.464994
11
2953.513272
21
24361.117637
0
LINE
8
Layer 1
10
2953.513272
20
24361.117637
11
2972.492896
21
24369.306058
0
LINE
8
Layer 1
10
2972.492896
20
24369.306058
11
2991.667609
21
24377.026598
0
LINE
8
Layer 1
10
2991.667609
20
24377.026598
11
3011.028634
21
24384.275596
0
LINE
8
Layer 1
10
3011.028634
20
24384.275596
11
3030.567192
21
24391.049391
0
LINE
8
Layer 1
10
3030.567192
20
24391.049391
11
3050.274506
21
24397.344325
0
LINE
8
Layer 1
10
3050.274506
20
24397.344325
11
3070.141797
21
24403.156736
0
LINE
8
Layer 1
10
3070.141797
20
24403.156736
11
3090.160288
21
24408.482965
0
LINE
8
Layer 1
10
3090.160288
20
24408.482965
11
3110.321200
21
24413.319351
0
LINE
8
Layer 1
10
3110.321200
20
24413.319351
11
3130.615756
21
24417.662235
0
LINE
8
Layer 1
10
3130.615756
20
24417.662235
11
3151.035177
21
24421.507956
0
LINE
8
Layer 1
10
3151.035177
20
24421.507956
11
3171.570685
21
24424.852855
0
LINE
8
Layer 1
10
3171.570685
20
24424.852855
11
3192.213502
21
24427.693270
0
LINE
8
Layer 1
10
3192.213502
20
24427.693270
11
3212.954851
21
24430.025543
0
LINE
8
Layer 1
10
3212.954851
20
24430.025543
11
3233.785954
21
24431.846012
0
LINE
8
Layer 1
10
3233.785954
20
24431.846012
11
3254.698031
21
24433.151018
0
LINE
8
Layer 1
10
3254.698031
20
24433.151018
11
3275.682306
21
24433.936901
0
LINE
8
Layer 1
10
3275.682306
20
24433.936901
11
3296.730000
21
24434.200000
0
LINE
8
Layer 1
10
3376.230000
20
17924.800000
11
5789.230000
21
17923.800000
0
LINE
8
Layer 1
10
113878.000000
20
17921.800000
11
111764.000000
21
17921.800000
0
LINE
8
Layer 1
10
2534.230000
20
17073.800000
11
2534.296652
21
17094.849233
0
LINE
8
Layer 1
10
2534.296652
20
17094.849233
11
2534.886656
21
17115.839928
0
LINE
8
Layer 1
10
2534.886656
20
17115.839928
11
2535.996435
21
17136.763274
0
LINE
8
Layer 1
10
2535.996435
20
17136.763274
11
2537.622411
21
17157.610460
0
LINE
8
Layer 1
10
2537.622411
20
17157.610460
11
2539.761005
21
17178.372672
0
LINE
8
Layer 1
10
2539.761005
20
17178.372672
11
2542.408640
21
17199.041100
0
LINE
8
Layer 1
10
2542.408640
20
17199.041100
11
2545.561737
21
17219.606932
0
LINE
8
Layer 1
10
2545.561737
20
17219.606932
11
2549.216718
21
17240.061355
0
LINE
8
Layer 1
10
2549.216718
20
17240.061355
11
2553.370006
21
17260.395558
0
LINE
8
Layer 1
10
2553.370006
20
17260.395558
11
2558.018022
21
17280.600730
0
LINE
8
Layer 1
10
2558.018022
20
17280.600730
11
2563.157188
21
17300.668058
0
LINE
8
Layer 1
10
2563.157188
20
17300.668058
11
2568.783927
21
17320.588730
0
LINE
8
Layer 1
10
2568.783927
20
17320.588730
11
2574.894660
21
17340.353936
0
LINE
8
Layer 1
10
2574.894660
20
17340.353936
11
2581.485810
21
17359.954862
0
LINE
8
Layer 1
10
2581.485810
20
17359.954862
11
2588.553797
21
17379.382698
0
LINE
8
Layer 1
10
2588.553797
20
17379.382698
11
2596.095045
21
17398.628631
0
LINE
8
Layer 1
10
2596.095045
20
17398.628631
11
2604.105975
21
17417.683850
0
LINE
8
Layer 1
10
2604.105975
20
17417.683850
11
2612.583009
21
17436.539542
0
LINE
8
Layer 1
10
2612.583009
20
17436.539542
11
2621.522569
21
17455.186897
0
LINE
8
Layer 1
10
2621.522569
20
17455.186897
11
2630.921077
21
17473.617101
0
LINE
8
Layer 1
10
2630.921077
20
17473.617101
11
2640.774955
21
17491.821345
0
LINE
8
Layer 1
10
2640.774955
20
17491.821345
11
2651.080625
21
17509.790815
0
LINE
8
Layer 1
10
2651.080625
20
17509.790815
11
2661.834509
21
17527.516699
0
LINE
8
Layer 1
10
2661.834509
20
17527.516699
11
2673.033029
21
17544.990187
0
LINE
8
Layer 1
10
2673.033029
20
17544.990187
11
2684.672607
21
17562.202466
0
LINE
8
Layer 1
10
2684.672607
20
17562.202466
11
2696.749665
21
17579.144724
0
LINE
8
Layer 1
10
2696.749665
20
17579.144724
11
2709.260625
21
17595.808150
0
LINE
8
Layer 1
10
2709.260625
20
17595.808150
11
2722.201908
21
17612.183932
0
LINE
8
Layer 1
10
2722.201908
20
17612.183932
11
2735.569937
21
17628.263258
0
LINE
8
Layer 1
10
2735.569937
20
17628.263258
11
2749.361134
21
17644.037316
0
LINE
8
Layer 1
10
2749.361134
20
17644.037316
11
2763.571921
21
17659.497295
0
LINE
8
Layer 1
10
2763.571921
20
17659.497295
11
2778.198720
21
17674.634382
0
LINE
8
Layer 1
10
2778.198720
20
17674.634382
11
2793.198637
21
17689.401816
0
LINE
8
Layer 1
10
2793.198637
20
17689.401816
11
2808.525315
21
17703.756271
0
LINE
8
Layer 1
10
2808.525315
20
17703.756271
11
2824.169974
21
17717.694085
0
LINE
8
Layer 1
10
2824.169974
20
17717.694085
11
2840.123838
21
17731.211598
0
LINE
8
Layer 1
10
2840.123838
20
17731.211598
11
2856.378127
21
17744.305152
0
LINE
8
Layer 1
10
2856.378127
20
17744.305152
11
2872.924063
21
17756.971085
0
LINE
8
Layer 1
10
2872.924063
20
17756.971085
11
2889.752870
21
17769.205737
0
LINE
8
Layer 1
10
2889.752870
20
17769.205737
11
2906.855768
21
17781.005448
0
LINE
8
Layer 1
10
2906.855768
20
17781.005448
11
2924.223981
21
17792.366559
0
LINE
8
Layer 1
10
2924.223981
20
17792.366559
11
2941.848728
21
17803.285408
0
LINE
8
Layer 1
10
2941.848728
20
17803.285408
11
2959.721234
21
17813.758337
0
LINE
8
Layer 1
10
2959.721234
20
17813.758337
11
2977.832719
21
17823.781684
0
LINE
8
Layer 1
10
2977.832719
20
17823.781684
11
2996.174406
21
17833.351790
0
LINE
8
Layer 1
10
2996.174406
20
17833.351790
11
3014.737516
21
17842.464994
0
LINE
8
Layer 1
10
3014.737516
20
17842.464994
11
3033.513272
21
17851.117637
0
LINE
8
Layer 1
10
3033.513272
20
17851.117637
11
3052.492896
21
17859.306058
0
LINE
8
Layer 1
10
3052.492896
20
17859.306058
11
3071.667609
21
17867.026598
0
LINE
8
Layer 1
10
3071.667609
20
17867.026598
11
3091.028634
21
17874.275596
0
LINE
8
Layer 1
10
3091.028634
20
17874.275596
11
3110.567192
21
17881.049391
0
LINE
8
Layer 1
10
3110.567192
20
17881.049391
11
3130.274506
21
17887.344325
0
LINE
8
Layer 1
10
3130.274506
20
17887.344325
11
3150.141797
21
17893.156736
0
LINE
8
Layer 1
10
3150.141797
20
17893.156736
11
3170.160288
21
17898.482965
0
LINE
8
Layer 1
10
3170.160288
20
17898.482965
11
3190.321200
21
17903.319351
0
LINE
8
Layer 1
10
3190.321200
20
17903.319351
11
3210.615756
21
17907.662235
0
LINE
8
Layer 1
10
3210.615756
20
17907.662235
11
3231.035177
21
17911.507956
0
LINE
8
Layer 1
10
3231.035177
20
17911.507956
11
3251.570685
21
17914.852855
0
LINE
8
Layer 1
10
3251.570685
20
17914.852855
11
3272.213502
21
17917.693270
0
LINE
8
Layer 1
10
3272.213502
20
17917.693270
11
3292.954851
21
17920.025543
0
LINE
8
Layer 1
10
3292.954851
20
17920.025543
11
3313.785954
21
17921.846012
0
LINE
8
Layer 1
10
3313.785954
20
17921.846012
11
3334.698031
21
17923.151018
0
LINE
8
Layer 1
10
3334.698031
20
17923.151018
11
3355.682306
21
17923.936901
0
LINE
8
Layer 1
10
3355.682306
20
17923.936901
11
3376.730000
21
17924.200000
0
LINE
8
Layer 1
10
111764.000000
20
17921.800000
11
5789.000000
21
17923.800000
0
LINE
8
Layer 1
10
113878.000000
20
17921.300000
11
113899.059081
21
17921.248192
0
LINE
8
Layer 1
10
113899.059081
20
17921.248192
11
113920.059913
21
17920.672506
0
LINE
8
Layer 1
10
113920.059913
20
17920.672506
11
113940.993670
21
17919.576519
0
LINE
8
Layer 1
10
113940.993670
20
17919.576519
11
113961.851526
21
17917.963809
0
LINE
8
Layer 1
10
113961.851526
20
17917.963809
11
113982.624656
21
17915.837955
0
LINE
8
Layer 1
10
113982.624656
20
17915.837955
11
114003.304234
21
17913.202535
0
LINE
8
Layer 1
10
114003.304234
20
17913.202535
11
114023.881433
21
17910.061127
0
LINE
8
Layer 1
10
114023.881433
20
17910.061127
11
114044.347429
21
17906.417309
0
LINE
8
Layer 1
10
114044.347429
20
17906.417309
11
114064.693395
21
17902.274660
0
LINE
8
Layer 1
10
114064.693395
20
17902.274660
11
114084.910506
21
17897.636757
0
LINE
8
Layer 1
10
114084.910506
20
17897.636757
11
114104.989936
21
17892.507180
0
LINE
8
Layer 1
10
114104.989936
20
17892.507180
11
114124.922859
21
17886.889505
0
LINE
8
Layer 1
10
114124.922859
20
17886.889505
11
114144.700450
21
17880.787313
0
LINE
8
Layer 1
10
114144.700450
20
17880.787313
11
114164.313883
21
17874.204179
0
LINE
8
Layer 1
10
114164.313883
20
17874.204179
11
114183.754332
21
17867.143684
0
LINE
8
Layer 1
10
114183.754332
20
17867.143684
11
114203.012971
21
17859.609405
0
LINE
8
Layer 1
10
114203.012971
20
17859.609405
11
114222.080974
21
17851.604920
0
LINE
8
Layer 1
10
114222.080974
20
17851.604920
11
114240.949517
21
17843.133807
0
LINE
8
Layer 1
10
114240.949517
20
17843.133807
11
114259.609773
21
17834.199646
0
LINE
8
Layer 1
10
114259.609773
20
17834.199646
11
114278.052916
21
17824.806013
0
LINE
8
Layer 1
10
114278.052916
20
17824.806013
11
114296.270120
21
17814.956488
0
LINE
8
Layer 1
10
114296.270120
20
17814.956488
11
114314.252561
21
17804.654647
0
LINE
8
Layer 1
10
114314.252561
20
17804.654647
11
114331.991411
21
17793.904071
0
LINE
8
Layer 1
10
114331.991411
20
17793.904071
11
114349.477846
21
17782.708336
0
LINE
8
Layer 1
10
114349.477846
20
17782.708336
11
114366.703040
21
17771.071022
0
LINE
8
Layer 1
10
114366.703040
20
17771.071022
11
114383.658167
21
17758.995705
0
LINE
8
Layer 1
10
114383.658167
20
17758.995705
11
114400.334400
21
17746.485966
0
LINE
8
Layer 1
10
114400.334400
20
17746.485966
11
114416.722916
21
17733.545380
0
LINE
8
Layer 1
10
114416.722916
20
17733.545380
11
114432.814886
21
17720.177528
0
LINE
8
Layer 1
10
114432.814886
20
17720.177528
11
114448.601487
21
17706.385987
0
LINE
8
Layer 1
10
114448.601487
20
17706.385987
11
114464.073892
21
17692.174336
0
LINE
8
Layer 1
10
114464.073892
20
17692.174336
11
114479.223276
21
17677.546151
0
LINE
8
Layer 1
10
114479.223276
20
17677.546151
11
114494.002794
21
17662.544371
0
LINE
8
Layer 1
10
114494.002794
20
17662.544371
11
114508.369044
21
17647.215404
0
LINE
8
Layer 1
10
114508.369044
20
17647.215404
11
114522.318358
21
17631.568040
0
LINE
8
Layer 1
10
114522.318358
20
17631.568040
11
114535.847070
21
17615.611068
0
LINE
8
Layer 1
10
114535.847070
20
17615.611068
11
114548.951513
21
17599.353278
0
LINE
8
Layer 1
10
114548.951513
20
17599.353278
11
114561.628021
21
17582.803458
0
LINE
8
Layer 1
10
114561.628021
20
17582.803458
11
114573.872926
21
17565.970400
0
LINE
8
Layer 1
10
114573.872926
20
17565.970400
11
114585.682563
21
17548.862891
0
LINE
8
Layer 1
10
114585.682563
20
17548.862891
11
114597.053265
21
17531.489721
0
LINE
8
Layer 1
10
114597.053265
20
17531.489721
11
114607.981365
21
17513.859680
0
LINE
8
Layer 1
10
114607.981365
20
17513.859680
11
114618.463196
21
17495.981557
0
LINE
8
Layer 1
10
114618.463196
20
17495.981557
11
114628.495092
21
17477.864141
0
LINE
8
Layer 1
10
114628.495092
20
17477.864141
11
114638.073386
21
17459.516221
0
LINE
8
Layer 1
10
114638.073386
20
17459.516221
11
114647.194412
21
17440.946588
0
LINE
8
Layer 1
10
114647.194412
20
17440.946588
11
114655.854502
21
17422.164030
0
LINE
8
Layer 1
10
114655.854502
20
17422.164030
11
114664.049991
21
17403.177337
0
LINE
8
Layer 1
10
114664.049991
20
17403.177337
11
114671.777211
21
17383.995299
0
LINE
8
Layer 1
10
114671.777211
20
17383.995299
11
114679.032496
21
17364.626704
0
LINE
8
Layer 1
10
114679.032496
20
17364.626704
11
114685.812180
21
17345.080341
0
LINE
8
Layer 1
10
114685.812180
20
17345.080341
11
114692.112595
21
17325.365002
0
LINE
8
Layer 1
10
114692.112595
20
17325.365002
11
114697.930076
21
17305.489473
0
LINE
8
Layer 1
10
114697.930076
20
17305.489473
11
114703.260955
21
17285.462546
0
LINE
8
Layer 1
10
114703.260955
20
17285.462546
11
114708.101566
21
17265.293010
0
LINE
8
Layer 1
10
114708.101566
20
17265.293010
11
114712.448242
21
17244.989653
0
LINE
8
Layer 1
10
114712.448242
20
17244.989653
11
114716.297316
21
17224.561266
0
LINE
8
Layer 1
10
114716.297316
20
17224.561266
11
114719.645123
21
17204.016637
0
LINE
8
Layer 1
10
114719.645123
20
17204.016637
11
114722.487994
21
17183.364556
0
LINE
8
Layer 1
10
114722.487994
20
17183.364556
11
114724.822265
21
17162.613813
0
LINE
8
Layer 1
10
114724.822265
20
17162.613813
11
114726.644267
21
17141.773196
0
LINE
8
Layer 1
10
114726.644267
20
17141.773196
11
114727.950335
21
17120.851495
0
LINE
8
Layer 1
10
114727.950335
20
17120.851495
11
114728.736801
21
17099.857500
0
LINE
8
Layer 1
10
114728.736801
20
17099.857500
11
114729.000000
21
17078.800000
0
LINE
8
Layer 1
10
114728.000000
20
17078.800000
11
114728.000000
21
14864.800000
0
LINE
8
Layer 1
10
108438.000000
20
14013.800000
11
3378.230000
21
14013.800000
0
LINE
8
Layer 1
10
2527.230000
20
14856.800000
11
2534.230000
21
17073.800000
0
LINE
8
Layer 1
10
114729.000000
20
14864.000000
11
114728.933225
21
14842.942672
0
LINE
8
Layer 1
10
114728.933225
20
14842.942672
11
114728.342698
21
14821.943951
0
LINE
8
Layer 1
10
114728.342698
20
14821.943951
11
114727.232001
21
14801.012659
0
LINE
8
Layer 1
10
114727.232001
20
14801.012659
11
114725.604718
21
14780.157616
0
LINE
8
Layer 1
10
114725.604718
20
14780.157616
11
114723.464433
21
14759.387645
0
LINE
8
Layer 1
10
114723.464433
20
14759.387645
11
114720.814728
21
14738.711566
0
LINE
8
Layer 1
10
114720.814728
20
14738.711566
11
114717.659187
21
14718.138200
0
LINE
8
Layer 1
10
114717.659187
20
14718.138200
11
114714.001393
21
14697.676369
0
LINE
8
Layer 1
10
114714.001393
20
14697.676369
11
114709.844931
21
14677.334894
0
LINE
8
Layer 1
10
114709.844931
20
14677.334894
11
114705.193383
21
14657.122596
0
LINE
8
Layer 1
10
114705.193383
20
14657.122596
11
114700.050332
21
14637.048297
0
LINE
8
Layer 1
10
114700.050332
20
14637.048297
11
114694.419362
21
14617.120816
0
LINE
8
Layer 1
10
114694.419362
20
14617.120816
11
114688.304056
21
14597.348977
0
LINE
8
Layer 1
10
114688.304056
20
14597.348977
11
114681.707998
21
14577.741599
0
LINE
8
Layer 1
10
114681.707998
20
14577.741599
11
114674.634772
21
14558.307504
0
LINE
8
Layer 1
10
114674.634772
20
14558.307504
11
114667.087959
21
14539.055514
0
LINE
8
Layer 1
10
114667.087959
20
14539.055514
11
114659.071145
21
14519.994449
0
LINE
8
Layer 1
10
114659.071145
20
14519.994449
11
114650.587911
21
14501.133131
0
LINE
8
Layer 1
10
114650.587911
20
14501.133131
11
114641.641842
21
14482.480381
0
LINE
8
Layer 1
10
114641.641842
20
14482.480381
11
114632.236521
21
14464.045020
0
LINE
8
Layer 1
10
114632.236521
20
14464.045020
11
114622.375531
21
14445.835869
0
LINE
8
Layer 1
10
114622.375531
20
14445.835869
11
114612.062456
21
14427.861750
0
LINE
8
Layer 1
10
114612.062456
20
14427.861750
11
114601.300879
21
14410.131483
0
LINE
8
Layer 1
10
114601.300879
20
14410.131483
11
114590.094384
21
14392.653891
0
LINE
8
Layer 1
10
114590.094384
20
14392.653891
11
114578.446553
21
14375.437793
0
LINE
8
Layer 1
10
114578.446553
20
14375.437793
11
114566.360970
21
14358.492012
0
LINE
8
Layer 1
10
114566.360970
20
14358.492012
11
114553.841219
21
14341.825369
0
LINE
8
Layer 1
10
114553.841219
20
14341.825369
11
114540.890882
21
14325.446684
0
LINE
8
Layer 1
10
114540.890882
20
14325.446684
11
114527.513544
21
14309.364779
0
LINE
8
Layer 1
10
114527.513544
20
14309.364779
11
114513.712788
21
14293.588475
0
LINE
8
Layer 1
10
114513.712788
20
14293.588475
11
114499.492196
21
14278.126593
0
LINE
8
Layer 1
10
114499.492196
20
14278.126593
11
114484.855353
21
14262.987956
0
LINE
8
Layer 1
10
114484.855353
20
14262.987956
11
114469.845214
21
14248.219365
0
LINE
8
Layer 1
10
114469.845214
20
14248.219365
11
114454.508206
21
14233.864185
0
LINE
8
Layer 1
10
114454.508206
20
14233.864185
11
114438.853119
21
14219.926077
0
LINE
8
Layer 1
10
114438.853119
20
14219.926077
11
114422.888741
21
14206.408699
0
LINE
8
Layer 1
10
114422.888741
20
14206.408699
11
114406.623863
21
14193.315714
0
LINE
8
Layer 1
10
114406.623863
20
14193.315714
11
114390.067274
21
14180.650780
0
LINE
8
Layer 1
10
114390.067274
20
14180.650780
11
114373.227764
21
14168.417559
0
LINE
8
Layer 1
10
114373.227764
20
14168.417559
11
114356.114122
21
14156.619710
0
LINE
8
Layer 1
10
114356.114122
20
14156.619710
11
114338.735138
21
14145.260894
0
LINE
8
Layer 1
10
114338.735138
20
14145.260894
11
114321.099601
21
14134.344772
0
LINE
8
Layer 1
10
114321.099601
20
14134.344772
11
114303.216300
21
14123.875003
0
LINE
8
Layer 1
10
114303.216300
20
14123.875003
11
114285.094027
21
14113.855249
0
LINE
8
Layer 1
10
114285.094027
20
14113.855249
11
114266.741569
21
14104.289168
0
LINE
8
Layer 1
10
114266.741569
20
14104.289168
11
114248.167716
21
14095.180422
0
LINE
8
Layer 1
10
114248.167716
20
14095.180422
11
114229.381259
21
14086.532672
0
LINE
8
Layer 1
10
114229.381259
20
14086.532672
11
114210.390986
21
14078.349576
0
LINE
8
Layer 1
10
114210.390986
20
14078.349576
11
114191.205688
21
14070.634796
0
LINE
8
Layer 1
10
114191.205688
20
14070.634796
11
114171.834153
21
14063.391993
0
LINE
8
Layer 1
10
114171.834153
20
14063.391993
11
114152.285171
21
14056.624825
0
LINE
8
Layer 1
10
114152.285171
20
14056.624825
11
114132.567532
21
14050.336954
0
LINE
8
Layer 1
10
114132.567532
20
14050.336954
11
114112.690026
21
14044.532040
0
LINE
8
Layer 1
10
114112.690026
20
14044.532040
11
114092.661441
21
14039.213744
0
LINE
8
Layer 1
10
114092.661441
20
14039.213744
11
114072.490568
21
14034.385725
0
LINE
8
Layer 1
10
114072.490568
20
14034.385725
11
114052.186196
21
14030.051643
0
LINE
8
Layer 1
10
114052.186196
20
14030.051643
11
114031.757114
21
14026.215161
0
LINE
8
Layer 1
10
114031.757114
20
14026.215161
11
114011.212113
21
14022.879936
0
LINE
8
Layer 1
10
114011.212113
20
14022.879936
11
113990.559981
21
14020.049631
0
LINE
8
Layer 1
10
113990.559981
20
14020.049631
11
113969.809508
21
14017.727905
0
LINE
8
Layer 1
10
113969.809508
20
14017.727905
11
113948.969484
21
14015.918419
0
LINE
8
Layer 1
10
113948.969484
20
14015.918419
11
113928.048698
21
14014.624832
0
LINE
8
Layer 1
10
113928.048698
20
14014.624832
11
113907.055940
21
14013.850806
0
LINE
8
Layer 1
10
113907.055940
20
14013.850806
11
113886.000000
21
14013.600000
0
LINE
8
Layer 1
10
3378.330000
20
14013.600000
11
3357.280767
21
14013.666652
0
LINE
8
Layer 1
10
3357.280767
20
14013.666652
11
3336.290072
21
14014.256656
0
LINE
8
Layer 1
10
3336.290072
20
14014.256656
11
3315.366726
21
14015.366435
0
LINE
8
Layer 1
10
3315.366726
20
14015.366435
11
3294.519540
21
14016.992411
0
LINE
8
Layer 1
10
3294.519540
20
14016.992411
11
3273.757328
21
14019.131005
0
LINE
8
Layer 1
10
3273.757328
20
14019.131005
11
3253.088900
21
14021.778640
0
LINE
8
Layer 1
10
3253.088900
20
14021.778640
11
3232.523068
21
14024.931737
0
LINE
8
Layer 1
10
3232.523068
20
14024.931737
11
3212.068645
21
14028.586718
0
LINE
8
Layer 1
10
3212.068645
20
14028.586718
11
3191.734442
21
14032.740006
0
LINE
8
Layer 1
10
3191.734442
20
14032.740006
11
3171.529270
21
14037.388022
0
LINE
8
Layer 1
10
3171.529270
20
14037.388022
11
3151.461942
21
14042.527188
0
LINE
8
Layer 1
10
3151.461942
20
14042.527188
11
3131.541270
21
14048.153927
0
LINE
8
Layer 1
10
3131.541270
20
14048.153927
11
3111.776064
21
14054.264660
0
LINE
8
Layer 1
10
3111.776064
20
14054.264660
11
3092.175138
21
14060.855810
0
LINE
8
Layer 1
10
3092.175138
20
14060.855810
11
3072.747302
21
14067.923797
0
LINE
8
Layer 1
10
3072.747302
20
14067.923797
11
3053.501369
21
14075.465045
0
LINE
8
Layer 1
10
3053.501369
20
14075.465045
11
3034.446150
21
14083.475975
0
LINE
8
Layer 1
10
3034.446150
20
14083.475975
11
3015.590458
21
14091.953009
0
LINE
8
Layer 1
10
3015.590458
20
14091.953009
11
2996.943103
21
14100.892569
0
LINE
8
Layer 1
10
2996.943103
20
14100.892569
11
2978.512899
21
14110.291077
0
LINE
8
Layer 1
10
2978.512899
20
14110.291077
11
2960.308655
21
14120.144955
0
LINE
8
Layer 1
10
2960.308655
20
14120.144955
11
2942.339185
21
14130.450625
0
LINE
8
Layer 1
10
2942.339185
20
14130.450625
11
2924.613301
21
14141.204509
0
LINE
8
Layer 1
10
2924.613301
20
14141.204509
11
2907.139813
21
14152.403029
0
LINE
8
Layer 1
10
2907.139813
20
14152.403029
11
2889.927534
21
14164.042607
0
LINE
8
Layer 1
10
2889.927534
20
14164.042607
11
2872.985276
21
14176.119665
0
LINE
8
Layer 1
10
2872.985276
20
14176.119665
11
2856.321850
21
14188.630625
0
LINE
8
Layer 1
10
2856.321850
20
14188.630625
11
2839.946068
21
14201.571908
0
LINE
8
Layer 1
10
2839.946068
20
14201.571908
11
2823.866742
21
14214.939937
0
LINE
8
Layer 1
10
2823.866742
20
14214.939937
11
2808.092684
21
14228.731134
0
LINE
8
Layer 1
10
2808.092684
20
14228.731134
11
2792.632705
21
14242.941921
0
LINE
8
Layer 1
10
2792.632705
20
14242.941921
11
2777.495618
21
14257.568720
0
LINE
8
Layer 1
10
2777.495618
20
14257.568720
11
2762.728184
21
14272.568637
0
LINE
8
Layer 1
10
2762.728184
20
14272.568637
11
2748.373729
21
14287.895315
0
LINE
8
Layer 1
10
2748.373729
20
14287.895315
11
2734.435915
21
14303.539974
0
LINE
8
Layer 1
10
2734.435915
20
14303.539974
11
2720.918402
21
14319.493838
0
LINE
8
Layer 1
10
2720.918402
20
14319.493838
11
2707.824848
21
14335.748127
0
LINE
8
Layer 1
10
2707.824848
20
14335.748127
11
2695.158915
21
14352.294063
0
LINE
8
Layer 1
10
2695.158915
20
14352.294063
11
2682.924263
21
14369.122870
0
LINE
8
Layer 1
10
2682.924263
20
14369.122870
11
2671.124552
21
14386.225768
0
LINE
8
Layer 1
10
2671.124552
20
14386.225768
11
2659.763441
21
14403.593981
0
LINE
8
Layer 1
10
2659.763441
20
14403.593981
11
2648.844592
21
14421.218728
0
LINE
8
Layer 1
10
2648.844592
20
14421.218728
11
2638.371663
21
14439.091234
0
LINE
8
Layer 1
10
2638.371663
20
14439.091234
11
2628.348316
21
14457.202719
0
LINE
8
Layer 1
10
2628.348316
20
14457.202719
11
2618.778210
21
14475.544406
0
LINE
8
Layer 1
10
2618.778210
20
14475.544406
11
2609.665006
21
14494.107516
0
LINE
8
Layer 1
10
2609.665006
20
14494.107516
11
2601.012363
21
14512.883272
0
LINE
8
Layer 1
10
2601.012363
20
14512.883272
11
2592.823942
21
14531.862896
0
LINE
8
Layer 1
10
2592.823942
20
14531.862896
11
2585.103402
21
14551.037609
0
LINE
8
Layer 1
10
2585.103402
20
14551.037609
11
2577.854404
21
14570.398634
0
LINE
8
Layer 1
10
2577.854404
20
14570.398634
11
2571.080609
21
14589.937192
0
LINE
8
Layer 1
10
2571.080609
20
14589.937192
11
2564.785675
21
14609.644506
0
LINE
8
Layer 1
10
2564.785675
20
14609.644506
11
2558.973264
21
14629.511797
0
LINE
8
Layer 1
10
2558.973264
20
14629.511797
11
2553.647035
21
14649.530288
0
LINE
8
Layer 1
10
2553.647035
20
14649.530288
11
2548.810649
21
14669.691200
0
LINE
8
Layer 1
10
2548.810649
20
14669.691200
11
2544.467765
21
14689.985756
0
LINE
8
Layer 1
10
2544.467765
20
14689.985756
11
2540.622044
21
14710.405177
0
LINE
8
Layer 1
10
2540.622044
20
14710.405177
11
2537.277145
21
14730.940685
0
LINE
8
Layer 1
10
2537.277145
20
14730.940685
11
2534.436730
21
14751.583502
0
LINE
8
Layer 1
10
2534.436730
20
14751.583502
11
2532.104457
21
14772.324851
0
LINE
8
Layer 1
10
2532.104457
20
14772.324851
11
2530.283988
21
14793.155954
0
LINE
8
Layer 1
10
2530.283988
20
14793.155954
11
2528.978982
21
14814.068031
0
LINE
8
Layer 1
10
2528.978982
20
14814.068031
11
2528.193099
21
14835.052306
0
LINE
8
Layer 1
10
2528.193099
20
14835.052306
11
2527.930000
21
14856.100000
0
LINE
8
Layer 1
10
113886.000000
20
14013.800000
11
113334.000000
21
14006.800000
0
LINE
8
Layer 1
10
113334.000000
20
14006.800000
11
108438.000000
21
14013.800000
0
LINE
8
Layer 1
10
3288.230000
20
27103.800000
11
5929.230000
21
27103.800000
0
LINE
8
Layer 1
10
113244.000000
20
27096.800000
11
111904.000000
21
27096.800000
0
LINE
8
Layer 1
10
12494.200000
20
46663.800000
11
12494.200000
21
45043.800000
0
LINE
8
Layer 1
10
13449.200000
20
46663.800000
11
12494.200000
21
46663.800000
0
LINE
8
Layer 1
10
13449.200000
20
45043.800000
11
13449.200000
21
46663.800000
0
LINE
8
Layer 1
10
12494.200000
20
45043.800000
11
13449.200000
21
45043.800000
0
LINE
8
Layer 1
10
111904.000000
20
27096.800000
11
108348.000000
21
27103.800000
0
LINE
8
Layer 1
10
113796.000000
20
27103.800000
11
113244.000000
21
27096.800000
0
LINE
8
Layer 1
10
3288.330000
20
27103.600000
11
3267.280767
21
27103.666652
0
LINE
8
Layer 1
10
3267.280767
20
27103.666652
11
3246.290072
21
27104.256656
0
LINE
8
Layer 1
10
3246.290072
20
27104.256656
11
3225.366726
21
27105.366435
0
LINE
8
Layer 1
10
3225.366726
20
27105.366435
11
3204.519540
21
27106.992411
0
LINE
8
Layer 1
10
3204.519540
20
27106.992411
11
3183.757328
21
27109.131005
0
LINE
8
Layer 1
10
3183.757328
20
27109.131005
11
3163.088900
21
27111.778640
0
LINE
8
Layer 1
10
3163.088900
20
27111.778640
11
3142.523068
21
27114.931737
0
LINE
8
Layer 1
10
3142.523068
20
27114.931737
11
3122.068645
21
27118.586718
0
LINE
8
Layer 1
10
3122.068645
20
27118.586718
11
3101.734442
21
27122.740006
0
LINE
8
Layer 1
10
3101.734442
20
27122.740006
11
3081.529270
21
27127.388022
0
LINE
8
Layer 1
10
3081.529270
20
27127.388022
11
3061.461942
21
27132.527188
0
LINE
8
Layer 1
10
3061.461942
20
27132.527188
11
3041.541270
21
27138.153927
0
LINE
8
Layer 1
10
3041.541270
20
27138.153927
11
3021.776064
21
27144.264660
0
LINE
8
Layer 1
10
3021.776064
20
27144.264660
11
3002.175138
21
27150.855810
0
LINE
8
Layer 1
10
3002.175138
20
27150.855810
11
2982.747302
21
27157.923797
0
LINE
8
Layer 1
10
2982.747302
20
27157.923797
11
2963.501369
21
27165.465045
0
LINE
8
Layer 1
10
2963.501369
20
27165.465045
11
2944.446150
21
27173.475975
0
LINE
8
Layer 1
10
2944.446150
20
27173.475975
11
2925.590458
21
27181.953009
0
LINE
8
Layer 1
10
2925.590458
20
27181.953009
11
2906.943103
21
27190.892569
0
LINE
8
Layer 1
10
2906.943103
20
27190.892569
11
2888.512899
21
27200.291077
0
LINE
8
Layer 1
10
2888.512899
20
27200.291077
11
2870.308655
21
27210.144955
0
LINE
8
Layer 1
10
2870.308655
20
27210.144955
11
2852.339185
21
27220.450625
0
LINE
8
Layer 1
10
2852.339185
20
27220.450625
11
2834.613301
21
27231.204509
0
LINE
8
Layer 1
10
2834.613301
20
27231.204509
11
2817.139813
21
27242.403029
0
LINE
8
Layer 1
10
2817.139813
20
27242.403029
11
2799.927534
21
27254.042607
0
LINE
8
Layer 1
10
2799.927534
20
27254.042607
11
2782.985276
21
27266.119665
0
LINE
8
Layer 1
10
2782.985276
20
27266.119665
11
2766.321850
21
27278.630625
0
LINE
8
Layer 1
10
2766.321850
20
27278.630625
11
2749.946068
21
27291.571908
0
LINE
8
Layer 1
10
2749.946068
20
27291.571908
11
2733.866742
21
27304.939937
0
LINE
8
Layer 1
10
2733.866742
20
27304.939937
11
2718.092684
21
27318.731134
0
LINE
8
Layer 1
10
2718.092684
20
27318.731134
11
2702.632705
21
27332.941921
0
LINE
8
Layer 1
10
2702.632705
20
27332.941921
11
2687.495618
21
27347.568720
0
LINE
8
Layer 1
10
2687.495618
20
27347.568720
11
2672.728184
21
27362.568637
0
LINE
8
Layer 1
10
2672.728184
20
27362.568637
11
2658.373729
21
27377.895315
0
LINE
8
Layer 1
10
2658.373729
20
27377.895315
11
2644.435915
21
27393.539974
0
LINE
8
Layer 1
10
2644.435915
20
27393.539974
11
2630.918402
21
27409.493838
0
LINE
8
Layer 1
10
2630.918402
20
27409.493838
11
2617.824848
21
27425.748127
0
LINE
8
Layer 1
10
2617.824848
20
27425.748127
11
2605.158915
21
27442.294063
0
LINE
8
Layer 1
10
2605.158915
20
27442.294063
11
2592.924263
21
27459.122870
0
LINE
8
Layer 1
10
2592.924263
20
27459.122870
11
2581.124552
21
27476.225768
0
LINE
8
Layer 1
10
2581.124552
20
27476.225768
11
2569.763441
21
27493.593981
0
LINE
8
Layer 1
10
2569.763441
20
27493.593981
11
2558.844592
21
27511.218728
0
LINE
8
Layer 1
10
2558.844592
20
27511.218728
11
2548.371663
21
27529.091234
0
LINE
8
Layer 1
10
2548.371663
20
27529.091234
11
2538.348316
21
27547.202719
0
LINE
8
Layer 1
10
2538.348316
20
27547.202719
11
2528.778210
21
27565.544406
0
LINE
8
Layer 1
10
2528.778210
20
27565.544406
11
2519.665006
21
27584.107516
0
LINE
8
Layer 1
10
2519.665006
20
27584.107516
11
2511.012363
21
27602.883272
0
LINE
8
Layer 1
10
2511.012363
20
27602.883272
11
2502.823942
21
27621.862896
0
LINE
8
Layer 1
10
2502.823942
20
27621.862896
11
2495.103402
21
27641.037609
0
LINE
8
Layer 1
10
2495.103402
20
27641.037609
11
2487.854404
21
27660.398634
0
LINE
8
Layer 1
10
2487.854404
20
27660.398634
11
2481.080609
21
27679.937192
0
LINE
8
Layer 1
10
2481.080609
20
27679.937192
11
2474.785675
21
27699.644506
0
LINE
8
Layer 1
10
2474.785675
20
27699.644506
11
2468.973264
21
27719.511797
0
LINE
8
Layer 1
10
2468.973264
20
27719.511797
11
2463.647035
21
27739.530288
0
LINE
8
Layer 1
10
2463.647035
20
27739.530288
11
2458.810649
21
27759.691200
0
LINE
8
Layer 1
10
2458.810649
20
27759.691200
11
2454.467765
21
27779.985756
0
LINE
8
Layer 1
10
2454.467765
20
27779.985756
11
2450.622044
21
27800.405177
0
LINE
8
Layer 1
10
2450.622044
20
27800.405177
11
2447.277145
21
27820.940685
0
LINE
8
Layer 1
10
2447.277145
20
27820.940685
11
2444.436730
21
27841.583502
0
LINE
8
Layer 1
10
2444.436730
20
27841.583502
11
2442.104457
21
27862.324851
0
LINE
8
Layer 1
10
2442.104457
20
27862.324851
11
2440.283988
21
27883.155954
0
LINE
8
Layer 1
10
2440.283988
20
27883.155954
11
2438.978982
21
27904.068031
0
LINE
8
Layer 1
10
2438.978982
20
27904.068031
11
2438.193099
21
27925.052306
0
LINE
8
Layer 1
10
2438.193099
20
27925.052306
11
2437.930000
21
27946.100000
0
LINE
8
Layer 1
10
114639.000000
20
27954.000000
11
114638.933225
21
27932.942672
0
LINE
8
Layer 1
10
114638.933225
20
27932.942672
11
114638.342698
21
27911.943951
0
LINE
8
Layer 1
10
114638.342698
20
27911.943951
11
114637.232001
21
27891.012659
0
LINE
8
Layer 1
10
114637.232001
20
27891.012659
11
114635.604718
21
27870.157616
0
LINE
8
Layer 1
10
114635.604718
20
27870.157616
11
114633.464433
21
27849.387645
0
LINE
8
Layer 1
10
114633.464433
20
27849.387645
11
114630.814728
21
27828.711566
0
LINE
8
Layer 1
10
114630.814728
20
27828.711566
11
114627.659187
21
27808.138200
0
LINE
8
Layer 1
10
114627.659187
20
27808.138200
11
114624.001393
21
27787.676369
0
LINE
8
Layer 1
10
114624.001393
20
27787.676369
11
114619.844931
21
27767.334894
0
LINE
8
Layer 1
10
114619.844931
20
27767.334894
11
114615.193383
21
27747.122596
0
LINE
8
Layer 1
10
114615.193383
20
27747.122596
11
114610.050332
21
27727.048297
0
LINE
8
Layer 1
10
114610.050332
20
27727.048297
11
114604.419362
21
27707.120816
0
LINE
8
Layer 1
10
114604.419362
20
27707.120816
11
114598.304056
21
27687.348977
0
LINE
8
Layer 1
10
114598.304056
20
27687.348977
11
114591.707998
21
27667.741599
0
LINE
8
Layer 1
10
114591.707998
20
27667.741599
11
114584.634772
21
27648.307504
0
LINE
8
Layer 1
10
114584.634772
20
27648.307504
11
114577.087959
21
27629.055514
0
LINE
8
Layer 1
10
114577.087959
20
27629.055514
11
114569.071145
21
27609.994449
0
LINE
8
Layer 1
10
114569.071145
20
27609.994449
11
114560.587911
21
27591.133131
0
LINE
8
Layer 1
10
114560.587911
20
27591.133131
11
114551.641842
21
27572.480381
0
LINE
8
Layer 1
10
114551.641842
20
27572.480381
11
114542.236521
21
27554.045020
0
LINE
8
Layer 1
10
114542.236521
20
27554.045020
11
114532.375531
21
27535.835869
0
LINE
8
Layer 1
10
114532.375531
20
27535.835869
11
114522.062456
21
27517.861750
0
LINE
8
Layer 1
10
114522.062456
20
27517.861750
11
114511.300879
21
27500.131483
0
LINE
8
Layer 1
10
114511.300879
20
27500.131483
11
114500.094384
21
27482.653891
0
LINE
8
Layer 1
10
114500.094384
20
27482.653891
11
114488.446553
21
27465.437793
0
LINE
8
Layer 1
10
114488.446553
20
27465.437793
11
114476.360970
21
27448.492012
0
LINE
8
Layer 1
10
114476.360970
20
27448.492012
11
114463.841219
21
27431.825369
0
LINE
8
Layer 1
10
114463.841219
20
27431.825369
11
114450.890882
21
27415.446684
0
LINE
8
Layer 1
10
114450.890882
20
27415.446684
11
114437.513544
21
27399.364779
0
LINE
8
Layer 1
10
114437.513544
20
27399.364779
11
114423.712788
21
27383.588475
0
LINE
8
Layer 1
10
114423.712788
20
27383.588475
11
114409.492196
21
27368.126593
0
LINE
8
Layer 1
10
114409.492196
20
27368.126593
11
114394.855353
21
27352.987956
0
LINE
8
Layer 1
10
114394.855353
20
27352.987956
11
114379.845214
21
27338.219365
0
LINE
8
Layer 1
10
114379.845214
20
27338.219365
11
114364.508206
21
27323.864185
0
LINE
8
Layer 1
10
114364.508206
20
27323.864185
11
114348.853119
21
27309.926077
0
LINE
8
Layer 1
10
114348.853119
20
27309.926077
11
114332.888741
21
27296.408699
0
LINE
8
Layer 1
10
114332.888741
20
27296.408699
11
114316.623863
21
27283.315714
0
LINE
8
Layer 1
10
114316.623863
20
27283.315714
11
114300.067274
21
27270.650780
0
LINE
8
Layer 1
10
114300.067274
20
27270.650780
11
114283.227764
21
27258.417559
0
LINE
8
Layer 1
10
114283.227764
20
27258.417559
11
114266.114122
21
27246.619710
0
LINE
8
Layer 1
10
114266.114122
20
27246.619710
11
114248.735138
21
27235.260894
0
LINE
8
Layer 1
10
114248.735138
20
27235.260894
11
114231.099601
21
27224.344772
0
LINE
8
Layer 1
10
114231.099601
20
27224.344772
11
114213.216300
21
27213.875003
0
LINE
8
Layer 1
10
114213.216300
20
27213.875003
11
114195.094027
21
27203.855249
0
LINE
8
Layer 1
10
114195.094027
20
27203.855249
11
114176.741569
21
27194.289168
0
LINE
8
Layer 1
10
114176.741569
20
27194.289168
11
114158.167716
21
27185.180422
0
LINE
8
Layer 1
10
114158.167716
20
27185.180422
11
114139.381259
21
27176.532672
0
LINE
8
Layer 1
10
114139.381259
20
27176.532672
11
114120.390986
21
27168.349576
0
LINE
8
Layer 1
10
114120.390986
20
27168.349576
11
114101.205688
21
27160.634796
0
LINE
8
Layer 1
10
114101.205688
20
27160.634796
11
114081.834153
21
27153.391993
0
LINE
8
Layer 1
10
114081.834153
20
27153.391993
11
114062.285171
21
27146.624825
0
LINE
8
Layer 1
10
114062.285171
20
27146.624825
11
114042.567532
21
27140.336954
0
LINE
8
Layer 1
10
114042.567532
20
27140.336954
11
114022.690026
21
27134.532040
0
LINE
8
Layer 1
10
114022.690026
20
27134.532040
11
114002.661441
21
27129.213744
0
LINE
8
Layer 1
10
114002.661441
20
27129.213744
11
113982.490568
21
27124.385725
0
LINE
8
Layer 1
10
113982.490568
20
27124.385725
11
113962.186196
21
27120.051643
0
LINE
8
Layer 1
10
113962.186196
20
27120.051643
11
113941.757114
21
27116.215161
0
LINE
8
Layer 1
10
113941.757114
20
27116.215161
11
113921.212113
21
27112.879936
0
LINE
8
Layer 1
10
113921.212113
20
27112.879936
11
113900.559981
21
27110.049631
0
LINE
8
Layer 1
10
113900.559981
20
27110.049631
11
113879.809508
21
27107.727905
0
LINE
8
Layer 1
10
113879.809508
20
27107.727905
11
113858.969484
21
27105.918419
0
LINE
8
Layer 1
10
113858.969484
20
27105.918419
11
113838.048698
21
27104.624832
0
LINE
8
Layer 1
10
113838.048698
20
27104.624832
11
113817.055940
21
27103.850806
0
LINE
8
Layer 1
10
113817.055940
20
27103.850806
11
113796.000000
21
27103.600000
0
LINE
8
Layer 1
10
113788.000000
20
64320.100000
11
113809.059081
21
64320.048192
0
LINE
8
Layer 1
10
113809.059081
20
64320.048192
11
113830.059913
21
64319.472506
0
LINE
8
Layer 1
10
113830.059913
20
64319.472506
11
113850.993670
21
64318.376519
0
LINE
8
Layer 1
10
113850.993670
20
64318.376519
11
113871.851526
21
64316.763809
0
LINE
8
Layer 1
10
113871.851526
20
64316.763809
11
113892.624656
21
64314.637955
0
LINE
8
Layer 1
10
113892.624656
20
64314.637955
11
113913.304234
21
64312.002535
0
LINE
8
Layer 1
10
113913.304234
20
64312.002535
11
113933.881433
21
64308.861127
0
LINE
8
Layer 1
10
113933.881433
20
64308.861127
11
113954.347429
21
64305.217309
0
LINE
8
Layer 1
10
113954.347429
20
64305.217309
11
113974.693395
21
64301.074660
0
LINE
8
Layer 1
10
113974.693395
20
64301.074660
11
113994.910506
21
64296.436757
0
LINE
8
Layer 1
10
113994.910506
20
64296.436757
11
114014.989936
21
64291.307180
0
LINE
8
Layer 1
10
114014.989936
20
64291.307180
11
114034.922859
21
64285.689505
0
LINE
8
Layer 1
10
114034.922859
20
64285.689505
11
114054.700450
21
64279.587313
0
LINE
8
Layer 1
10
114054.700450
20
64279.587313
11
114074.313883
21
64273.004179
0
LINE
8
Layer 1
10
114074.313883
20
64273.004179
11
114093.754332
21
64265.943684
0
LINE
8
Layer 1
10
114093.754332
20
64265.943684
11
114113.012971
21
64258.409405
0
LINE
8
Layer 1
10
114113.012971
20
64258.409405
11
114132.080974
21
64250.404920
0
LINE
8
Layer 1
10
114132.080974
20
64250.404920
11
114150.949517
21
64241.933807
0
LINE
8
Layer 1
10
114150.949517
20
64241.933807
11
114169.609773
21
64232.999646
0
LINE
8
Layer 1
10
114169.609773
20
64232.999646
11
114188.052916
21
64223.606013
0
LINE
8
Layer 1
10
114188.052916
20
64223.606013
11
114206.270120
21
64213.756488
0
LINE
8
Layer 1
10
114206.270120
20
64213.756488
11
114224.252561
21
64203.454647
0
LINE
8
Layer 1
10
114224.252561
20
64203.454647
11
114241.991411
21
64192.704071
0
LINE
8
Layer 1
10
114241.991411
20
64192.704071
11
114259.477846
21
64181.508336
0
LINE
8
Layer 1
10
114259.477846
20
64181.508336
11
114276.703040
21
64169.871022
0
LINE
8
Layer 1
10
114276.703040
20
64169.871022
11
114293.658167
21
64157.795705
0
LINE
8
Layer 1
10
114293.658167
20
64157.795705
11
114310.334400
21
64145.285966
0
LINE
8
Layer 1
10
114310.334400
20
64145.285966
11
114326.722916
21
64132.345380
0
LINE
8
Layer 1
10
114326.722916
20
64132.345380
11
114342.814886
21
64118.977528
0
LINE
8
Layer 1
10
114342.814886
20
64118.977528
11
114358.601487
21
64105.185987
0
LINE
8
Layer 1
10
114358.601487
20
64105.185987
11
114374.073892
21
64090.974336
0
LINE
8
Layer 1
10
114374.073892
20
64090.974336
11
114389.223276
21
64076.346151
0
LINE
8
Layer 1
10
114389.223276
20
64076.346151
11
114404.002794
21
64061.344371
0
LINE
8
Layer 1
10
114404.002794
20
64061.344371
11
114418.369044
21
64046.015404
0
LINE
8
Layer 1
10
114418.369044
20
64046.015404
11
114432.318358
21
64030.368040
0
LINE
8
Layer 1
10
114432.318358
20
64030.368040
11
114445.847070
21
64014.411068
0
LINE
8
Layer 1
10
114445.847070
20
64014.411068
11
114458.951513
21
63998.153278
0
LINE
8
Layer 1
10
114458.951513
20
63998.153278
11
114471.628021
21
63981.603458
0
LINE
8
Layer 1
10
114471.628021
20
63981.603458
11
114483.872926
21
63964.770400
0
LINE
8
Layer 1
10
114483.872926
20
63964.770400
11
114495.682563
21
63947.662891
0
LINE
8
Layer 1
10
114495.682563
20
63947.662891
11
114507.053265
21
63930.289721
0
LINE
8
Layer 1
10
114507.053265
20
63930.289721
11
114517.981365
21
63912.659680
0
LINE
8
Layer 1
10
114517.981365
20
63912.659680
11
114528.463196
21
63894.781557
0
LINE
8
Layer 1
10
114528.463196
20
63894.781557
11
114538.495092
21
63876.664141
0
LINE
8
Layer 1
10
114538.495092
20
63876.664141
11
114548.073386
21
63858.316221
0
LINE
8
Layer 1
10
114548.073386
20
63858.316221
11
114557.194412
21
63839.746588
0
LINE
8
Layer 1
10
114557.194412
20
63839.746588
11
114565.854502
21
63820.964030
0
LINE
8
Layer 1
10
114565.854502
20
63820.964030
11
114574.049991
21
63801.977337
0
LINE
8
Layer 1
10
114574.049991
20
63801.977337
11
114581.777211
21
63782.795299
0
LINE
8
Layer 1
10
114581.777211
20
63782.795299
11
114589.032496
21
63763.426704
0
LINE
8
Layer 1
10
114589.032496
20
63763.426704
11
114595.812180
21
63743.880341
0
LINE
8
Layer 1
10
114595.812180
20
63743.880341
11
114602.112595
21
63724.165002
0
LINE
8
Layer 1
10
114602.112595
20
63724.165002
11
114607.930076
21
63704.289473
0
LINE
8
Layer 1
10
114607.930076
20
63704.289473
11
114613.260955
21
63684.262546
0
LINE
8
Layer 1
10
114613.260955
20
63684.262546
11
114618.101566
21
63664.093010
0
LINE
8
Layer 1
10
114618.101566
20
63664.093010
11
114622.448242
21
63643.789653
0
LINE
8
Layer 1
10
114622.448242
20
63643.789653
11
114626.297316
21
63623.361266
0
LINE
8
Layer 1
10
114626.297316
20
63623.361266
11
114629.645123
21
63602.816637
0
LINE
8
Layer 1
10
114629.645123
20
63602.816637
11
114632.487994
21
63582.164556
0
LINE
8
Layer 1
10
114632.487994
20
63582.164556
11
114634.822265
21
63561.413813
0
LINE
8
Layer 1
10
114634.822265
20
63561.413813
11
114636.644267
21
63540.573196
0
LINE
8
Layer 1
10
114636.644267
20
63540.573196
11
114637.950335
21
63519.651495
0
LINE
8
Layer 1
10
114637.950335
20
63519.651495
11
114638.736801
21
63498.657500
0
LINE
8
Layer 1
10
114638.736801
20
63498.657500
11
114639.000000
21
63477.600000
0
LINE
8
Layer 1
10
114638.000000
20
48379.800000
11
114638.000000
21
63477.800000
0
LINE
8
Layer 1
10
2433.230000
20
63469.800000
11
2437.230000
21
48399.800000
0
LINE
8
Layer 1
10
2437.230000
20
27946.800000
11
2437.230000
21
48399.800000
0
LINE
8
Layer 1
10
108348.000000
20
27103.800000
11
5929.230000
21
27103.800000
0
LINE
8
Layer 1
10
114638.000000
20
48379.800000
11
114638.000000
21
27954.800000
0
LINE
8
Layer 1
10
3659.230000
20
64318.800000
11
50424.230000
21
64318.800000
0
LINE
8
Layer 1
10
2434.030000
20
63469.700000
11
2434.096652
21
63490.749233
0
LINE
8
Layer 1
10
2434.096652
20
63490.749233
11
2434.686656
21
63511.739928
0
LINE
8
Layer 1
10
2434.686656
20
63511.739928
11
2435.796435
21
63532.663274
0
LINE
8
Layer 1
10
2435.796435
20
63532.663274
11
2437.422411
21
63553.510460
0
LINE
8
Layer 1
10
2437.422411
20
63553.510460
11
2439.561005
21
63574.272672
0
LINE
8
Layer 1
10
2439.561005
20
63574.272672
11
2442.208640
21
63594.941100
0
LINE
8
Layer 1
10
2442.208640
20
63594.941100
11
2445.361737
21
63615.506932
0
LINE
8
Layer 1
10
2445.361737
20
63615.506932
11
2449.016718
21
63635.961355
0
LINE
8
Layer 1
10
2449.016718
20
63635.961355
11
2453.170006
21
63656.295558
0
LINE
8
Layer 1
10
2453.170006
20
63656.295558
11
2457.818022
21
63676.500730
0
LINE
8
Layer 1
10
2457.818022
20
63676.500730
11
2462.957188
21
63696.568058
0
LINE
8
Layer 1
10
2462.957188
20
63696.568058
11
2468.583927
21
63716.488730
0
LINE
8
Layer 1
10
2468.583927
20
63716.488730
11
2474.694660
21
63736.253936
0
LINE
8
Layer 1
10
2474.694660
20
63736.253936
11
2481.285810
21
63755.854862
0
LINE
8
Layer 1
10
2481.285810
20
63755.854862
11
2488.353797
21
63775.282698
0
LINE
8
Layer 1
10
2488.353797
20
63775.282698
11
2495.895045
21
63794.528631
0
LINE
8
Layer 1
10
2495.895045
20
63794.528631
11
2503.905975
21
63813.583850
0
LINE
8
Layer 1
10
2503.905975
20
63813.583850
11
2512.383009
21
63832.439542
0
LINE
8
Layer 1
10
2512.383009
20
63832.439542
11
2521.322569
21
63851.086897
0
LINE
8
Layer 1
10
2521.322569
20
63851.086897
11
2530.721077
21
63869.517101
0
LINE
8
Layer 1
10
2530.721077
20
63869.517101
11
2540.574955
21
63887.721345
0
LINE
8
Layer 1
10
2540.574955
20
63887.721345
11
2550.880625
21
63905.690815
0
LINE
8
Layer 1
10
2550.880625
20
63905.690815
11
2561.634509
21
63923.416699
0
LINE
8
Layer 1
10
2561.634509
20
63923.416699
11
2572.833029
21
63940.890187
0
LINE
8
Layer 1
10
2572.833029
20
63940.890187
11
2584.472607
21
63958.102466
0
LINE
8
Layer 1
10
2584.472607
20
63958.102466
11
2596.549665
21
63975.044724
0
LINE
8
Layer 1
10
2596.549665
20
63975.044724
11
2609.060625
21
63991.708150
0
LINE
8
Layer 1
10
2609.060625
20
63991.708150
11
2622.001908
21
64008.083932
0
LINE
8
Layer 1
10
2622.001908
20
64008.083932
11
2635.369937
21
64024.163258
0
LINE
8
Layer 1
10
2635.369937
20
64024.163258
11
2649.161134
21
64039.937316
0
LINE
8
Layer 1
10
2649.161134
20
64039.937316
11
2663.371921
21
64055.397295
0
LINE
8
Layer 1
10
2663.371921
20
64055.397295
11
2677.998720
21
64070.534382
0
LINE
8
Layer 1
10
2677.998720
20
64070.534382
11
2692.998637
21
64085.301816
0
LINE
8
Layer 1
10
2692.998637
20
64085.301816
11
2708.325315
21
64099.656271
0
LINE
8
Layer 1
10
2708.325315
20
64099.656271
11
2723.969974
21
64113.594085
0
LINE
8
Layer 1
10
2723.969974
20
64113.594085
11
2739.923838
21
64127.111598
0
LINE
8
Layer 1
10
2739.923838
20
64127.111598
11
2756.178127
21
64140.205152
0
LINE
8
Layer 1
10
2756.178127
20
64140.205152
11
2772.724063
21
64152.871085
0
LINE
8
Layer 1
10
2772.724063
20
64152.871085
11
2789.552870
21
64165.105737
0
LINE
8
Layer 1
10
2789.552870
20
64165.105737
11
2806.655768
21
64176.905448
0
LINE
8
Layer 1
10
2806.655768
20
64176.905448
11
2824.023981
21
64188.266559
0
LINE
8
Layer 1
10
2824.023981
20
64188.266559
11
2841.648728
21
64199.185408
0
LINE
8
Layer 1
10
2841.648728
20
64199.185408
11
2859.521234
21
64209.658337
0
LINE
8
Layer 1
10
2859.521234
20
64209.658337
11
2877.632719
21
64219.681684
0
LINE
8
Layer 1
10
2877.632719
20
64219.681684
11
2895.974406
21
64229.251790
0
LINE
8
Layer 1
10
2895.974406
20
64229.251790
11
2914.537516
21
64238.364994
0
LINE
8
Layer 1
10
2914.537516
20
64238.364994
11
2933.313272
21
64247.017637
0
LINE
8
Layer 1
10
2933.313272
20
64247.017637
11
2952.292896
21
64255.206058
0
LINE
8
Layer 1
10
2952.292896
20
64255.206058
11
2971.467609
21
64262.926598
0
LINE
8
Layer 1
10
2971.467609
20
64262.926598
11
2990.828634
21
64270.175596
0
LINE
8
Layer 1
10
2990.828634
20
64270.175596
11
3010.367192
21
64276.949391
0
LINE
8
Layer 1
10
3010.367192
20
64276.949391
11
3030.074506
21
64283.244325
0
LINE
8
Layer 1
10
3030.074506
20
64283.244325
11
3049.941797
21
64289.056736
0
LINE
8
Layer 1
10
3049.941797
20
64289.056736
11
3069.960288
21
64294.382965
0
LINE
8
Layer 1
10
3069.960288
20
64294.382965
11
3090.121200
21
64299.219351
0
LINE
8
Layer 1
10
3090.121200
20
64299.219351
11
3110.415756
21
64303.562235
0
LINE
8
Layer 1
10
3110.415756
20
64303.562235
11
3130.835177
21
64307.407956
0
LINE
8
Layer 1
10
3130.835177
20
64307.407956
11
3151.370685
21
64310.752855
0
LINE
8
Layer 1
10
3151.370685
20
64310.752855
11
3172.013502
21
64313.593270
0
LINE
8
Layer 1
10
3172.013502
20
64313.593270
11
3192.754851
21
64315.925543
0
LINE
8
Layer 1
10
3192.754851
20
64315.925543
11
3213.585954
21
64317.746012
0
LINE
8
Layer 1
10
3213.585954
20
64317.746012
11
3234.498031
21
64319.051018
0
LINE
8
Layer 1
10
3234.498031
20
64319.051018
11
3255.482306
21
64319.836901
0
LINE
8
Layer 1
10
3255.482306
20
64319.836901
11
3276.530000
21
64320.100000
0
LINE
8
Layer 1
10
113374.000000
20
64320.800000
11
113788.000000
21
64320.800000
0
LINE
8
Layer 1
10
3276.230000
20
64320.800000
11
3659.230000
21
64318.800000
0
LINE
8
Layer 1
10
50424.200000
20
64318.800000
11
75162.200000
21
64320.800000
0
LINE
8
Layer 1
10
75162.200000
20
64320.800000
11
113374.000000
21
64320.800000
0
LINE
8
Layer 1
10
3283.230000
20
66928.800000
11
3659.230000
21
66928.800000
0
LINE
8
Layer 1
10
3659.230000
20
66928.800000
11
50424.230000
21
66928.800000
0
LINE
8
Layer 1
10
75164.200000
20
66928.800000
11
50424.200000
21
66928.800000
0
LINE
8
Layer 1
10
113791.000000
20
66928.800000
11
113374.000000
21
66928.800000
0
LINE
8
Layer 1
10
113374.000000
20
66928.800000
11
108343.000000
21
66928.800000
0
LINE
8
Layer 1
10
76003.200000
20
104145.000000
11
113369.000000
21
104145.000000
0
LINE
8
Layer 1
10
50416.200000
20
104145.000000
11
75157.200000
21
104145.000000
0
LINE
8
Layer 1
10
3271.230000
20
104145.000000
11
3653.230000
21
104145.000000
0
LINE
8
Layer 1
10
113369.000000
20
104145.000000
11
113783.000000
21
104145.000000
0
LINE
8
Layer 1
10
7200.230000
20
92350.800000
11
7200.230000
21
97856.800000
0
LINE
8
Layer 1
10
12708.200000
20
97856.800000
11
12708.200000
21
92350.800000
0
LINE
8
Layer 1
10
7200.230000
20
97856.800000
11
12708.230000
21
97856.800000
0
LINE
8
Layer 1
10
12708.200000
20
92350.800000
11
7200.200000
21
92350.800000
0
LINE
8
Layer 1
10
22082.200000
20
97856.800000
11
22082.200000
21
92350.800000
0
LINE
8
Layer 1
10
16574.200000
20
97856.800000
11
22082.200000
21
97856.800000
0
LINE
8
Layer 1
10
22082.200000
20
92350.800000
11
16574.200000
21
92350.800000
0
LINE
8
Layer 1
10
16574.200000
20
92350.800000
11
16574.200000
21
97856.800000
0
LINE
8
Layer 1
10
16011.200000
20
84850.800000
11
16011.200000
21
90357.800000
0
LINE
8
Layer 1
10
16011.200000
20
90357.800000
11
21519.200000
21
90357.800000
0
LINE
8
Layer 1
10
21519.200000
20
84850.800000
11
16011.200000
21
84850.800000
0
LINE
8
Layer 1
10
21519.200000
20
90357.800000
11
21519.200000
21
84850.800000
0
LINE
8
Layer 1
10
11991.200000
20
84850.800000
11
6483.200000
21
84850.800000
0
LINE
8
Layer 1
10
11991.200000
20
90357.800000
11
11991.200000
21
84850.800000
0
LINE
8
Layer 1
10
6483.230000
20
84850.800000
11
6483.230000
21
90357.800000
0
LINE
8
Layer 1
10
6483.230000
20
90357.800000
11
11991.230000
21
90357.800000
0
LINE
8
Layer 1
10
5554.230000
20
82857.800000
11
11062.230000
21
82857.800000
0
LINE
8
Layer 1
10
11062.200000
20
82857.800000
11
11062.200000
21
77350.800000
0
LINE
8
Layer 1
10
5554.230000
20
77350.800000
11
5554.230000
21
82857.800000
0
LINE
8
Layer 1
10
11062.200000
20
77350.800000
11
5554.200000
21
77350.800000
0
LINE
8
Layer 1
10
14129.200000
20
77346.800000
11
14129.200000
21
82853.800000
0
LINE
8
Layer 1
10
14129.200000
20
82853.800000
11
19637.200000
21
82853.800000
0
LINE
8
Layer 1
10
19637.200000
20
77346.800000
11
14129.200000
21
77346.800000
0
LINE
8
Layer 1
10
19637.200000
20
82853.800000
11
19637.200000
21
77346.800000
0
LINE
8
Layer 1
10
12857.200000
20
69850.800000
11
12857.200000
21
75357.800000
0
LINE
8
Layer 1
10
18365.200000
20
69850.800000
11
12857.200000
21
69850.800000
0
LINE
8
Layer 1
10
18365.200000
20
75357.800000
11
18365.200000
21
69850.800000
0
LINE
8
Layer 1
10
12857.200000
20
75357.800000
11
18365.200000
21
75357.800000
0
LINE
8
Layer 1
10
5212.230000
20
75361.800000
11
10720.230000
21
75361.800000
0
LINE
8
Layer 1
10
10720.200000
20
69853.800000
11
5212.200000
21
69853.800000
0
LINE
8
Layer 1
10
10720.200000
20
75361.800000
11
10720.200000
21
69853.800000
0
LINE
8
Layer 1
10
5212.230000
20
69853.800000
11
5212.230000
21
75361.800000
0
LINE
8
Layer 1
10
103668.000000
20
94258.800000
11
103668.000000
21
99766.800000
0
LINE
8
Layer 1
10
103668.000000
20
99766.800000
11
109176.000000
21
99766.800000
0
LINE
8
Layer 1
10
109176.000000
20
99766.800000
11
109176.000000
21
94258.800000
0
LINE
8
Layer 1
10
109176.000000
20
94258.800000
11
103668.000000
21
94258.800000
0
LINE
8
Layer 1
10
96172.200000
20
99762.800000
11
101680.200000
21
99762.800000
0
LINE
8
Layer 1
10
96172.200000
20
94254.800000
11
96172.200000
21
99762.800000
0
LINE
8
Layer 1
10
101680.000000
20
94254.800000
11
96172.200000
21
94254.800000
0
LINE
8
Layer 1
10
101680.000000
20
99762.800000
11
101680.000000
21
94254.800000
0
LINE
8
Layer 1
10
88672.200000
20
99762.800000
11
94180.200000
21
99762.800000
0
LINE
8
Layer 1
10
94180.200000
20
94254.800000
11
88672.200000
21
94254.800000
0
LINE
8
Layer 1
10
94180.200000
20
99762.800000
11
94180.200000
21
94254.800000
0
LINE
8
Layer 1
10
88672.200000
20
94254.800000
11
88672.200000
21
99762.800000
0
LINE
8
Layer 1
10
93432.200000
20
85263.800000
11
87924.200000
21
85263.800000
0
LINE
8
Layer 1
10
93432.200000
20
90771.800000
11
93432.200000
21
85263.800000
0
LINE
8
Layer 1
10
87924.200000
20
85263.800000
11
87924.200000
21
90771.800000
0
LINE
8
Layer 1
10
87924.200000
20
90771.800000
11
93432.200000
21
90771.800000
0
LINE
8
Layer 1
10
96172.200000
20
86763.800000
11
96172.200000
21
92271.800000
0
LINE
8
Layer 1
10
96172.200000
20
92271.800000
11
101680.200000
21
92271.800000
0
LINE
8
Layer 1
10
101680.000000
20
86763.800000
11
96172.200000
21
86763.800000
0
LINE
8
Layer 1
10
101680.000000
20
92271.800000
11
101680.000000
21
86763.800000
0
LINE
8
Layer 1
10
104979.000000
20
85259.800000
11
104979.000000
21
90767.800000
0
LINE
8
Layer 1
10
104979.000000
20
90767.800000
11
110487.000000
21
90767.800000
0
LINE
8
Layer 1
10
110487.000000
20
85259.800000
11
104979.000000
21
85259.800000
0
LINE
8
Layer 1
10
110487.000000
20
90767.800000
11
110487.000000
21
85259.800000
0
LINE
8
Layer 1
10
108838.000000
20
82889.800000
11
108838.000000
21
77381.800000
0
LINE
8
Layer 1
10
108838.000000
20
77381.800000
11
103330.000000
21
77381.800000
0
LINE
8
Layer 1
10
103330.000000
20
82889.800000
11
108838.000000
21
82889.800000
0
LINE
8
Layer 1
10
103330.000000
20
77381.800000
11
103330.000000
21
82889.800000
0
LINE
8
Layer 1
10
93023.200000
20
82897.800000
11
98531.200000
21
82897.800000
0
LINE
8
Layer 1
10
98531.200000
20
77389.800000
11
93023.200000
21
77389.800000
0
LINE
8
Layer 1
10
98531.200000
20
82897.800000
11
98531.200000
21
77389.800000
0
LINE
8
Layer 1
10
93023.200000
20
77389.800000
11
93023.200000
21
82897.800000
0
LINE
8
Layer 1
10
90393.200000
20
75385.800000
11
95901.200000
21
75385.800000
0
LINE
8
Layer 1
10
95901.200000
20
69877.800000
11
90393.200000
21
69877.800000
0
LINE
8
Layer 1
10
95901.200000
20
75385.800000
11
95901.200000
21
69877.800000
0
LINE
8
Layer 1
10
90393.200000
20
69877.800000
11
90393.200000
21
75385.800000
0
LINE
8
Layer 1
10
65054.200000
20
71960.800000
11
59562.200000
21
72440.800000
0
LINE
8
Layer 1
10
65535.200000
20
77448.800000
11
65054.200000
21
71960.800000
0
LINE
8
Layer 1
10
60050.200000
20
77924.800000
11
65535.200000
21
77448.800000
0
LINE
8
Layer 1
10
59562.200000
20
72440.800000
11
60050.200000
21
77924.800000
0
LINE
8
Layer 1
10
72999.200000
20
76787.800000
11
72519.200000
21
71298.800000
0
LINE
8
Layer 1
10
67515.200000
20
77263.800000
11
72999.200000
21
76787.800000
0
LINE
8
Layer 1
10
67027.200000
20
71779.800000
11
67515.200000
21
77263.800000
0
LINE
8
Layer 1
10
72519.200000
20
71298.800000
11
67027.200000
21
71779.800000
0
LINE
8
Layer 1
10
80472.200000
20
76145.800000
11
79991.200000
21
70657.800000
0
LINE
8
Layer 1
10
74987.200000
20
76621.800000
11
80472.200000
21
76145.800000
0
LINE
8
Layer 1
10
79991.200000
20
70657.800000
11
74499.200000
21
71137.800000
0
LINE
8
Layer 1
10
74499.200000
20
71137.800000
11
74987.200000
21
76621.800000
0
LINE
8
Layer 1
10
82464.200000
20
75968.800000
11
87948.200000
21
75491.800000
0
LINE
8
Layer 1
10
87468.200000
20
70003.800000
11
81976.200000
21
70483.800000
0
LINE
8
Layer 1
10
81976.200000
20
70483.800000
11
82464.200000
21
75968.800000
0
LINE
8
Layer 1
10
87948.200000
20
75491.800000
11
87468.200000
21
70003.800000
0
LINE
8
Layer 1
10
89987.200000
20
77306.800000
11
84495.200000
21
77787.800000
0
LINE
8
Layer 1
10
84495.200000
20
77787.800000
11
84983.200000
21
83271.800000
0
LINE
8
Layer 1
10
84983.200000
20
83271.800000
11
90468.200000
21
82794.800000
0
LINE
8
Layer 1
10
90468.200000
20
82794.800000
11
89987.200000
21
77306.800000
0
LINE
8
Layer 1
10
77007.200000
20
78440.800000
11
77495.200000
21
83924.800000
0
LINE
8
Layer 1
10
77495.200000
20
83924.800000
11
82979.200000
21
83448.800000
0
LINE
8
Layer 1
10
82499.200000
20
77960.800000
11
77007.200000
21
78440.800000
0
LINE
8
Layer 1
10
82979.200000
20
83448.800000
11
82499.200000
21
77960.800000
0
LINE
8
Layer 1
10
75515.200000
20
84101.800000
11
75035.200000
21
78613.800000
0
LINE
8
Layer 1
10
70031.200000
20
84578.800000
11
75515.200000
21
84101.800000
0
LINE
8
Layer 1
10
75035.200000
20
78613.800000
11
69542.200000
21
79094.800000
0
LINE
8
Layer 1
10
69542.200000
20
79094.800000
11
70031.200000
21
84578.800000
0
LINE
8
Layer 1
10
67578.200000
20
79259.800000
11
62086.200000
21
79739.800000
0
LINE
8
Layer 1
10
62574.200000
20
85224.800000
11
68058.200000
21
84747.800000
0
LINE
8
Layer 1
10
68058.200000
20
84747.800000
11
67578.200000
21
79259.800000
0
LINE
8
Layer 1
10
62086.200000
20
79739.800000
11
62574.200000
21
85224.800000
0
LINE
8
Layer 1
10
80039.200000
20
91231.800000
11
85523.200000
21
90755.800000
0
LINE
8
Layer 1
10
85523.200000
20
90755.800000
11
85042.200000
21
85267.800000
0
LINE
8
Layer 1
10
79550.200000
20
85747.800000
11
80039.200000
21
91231.800000
0
LINE
8
Layer 1
10
85042.200000
20
85267.800000
11
79550.200000
21
85747.800000
0
LINE
8
Layer 1
10
72558.200000
20
91889.800000
11
78042.200000
21
91413.800000
0
LINE
8
Layer 1
10
78042.200000
20
91413.800000
11
77562.200000
21
85924.800000
0
LINE
8
Layer 1
10
77562.200000
20
85924.800000
11
72070.200000
21
86405.800000
0
LINE
8
Layer 1
10
72070.200000
20
86405.800000
11
72558.200000
21
91889.800000
0
LINE
8
Layer 1
10
70090.200000
20
86566.800000
11
64598.200000
21
87046.800000
0
LINE
8
Layer 1
10
70570.200000
20
92054.800000
11
70090.200000
21
86566.800000
0
LINE
8
Layer 1
10
65086.200000
20
92531.800000
11
70570.200000
21
92054.800000
0
LINE
8
Layer 1
10
64598.200000
20
87046.800000
11
65086.200000
21
92531.800000
0
LINE
8
Layer 1
10
66999.200000
20
94380.800000
11
61507.200000
21
94860.800000
0
LINE
8
Layer 1
10
67479.200000
20
99868.800000
11
66999.200000
21
94380.800000
0
LINE
8
Layer 1
10
61995.200000
20
100346.000000
11
67479.200000
21
99868.997000
0
LINE
8
Layer 1
10
61507.200000
20
94860.800000
11
61995.200000
21
100345.800000
0
LINE
8
Layer 1
10
22487.200000
20
77424.800000
11
27976.200000
21
77909.800000
0
LINE
8
Layer 1
10
27495.200000
20
83397.800000
11
22007.200000
21
82913.800000
0
LINE
8
Layer 1
10
27976.200000
20
77909.800000
11
27495.200000
21
83397.800000
0
LINE
8
Layer 1
10
22007.200000
20
82913.800000
11
22487.200000
21
77424.800000
0
LINE
8
Layer 1
10
21275.200000
20
69794.800000
11
26763.200000
21
70279.800000
0
LINE
8
Layer 1
10
26283.200000
20
75767.800000
11
20794.200000
21
75283.800000
0
LINE
8
Layer 1
10
20794.200000
20
75283.800000
11
21275.200000
21
69794.800000
0
LINE
8
Layer 1
10
26763.200000
20
70279.800000
11
26283.200000
21
75767.800000
0
LINE
8
Layer 1
10
28743.200000
20
70436.800000
11
34231.200000
21
70920.800000
0
LINE
8
Layer 1
10
33751.200000
20
76409.800000
11
28263.200000
21
75924.800000
0
LINE
8
Layer 1
10
34231.200000
20
70920.800000
11
33751.200000
21
76409.800000
0
LINE
8
Layer 1
10
28263.200000
20
75924.800000
11
28743.200000
21
70436.800000
0
LINE
8
Layer 1
10
29948.200000
20
78062.800000
11
35436.200000
21
78546.800000
0
LINE
8
Layer 1
10
34956.200000
20
84035.800000
11
29468.200000
21
83550.800000
0
LINE
8
Layer 1
10
35436.200000
20
78546.800000
11
34956.200000
21
84035.800000
0
LINE
8
Layer 1
10
29468.200000
20
83550.800000
11
29948.200000
21
78062.800000
0
LINE
8
Layer 1
10
29440.200000
20
91094.800000
11
23952.200000
21
90609.800000
0
LINE
8
Layer 1
10
23952.200000
20
90609.800000
11
24432.200000
21
85121.800000
0
LINE
8
Layer 1
10
24432.200000
20
85121.800000
11
29920.200000
21
85605.800000
0
LINE
8
Layer 1
10
29920.200000
20
85605.800000
11
29440.200000
21
91094.800000
0
LINE
8
Layer 1
10
31436.200000
20
91259.800000
11
31916.200000
21
85771.800000
0
LINE
8
Layer 1
10
37405.200000
20
86255.800000
11
36924.200000
21
91743.800000
0
LINE
8
Layer 1
10
31916.200000
20
85771.800000
11
37405.200000
21
86255.800000
0
LINE
8
Layer 1
10
36924.200000
20
91743.800000
11
31436.200000
21
91259.800000
0
LINE
8
Layer 1
10
42916.200000
20
79208.800000
11
42436.200000
21
84696.800000
0
LINE
8
Layer 1
10
42436.200000
20
84696.800000
11
36948.200000
21
84212.800000
0
LINE
8
Layer 1
10
37428.200000
20
78724.800000
11
42916.200000
21
79208.800000
0
LINE
8
Layer 1
10
36948.200000
20
84212.800000
11
37428.200000
21
78724.800000
0
LINE
8
Layer 1
10
41696.200000
20
71570.800000
11
41216.200000
21
77058.800000
0
LINE
8
Layer 1
10
36208.200000
20
71086.800000
11
41696.200000
21
71570.800000
0
LINE
8
Layer 1
10
35728.200000
20
76574.800000
11
36208.200000
21
71086.800000
0
LINE
8
Layer 1
10
41216.200000
20
77058.800000
11
35728.200000
21
76574.800000
0
LINE
8
Layer 1
10
43208.200000
20
77224.800000
11
43688.200000
21
71735.800000
0
LINE
8
Layer 1
10
49176.200000
20
72220.800000
11
48696.200000
21
77708.800000
0
LINE
8
Layer 1
10
43688.200000
20
71735.800000
11
49176.200000
21
72220.800000
0
LINE
8
Layer 1
10
48696.200000
20
77708.800000
11
43208.200000
21
77224.800000
0
LINE
8
Layer 1
10
49901.200000
20
85342.800000
11
44413.200000
21
84857.800000
0
LINE
8
Layer 1
10
44413.200000
20
84857.800000
11
44893.200000
21
79369.800000
0
LINE
8
Layer 1
10
50381.200000
20
79853.800000
11
49901.200000
21
85342.800000
0
LINE
8
Layer 1
10
44893.200000
20
79369.800000
11
50381.200000
21
79853.800000
0
LINE
8
Layer 1
10
38909.200000
20
91909.800000
11
39389.200000
21
86420.800000
0
LINE
8
Layer 1
10
39389.200000
20
86420.800000
11
44877.200000
21
86905.800000
0
LINE
8
Layer 1
10
44397.200000
20
92393.800000
11
38909.200000
21
91909.800000
0
LINE
8
Layer 1
10
44877.200000
20
86905.800000
11
44397.200000
21
92393.800000
0
LINE
8
Layer 1
10
52342.200000
20
87562.800000
11
51861.200000
21
93050.800000
0
LINE
8
Layer 1
10
51861.200000
20
93050.800000
11
46373.200000
21
92566.800000
0
LINE
8
Layer 1
10
46854.200000
20
87078.800000
11
52342.200000
21
87562.800000
0
LINE
8
Layer 1
10
46373.200000
20
92566.800000
11
46854.200000
21
87078.800000
0
LINE
8
Layer 1
10
39184.200000
20
99467.800000
11
39665.200000
21
93978.800000
0
LINE
8
Layer 1
10
2429.030000
20
103295.000000
11
2429.096405
21
103316.049397
0
LINE
8
Layer 1
10
2429.096405
20
103316.049397
11
2429.686171
21
103337.040261
0
LINE
8
Layer 1
10
2429.686171
20
103337.040261
11
2430.795720
21
103357.963781
0
LINE
8
Layer 1
10
2430.795720
20
103357.963781
11
2432.421474
21
103378.811144
0
LINE
8
Layer 1
10
2432.421474
20
103378.811144
11
2434.559856
21
103399.573539
0
LINE
8
Layer 1
10
2434.559856
20
103399.573539
11
2437.207287
21
103420.242152
0
LINE
8
Layer 1
10
2437.207287
20
103420.242152
11
2440.360190
21
103440.808173
0
LINE
8
Layer 1
10
2440.360190
20
103440.808173
11
2444.014985
21
103461.262790
0
LINE
8
Layer 1
10
2444.014985
20
103461.262790
11
2448.168096
21
103481.597189
0
LINE
8
Layer 1
10
2448.168096
20
103481.597189
11
2452.815943
21
103501.802559
0
LINE
8
Layer 1
10
2452.815943
20
103501.802559
11
2457.954950
21
103521.870089
0
LINE
8
Layer 1
10
2457.954950
20
103521.870089
11
2463.581538
21
103541.790966
0
LINE
8
Layer 1
10
2463.581538
20
103541.790966
11
2469.692129
21
103561.556378
0
LINE
8
Layer 1
10
2469.692129
20
103561.556378
11
2476.283144
21
103581.157512
0
LINE
8
Layer 1
10
2476.283144
20
103581.157512
11
2483.351007
21
103600.585558
0
LINE
8
Layer 1
10
2483.351007
20
103600.585558
11
2490.892139
21
103619.831703
0
LINE
8
Layer 1
10
2490.892139
20
103619.831703
11
2498.902961
21
103638.887135
0
LINE
8
Layer 1
10
2498.902961
20
103638.887135
11
2507.379896
21
103657.743042
0
LINE
8
Layer 1
10
2507.379896
20
103657.743042
11
2516.319367
21
103676.390611
0
LINE
8
Layer 1
10
2516.319367
20
103676.390611
11
2525.717793
21
103694.821032
0
LINE
8
Layer 1
10
2525.717793
20
103694.821032
11
2535.571599
21
103713.025491
0
LINE
8
Layer 1
10
2535.571599
20
103713.025491
11
2545.877205
21
103730.995177
0
LINE
8
Layer 1
10
2545.877205
20
103730.995177
11
2556.631034
21
103748.721277
0
LINE
8
Layer 1
10
2556.631034
20
103748.721277
11
2567.829508
21
103766.194981
0
LINE
8
Layer 1
10
2567.829508
20
103766.194981
11
2579.469048
21
103783.407475
0
LINE
8
Layer 1
10
2579.469048
20
103783.407475
11
2591.546077
21
103800.349948
0
LINE
8
Layer 1
10
2591.546077
20
103800.349948
11
2604.057016
21
103817.013587
0
LINE
8
Layer 1
10
2604.057016
20
103817.013587
11
2616.998288
21
103833.389581
0
LINE
8
Layer 1
10
2616.998288
20
103833.389581
11
2630.366315
21
103849.469118
0
LINE
8
Layer 1
10
2630.366315
20
103849.469118
11
2644.157517
21
103865.243385
0
LINE
8
Layer 1
10
2644.157517
20
103865.243385
11
2658.368319
21
103880.703571
0
LINE
8
Layer 1
10
2658.368319
20
103880.703571
11
2672.995140
21
103895.840863
0
LINE
8
Layer 1
10
2672.995140
20
103895.840863
11
2687.995089
21
103910.608499
0
LINE
8
Layer 1
10
2687.995089
20
103910.608499
11
2703.321805
21
103924.963150
0
LINE
8
Layer 1
10
2703.321805
20
103924.963150
11
2718.966509
21
103938.901155
0
LINE
8
Layer 1
10
2718.966509
20
103938.901155
11
2734.920424
21
103952.418856
0
LINE
8
Layer 1
10
2734.920424
20
103952.418856
11
2751.174771
21
103965.512590
0
LINE
8
Layer 1
10
2751.174771
20
103965.512590
11
2767.720773
21
103978.178699
0
LINE
8
Layer 1
10
2767.720773
20
103978.178699
11
2784.549650
21
103990.413522
0
LINE
8
Layer 1
10
2784.549650
20
103990.413522
11
2801.652626
21
104002.213399
0
LINE
8
Layer 1
10
2801.652626
20
104002.213399
11
2819.020920
21
104013.574670
0
LINE
8
Layer 1
10
2819.020920
20
104013.574670
11
2836.645756
21
104024.493673
0
LINE
8
Layer 1
10
2836.645756
20
104024.493673
11
2854.518355
21
104034.966750
0
LINE
8
Layer 1
10
2854.518355
20
104034.966750
11
2872.629939
21
104044.990240
0
LINE
8
Layer 1
10
2872.629939
20
104044.990240
11
2890.971730
21
104054.560482
0
LINE
8
Layer 1
10
2890.971730
20
104054.560482
11
2909.534949
21
104063.673817
0
LINE
8
Layer 1
10
2909.534949
20
104063.673817
11
2928.310818
21
104072.326584
0
LINE
8
Layer 1
10
2928.310818
20
104072.326584
11
2947.290560
21
104080.515123
0
LINE
8
Layer 1
10
2947.290560
20
104080.515123
11
2966.465395
21
104088.235774
0
LINE
8
Layer 1
10
2966.465395
20
104088.235774
11
2985.826546
21
104095.484876
0
LINE
8
Layer 1
10
2985.826546
20
104095.484876
11
3005.365234
21
104102.258770
0
LINE
8
Layer 1
10
3005.365234
20
104102.258770
11
3025.072682
21
104108.553795
0
LINE
8
Layer 1
10
3025.072682
20
104108.553795
11
3044.940110
21
104114.366291
0
LINE
8
Layer 1
10
3044.940110
20
104114.366291
11
3064.958741
21
104119.692597
0
LINE
8
Layer 1
10
3064.958741
20
104119.692597
11
3085.119797
21
104124.529054
0
LINE
8
Layer 1
10
3085.119797
20
104124.529054
11
3105.414499
21
104128.872001
0
LINE
8
Layer 1
10
3105.414499
20
104128.872001
11
3125.834070
21
104132.717778
0
LINE
8
Layer 1
10
3125.834070
20
104132.717778
11
3146.369730
21
104136.062725
0
LINE
8
Layer 1
10
3146.369730
20
104136.062725
11
3167.012702
21
104138.903182
0
LINE
8
Layer 1
10
3167.012702
20
104138.903182
11
3187.754207
21
104141.235488
0
LINE
8
Layer 1
10
3187.754207
20
104141.235488
11
3208.585468
21
104143.055983
0
LINE
8
Layer 1
10
3208.585468
20
104143.055983
11
3229.497706
21
104144.361007
0
LINE
8
Layer 1
10
3229.497706
20
104144.361007
11
3250.482143
21
104145.146899
0
LINE
8
Layer 1
10
3250.482143
20
104145.146899
11
3271.530000
21
104145.410000
0
LINE
8
Layer 1
10
39665.200000
20
93978.800000
11
45153.200000
21
94463.800000
0
LINE
8
Layer 1
10
79180.200000
20
93310.800000
11
73688.200000
21
93789.800000
0
LINE
8
Layer 1
10
74176.200000
20
99274.800000
11
79661.200000
21
98797.800000
0
LINE
8
Layer 1
10
79661.200000
20
98797.800000
11
79180.200000
21
93310.800000
0
LINE
8
Layer 1
10
73688.200000
20
93789.800000
11
74176.200000
21
99274.800000
0
LINE
8
Layer 1
10
107306.000000
20
75397.800000
11
107306.000000
21
69889.800000
0
LINE
8
Layer 1
10
3653.230000
20
104145.000000
11
50416.230000
21
104145.000000
0
LINE
8
Layer 1
10
114633.000000
20
88204.800000
11
114633.000000
21
67779.800000
0
LINE
8
Layer 1
10
108343.000000
20
66928.800000
11
75164.200000
21
66928.800000
0
LINE
8
Layer 1
10
2432.230000
20
67771.800000
11
2432.230000
21
88224.800000
0
LINE
8
Layer 1
10
2428.230000
20
103294.000000
11
2432.230000
21
88225.000000
0
LINE
8
Layer 1
10
114633.000000
20
88204.800000
11
114633.000000
21
103302.000000
0
LINE
8
Layer 1
10
107901.000000
20
69641.800000
11
110605.000000
21
69641.800000
0
LINE
8
Layer 1
10
110605.000000
20
69641.800000
11
110605.000000
21
76641.800000
0
LINE
8
Layer 1
10
110605.000000
20
76641.800000
11
107901.000000
21
76641.800000
0
LINE
8
Layer 1
10
107901.000000
20
76641.800000
11
107901.000000
21
69641.800000
0
LINE
8
Layer 1
10
98507.200000
20
76633.800000
11
98507.200000
21
69633.800000
0
LINE
8
Layer 1
10
101212.000000
20
76633.800000
11
98507.200000
21
76633.800000
0
LINE
8
Layer 1
10
98507.200000
20
69633.800000
11
101212.200000
21
69633.800000
0
LINE
8
Layer 1
10
101212.000000
20
69633.800000
11
101212.000000
21
76633.800000
0
LINE
8
Layer 1
10
83046.200000
20
99742.800000
11
82436.200000
21
92779.800000
0
LINE
8
Layer 1
10
82436.200000
20
92779.800000
11
79751.200000
21
93019.800000
0
LINE
8
Layer 1
10
79751.200000
20
93019.800000
11
80357.200000
21
99990.800000
0
LINE
8
Layer 1
10
80357.200000
20
99990.800000
11
83046.200000
21
99742.800000
0
LINE
8
Layer 1
10
70389.200000
20
93837.800000
11
70995.200000
21
100809.800000
0
LINE
8
Layer 1
10
70995.200000
20
100810.000000
11
73684.200000
21
100562.000000
0
LINE
8
Layer 1
10
73074.200000
20
93598.800000
11
70389.200000
21
93837.800000
0
LINE
8
Layer 1
10
73684.200000
20
100562.000000
11
73074.200000
21
93599.000000
0
LINE
8
Layer 1
10
47846.200000
20
101476.000000
11
48460.200000
21
94507.000000
0
LINE
8
Layer 1
10
48460.200000
20
94506.800000
11
45771.200000
21
94270.800000
0
LINE
8
Layer 1
10
45771.200000
20
94270.800000
11
45153.200000
21
101246.800000
0
LINE
8
Layer 1
10
45153.200000
20
101247.000000
11
47846.200000
21
101476.000000
0
LINE
8
Layer 1
10
35787.200000
20
100420.000000
11
38479.200000
21
100649.000000
0
LINE
8
Layer 1
10
39094.200000
20
93680.800000
11
36405.200000
21
93444.800000
0
LINE
8
Layer 1
10
36405.200000
20
93444.800000
11
35787.200000
21
100419.800000
0
LINE
8
Layer 1
10
38479.200000
20
100649.000000
11
39094.200000
21
93681.000000
0
LINE
8
Layer 1
10
44672.200000
20
99951.800000
11
39184.200000
21
99467.800000
0
LINE
8
Layer 1
10
113783.000000
20
104145.000000
11
113804.059405
21
104144.948188
0
LINE
8
Layer 1
10
113804.059405
20
104144.948188
11
113825.060558
21
104144.372480
0
LINE
8
Layer 1
10
113825.060558
20
104144.372480
11
113845.994633
21
104143.276456
0
LINE
8
Layer 1
10
113845.994633
20
104143.276456
11
113866.852803
21
104141.663694
0
LINE
8
Layer 1
10
113866.852803
20
104141.663694
11
113887.626243
21
104139.537773
0
LINE
8
Layer 1
10
113887.626243
20
104139.537773
11
113908.306127
21
104136.902270
0
LINE
8
Layer 1
10
113908.306127
20
104136.902270
11
113928.883627
21
104133.760764
0
LINE
8
Layer 1
10
113928.883627
20
104133.760764
11
113949.349919
21
104130.116834
0
LINE
8
Layer 1
10
113949.349919
20
104130.116834
11
113969.696176
21
104125.974058
0
LINE
8
Layer 1
10
113969.696176
20
104125.974058
11
113989.913572
21
104121.336014
0
LINE
8
Layer 1
10
113989.913572
20
104121.336014
11
114009.993281
21
104116.206281
0
LINE
8
Layer 1
10
114009.993281
20
104116.206281
11
114029.926477
21
104110.588438
0
LINE
8
Layer 1
10
114029.926477
20
104110.588438
11
114049.704333
21
104104.486062
0
LINE
8
Layer 1
10
114049.704333
20
104104.486062
11
114069.318024
21
104097.902733
0
LINE
8
Layer 1
10
114069.318024
20
104097.902733
11
114088.758723
21
104090.842028
0
LINE
8
Layer 1
10
114088.758723
20
104090.842028
11
114108.017604
21
104083.307526
0
LINE
8
Layer 1
10
114108.017604
20
104083.307526
11
114127.085842
21
104075.302806
0
LINE
8
Layer 1
10
114127.085842
20
104075.302806
11
114145.954610
21
104066.831446
0
LINE
8
Layer 1
10
114145.954610
20
104066.831446
11
114164.615081
21
104057.897024
0
LINE
8
Layer 1
10
114164.615081
20
104057.897024
11
114183.058430
21
104048.503118
0
LINE
8
Layer 1
10
114183.058430
20
104048.503118
11
114201.275831
21
104038.653308
0
LINE
8
Layer 1
10
114201.275831
20
104038.653308
11
114219.258458
21
104028.351172
0
LINE
8
Layer 1
10
114219.258458
20
104028.351172
11
114236.997484
21
104017.600288
0
LINE
8
Layer 1
10
114236.997484
20
104017.600288
11
114254.484083
21
104006.404234
0
LINE
8
Layer 1
10
114254.484083
20
104006.404234
11
114271.709429
21
103994.766590
0
LINE
8
Layer 1
10
114271.709429
20
103994.766590
11
114288.664697
21
103982.690932
0
LINE
8
Layer 1
10
114288.664697
20
103982.690932
11
114305.341059
21
103970.180841
0
LINE
8
Layer 1
10
114305.341059
20
103970.180841
11
114321.729691
21
103957.239894
0
LINE
8
Layer 1
10
114321.729691
20
103957.239894
11
114337.821765
21
103943.871669
0
LINE
8
Layer 1
10
114337.821765
20
103943.871669
11
114353.608455
21
103930.079746
0
LINE
8
Layer 1
10
114353.608455
20
103930.079746
11
114369.080937
21
103915.867702
0
LINE
8
Layer 1
10
114369.080937
20
103915.867702
11
114384.230382
21
103901.239116
0
LINE
8
Layer 1
10
114384.230382
20
103901.239116
11
114399.009947
21
103886.236926
0
LINE
8
Layer 1
10
114399.009947
20
103886.236926
11
114413.376226
21
103870.907546
0
LINE
8
Layer 1
10
114413.376226
20
103870.907546
11
114427.325551
21
103855.259765
0
LINE
8
Layer 1
10
114427.325551
20
103855.259765
11
114440.854258
21
103839.302372
0
LINE
8
Layer 1
10
114440.854258
20
103839.302372
11
114453.958679
21
103823.044159
0
LINE
8
Layer 1
10
114453.958679
20
103823.044159
11
114466.635146
21
103806.493913
0
LINE
8
Layer 1
10
114466.635146
20
103806.493913
11
114478.879995
21
103789.660426
0
LINE
8
Layer 1
10
114478.879995
20
103789.660426
11
114490.689557
21
103772.552488
0
LINE
8
Layer 1
10
114490.689557
20
103772.552488
11
114502.060167
21
103755.178887
0
LINE
8
Layer 1
10
114502.060167
20
103755.178887
11
114512.988158
21
103737.548414
0
LINE
8
Layer 1
10
114512.988158
20
103737.548414
11
114523.469863
21
103719.669859
0
LINE
8
Layer 1
10
114523.469863
20
103719.669859
11
114533.501615
21
103701.552012
0
LINE
8
Layer 1
10
114533.501615
20
103701.552012
11
114543.079748
21
103683.203661
0
LINE
8
Layer 1
10
114543.079748
20
103683.203661
11
114552.200595
21
103664.633598
0
LINE
8
Layer 1
10
114552.200595
20
103664.633598
11
114560.860490
21
103645.850613
0
LINE
8
Layer 1
10
114560.860490
20
103645.850613
11
114569.055766
21
103626.863494
0
LINE
8
Layer 1
10
114569.055766
20
103626.863494
11
114576.782756
21
103607.681031
0
LINE
8
Layer 1
10
114576.782756
20
103607.681031
11
114584.037793
21
103588.312016
0
LINE
8
Layer 1
10
114584.037793
20
103588.312016
11
114590.817212
21
103568.765237
0
LINE
8
Layer 1
10
114590.817212
20
103568.765237
11
114597.117345
21
103549.049484
0
LINE
8
Layer 1
10
114597.117345
20
103549.049484
11
114602.934525
21
103529.173547
0
LINE
8
Layer 1
10
114602.934525
20
103529.173547
11
114608.265087
21
103509.146216
0
LINE
8
Layer 1
10
114608.265087
20
103509.146216
11
114613.105363
21
103488.976281
0
LINE
8
Layer 1
10
114613.105363
20
103488.976281
11
114617.451687
21
103468.672532
0
LINE
8
Layer 1
10
114617.451687
20
103468.672532
11
114621.300392
21
103448.243758
0
LINE
8
Layer 1
10
114621.300392
20
103448.243758
11
114624.647811
21
103427.698749
0
LINE
8
Layer 1
10
114624.647811
20
103427.698749
11
114627.490278
21
103407.046296
0
LINE
8
Layer 1
10
114627.490278
20
103407.046296
11
114629.824127
21
103386.295187
0
LINE
8
Layer 1
10
114629.824127
20
103386.295187
11
114631.645690
21
103365.454214
0
LINE
8
Layer 1
10
114631.645690
20
103365.454214
11
114632.951301
21
103344.532165
0
LINE
8
Layer 1
10
114632.951301
20
103344.532165
11
114633.737293
21
103323.537830
0
LINE
8
Layer 1
10
114633.737293
20
103323.537830
11
114634.000000
21
103302.480000
0
LINE
8
Layer 1
10
114634.000000
20
67779.000000
11
114633.933225
21
67757.942672
0
LINE
8
Layer 1
10
114633.933225
20
67757.942672
11
114633.342698
21
67736.943951
0
LINE
8
Layer 1
10
114633.342698
20
67736.943951
11
114632.232001
21
67716.012659
0
LINE
8
Layer 1
10
114632.232001
20
67716.012659
11
114630.604718
21
67695.157616
0
LINE
8
Layer 1
10
114630.604718
20
67695.157616
11
114628.464433
21
67674.387645
0
LINE
8
Layer 1
10
114628.464433
20
67674.387645
11
114625.814728
21
67653.711566
0
LINE
8
Layer 1
10
114625.814728
20
67653.711566
11
114622.659187
21
67633.138200
0
LINE
8
Layer 1
10
114622.659187
20
67633.138200
11
114619.001393
21
67612.676369
0
LINE
8
Layer 1
10
114619.001393
20
67612.676369
11
114614.844931
21
67592.334894
0
LINE
8
Layer 1
10
114614.844931
20
67592.334894
11
114610.193383
21
67572.122596
0
LINE
8
Layer 1
10
114610.193383
20
67572.122596
11
114605.050332
21
67552.048297
0
LINE
8
Layer 1
10
114605.050332
20
67552.048297
11
114599.419362
21
67532.120816
0
LINE
8
Layer 1
10
114599.419362
20
67532.120816
11
114593.304056
21
67512.348977
0
LINE
8
Layer 1
10
114593.304056
20
67512.348977
11
114586.707998
21
67492.741599
0
LINE
8
Layer 1
10
114586.707998
20
67492.741599
11
114579.634772
21
67473.307504
0
LINE
8
Layer 1
10
114579.634772
20
67473.307504
11
114572.087959
21
67454.055514
0
LINE
8
Layer 1
10
114572.087959
20
67454.055514
11
114564.071145
21
67434.994449
0
LINE
8
Layer 1
10
114564.071145
20
67434.994449
11
114555.587911
21
67416.133131
0
LINE
8
Layer 1
10
114555.587911
20
67416.133131
11
114546.641842
21
67397.480381
0
LINE
8
Layer 1
10
114546.641842
20
67397.480381
11
114537.236521
21
67379.045020
0
LINE
8
Layer 1
10
114537.236521
20
67379.045020
11
114527.375531
21
67360.835869
0
LINE
8
Layer 1
10
114527.375531
20
67360.835869
11
114517.062456
21
67342.861750
0
LINE
8
Layer 1
10
114517.062456
20
67342.861750
11
114506.300879
21
67325.131483
0
LINE
8
Layer 1
10
114506.300879
20
67325.131483
11
114495.094384
21
67307.653891
0
LINE
8
Layer 1
10
114495.094384
20
67307.653891
11
114483.446553
21
67290.437793
0
LINE
8
Layer 1
10
114483.446553
20
67290.437793
11
114471.360970
21
67273.492012
0
LINE
8
Layer 1
10
114471.360970
20
67273.492012
11
114458.841219
21
67256.825369
0
LINE
8
Layer 1
10
114458.841219
20
67256.825369
11
114445.890882
21
67240.446684
0
LINE
8
Layer 1
10
114445.890882
20
67240.446684
11
114432.513544
21
67224.364779
0
LINE
8
Layer 1
10
114432.513544
20
67224.364779
11
114418.712788
21
67208.588475
0
LINE
8
Layer 1
10
114418.712788
20
67208.588475
11
114404.492196
21
67193.126593
0
LINE
8
Layer 1
10
114404.492196
20
67193.126593
11
114389.855353
21
67177.987956
0
LINE
8
Layer 1
10
114389.855353
20
67177.987956
11
114374.845214
21
67163.219365
0
LINE
8
Layer 1
10
114374.845214
20
67163.219365
11
114359.508206
21
67148.864185
0
LINE
8
Layer 1
10
114359.508206
20
67148.864185
11
114343.853119
21
67134.926077
0
LINE
8
Layer 1
10
114343.853119
20
67134.926077
11
114327.888741
21
67121.408699
0
LINE
8
Layer 1
10
114327.888741
20
67121.408699
11
114311.623863
21
67108.315714
0
LINE
8
Layer 1
10
114311.623863
20
67108.315714
11
114295.067274
21
67095.650780
0
LINE
8
Layer 1
10
114295.067274
20
67095.650780
11
114278.227764
21
67083.417559
0
LINE
8
Layer 1
10
114278.227764
20
67083.417559
11
114261.114122
21
67071.619710
0
LINE
8
Layer 1
10
114261.114122
20
67071.619710
11
114243.735138
21
67060.260894
0
LINE
8
Layer 1
10
114243.735138
20
67060.260894
11
114226.099601
21
67049.344772
0
LINE
8
Layer 1
10
114226.099601
20
67049.344772
11
114208.216300
21
67038.875003
0
LINE
8
Layer 1
10
114208.216300
20
67038.875003
11
114190.094027
21
67028.855249
0
LINE
8
Layer 1
10
114190.094027
20
67028.855249
11
114171.741569
21
67019.289168
0
LINE
8
Layer 1
10
114171.741569
20
67019.289168
11
114153.167716
21
67010.180422
0
LINE
8
Layer 1
10
114153.167716
20
67010.180422
11
114134.381259
21
67001.532672
0
LINE
8
Layer 1
10
114134.381259
20
67001.532672
11
114115.390986
21
66993.349576
0
LINE
8
Layer 1
10
114115.390986
20
66993.349576
11
114096.205688
21
66985.634796
0
LINE
8
Layer 1
10
114096.205688
20
66985.634796
11
114076.834153
21
66978.391993
0
LINE
8
Layer 1
10
114076.834153
20
66978.391993
11
114057.285171
21
66971.624825
0
LINE
8
Layer 1
10
114057.285171
20
66971.624825
11
114037.567532
21
66965.336954
0
LINE
8
Layer 1
10
114037.567532
20
66965.336954
11
114017.690026
21
66959.532040
0
LINE
8
Layer 1
10
114017.690026
20
66959.532040
11
113997.661441
21
66954.213744
0
LINE
8
Layer 1
10
113997.661441
20
66954.213744
11
113977.490568
21
66949.385725
0
LINE
8
Layer 1
10
113977.490568
20
66949.385725
11
113957.186196
21
66945.051643
0
LINE
8
Layer 1
10
113957.186196
20
66945.051643
11
113936.757114
21
66941.215161
0
LINE
8
Layer 1
10
113936.757114
20
66941.215161
11
113916.212113
21
66937.879936
0
LINE
8
Layer 1
10
113916.212113
20
66937.879936
11
113895.559981
21
66935.049631
0
LINE
8
Layer 1
10
113895.559981
20
66935.049631
11
113874.809508
21
66932.727905
0
LINE
8
Layer 1
10
113874.809508
20
66932.727905
11
113853.969484
21
66930.918419
0
LINE
8
Layer 1
10
113853.969484
20
66930.918419
11
113833.048698
21
66929.624832
0
LINE
8
Layer 1
10
113833.048698
20
66929.624832
11
113812.055940
21
66928.850806
0
LINE
8
Layer 1
10
113812.055940
20
66928.850806
11
113791.000000
21
66928.600000
0
LINE
8
Layer 1
10
101798.000000
20
69889.800000
11
101798.000000
21
75397.800000
0
LINE
8
Layer 1
10
45153.200000
20
94463.800000
11
44672.200000
21
99951.800000
0
LINE
8
Layer 1
10
3283.330000
20
66928.600000
11
3262.280767
21
66928.666652
0
LINE
8
Layer 1
10
3262.280767
20
66928.666652
11
3241.290072
21
66929.256656
0
LINE
8
Layer 1
10
3241.290072
20
66929.256656
11
3220.366726
21
66930.366435
0
LINE
8
Layer 1
10
3220.366726
20
66930.366435
11
3199.519540
21
66931.992411
0
LINE
8
Layer 1
10
3199.519540
20
66931.992411
11
3178.757328
21
66934.131005
0
LINE
8
Layer 1
10
3178.757328
20
66934.131005
11
3158.088900
21
66936.778640
0
LINE
8
Layer 1
10
3158.088900
20
66936.778640
11
3137.523068
21
66939.931737
0
LINE
8
Layer 1
10
3137.523068
20
66939.931737
11
3117.068645
21
66943.586718
0
LINE
8
Layer 1
10
3117.068645
20
66943.586718
11
3096.734442
21
66947.740006
0
LINE
8
Layer 1
10
3096.734442
20
66947.740006
11
3076.529270
21
66952.388022
0
LINE
8
Layer 1
10
3076.529270
20
66952.388022
11
3056.461942
21
66957.527188
0
LINE
8
Layer 1
10
3056.461942
20
66957.527188
11
3036.541270
21
66963.153927
0
LINE
8
Layer 1
10
3036.541270
20
66963.153927
11
3016.776064
21
66969.264660
0
LINE
8
Layer 1
10
3016.776064
20
66969.264660
11
2997.175138
21
66975.855810
0
LINE
8
Layer 1
10
2997.175138
20
66975.855810
11
2977.747302
21
66982.923797
0
LINE
8
Layer 1
10
2977.747302
20
66982.923797
11
2958.501369
21
66990.465045
0
LINE
8
Layer 1
10
2958.501369
20
66990.465045
11
2939.446150
21
66998.475975
0
LINE
8
Layer 1
10
2939.446150
20
66998.475975
11
2920.590458
21
67006.953009
0
LINE
8
Layer 1
10
2920.590458
20
67006.953009
11
2901.943103
21
67015.892569
0
LINE
8
Layer 1
10
2901.943103
20
67015.892569
11
2883.512899
21
67025.291077
0
LINE
8
Layer 1
10
2883.512899
20
67025.291077
11
2865.308655
21
67035.144955
0
LINE
8
Layer 1
10
2865.308655
20
67035.144955
11
2847.339185
21
67045.450625
0
LINE
8
Layer 1
10
2847.339185
20
67045.450625
11
2829.613301
21
67056.204509
0
LINE
8
Layer 1
10
2829.613301
20
67056.204509
11
2812.139813
21
67067.403029
0
LINE
8
Layer 1
10
2812.139813
20
67067.403029
11
2794.927534
21
67079.042607
0
LINE
8
Layer 1
10
2794.927534
20
67079.042607
11
2777.985276
21
67091.119665
0
LINE
8
Layer 1
10
2777.985276
20
67091.119665
11
2761.321850
21
67103.630625
0
LINE
8
Layer 1
10
2761.321850
20
67103.630625
11
2744.946068
21
67116.571908
0
LINE
8
Layer 1
10
2744.946068
20
67116.571908
11
2728.866742
21
67129.939937
0
LINE
8
Layer 1
10
2728.866742
20
67129.939937
11
2713.092684
21
67143.731134
0
LINE
8
Layer 1
10
2713.092684
20
67143.731134
11
2697.632705
21
67157.941921
0
LINE
8
Layer 1
10
2697.632705
20
67157.941921
11
2682.495618
21
67172.568720
0
LINE
8
Layer 1
10
2682.495618
20
67172.568720
11
2667.728184
21
67187.568637
0
LINE
8
Layer 1
10
2667.728184
20
67187.568637
11
2653.373729
21
67202.895315
0
LINE
8
Layer 1
10
2653.373729
20
67202.895315
11
2639.435915
21
67218.539974
0
LINE
8
Layer 1
10
2639.435915
20
67218.539974
11
2625.918402
21
67234.493838
0
LINE
8
Layer 1
10
2625.918402
20
67234.493838
11
2612.824848
21
67250.748127
0
LINE
8
Layer 1
10
2612.824848
20
67250.748127
11
2600.158915
21
67267.294063
0
LINE
8
Layer 1
10
2600.158915
20
67267.294063
11
2587.924263
21
67284.122870
0
LINE
8
Layer 1
10
2587.924263
20
67284.122870
11
2576.124552
21
67301.225768
0
LINE
8
Layer 1
10
2576.124552
20
67301.225768
11
2564.763441
21
67318.593981
0
LINE
8
Layer 1
10
2564.763441
20
67318.593981
11
2553.844592
21
67336.218728
0
LINE
8
Layer 1
10
2553.844592
20
67336.218728
11
2543.371663
21
67354.091234
0
LINE
8
Layer 1
10
2543.371663
20
67354.091234
11
2533.348316
21
67372.202719
0
LINE
8
Layer 1
10
2533.348316
20
67372.202719
11
2523.778210
21
67390.544406
0
LINE
8
Layer 1
10
2523.778210
20
67390.544406
11
2514.665006
21
67409.107516
0
LINE
8
Layer 1
10
2514.665006
20
67409.107516
11
2506.012363
21
67427.883272
0
LINE
8
Layer 1
10
2506.012363
20
67427.883272
11
2497.823942
21
67446.862896
0
LINE
8
Layer 1
10
2497.823942
20
67446.862896
11
2490.103402
21
67466.037609
0
LINE
8
Layer 1
10
2490.103402
20
67466.037609
11
2482.854404
21
67485.398634
0
LINE
8
Layer 1
10
2482.854404
20
67485.398634
11
2476.080609
21
67504.937192
0
LINE
8
Layer 1
10
2476.080609
20
67504.937192
11
2469.785675
21
67524.644506
0
LINE
8
Layer 1
10
2469.785675
20
67524.644506
11
2463.973264
21
67544.511797
0
LINE
8
Layer 1
10
2463.973264
20
67544.511797
11
2458.647035
21
67564.530288
0
LINE
8
Layer 1
10
2458.647035
20
67564.530288
11
2453.810649
21
67584.691200
0
LINE
8
Layer 1
10
2453.810649
20
67584.691200
11
2449.467765
21
67604.985756
0
LINE
8
Layer 1
10
2449.467765
20
67604.985756
11
2445.622044
21
67625.405177
0
LINE
8
Layer 1
10
2445.622044
20
67625.405177
11
2442.277145
21
67645.940685
0
LINE
8
Layer 1
10
2442.277145
20
67645.940685
11
2439.436730
21
67666.583502
0
LINE
8
Layer 1
10
2439.436730
20
67666.583502
11
2437.104457
21
67687.324851
0
LINE
8
Layer 1
10
2437.104457
20
67687.324851
11
2435.283988
21
67708.155954
0
LINE
8
Layer 1
10
2435.283988
20
67708.155954
11
2433.978982
21
67729.068031
0
LINE
8
Layer 1
10
2433.978982
20
67729.068031
11
2433.193099
21
67750.052306
0
LINE
8
Layer 1
10
2433.193099
20
67750.052306
11
2432.930000
21
67771.100000
0
LINE
8
Layer 1
10
107306.000000
20
69889.800000
11
101798.000000
21
69889.800000
0
LINE
8
Layer 1
10
101798.000000
20
75397.800000
11
107306.000000
21
75397.800000
 0 
ENDSEC
 0 
EOF