999
"DXF R12 Output" (www.mydxf.blogspot.com)
 0 
SECTION
 2 
HEADER
 9 
$ACADVER
 1 
AC1009
 9 
$EXTMIN
 10 
 0 
 20 
 0 
 9 
$EXTMAX
 10 
 8.5 
 20 
 11 
 0 
ENDSEC
 0 
SECTION
 2 
ENTITIES
0
LINE
8
Layer 1
10
36.998300
20
290.348000
11
42.239800
21
290.348000
0
LINE
8
Layer 1
10
42.239800
20
274.187000
11
42.239800
21
290.348000
0
LINE
8
Layer 1
10
36.998300
20
274.187000
11
42.239800
21
274.187000
0
LINE
8
Layer 1
10
36.998300
20
290.348000
11
36.998300
21
274.187000
0
LINE
8
Layer 1
10
10.277200
20
285.498000
11
10.277200
21
291.150000
0
LINE
8
Layer 1
10
4.043510
20
285.498000
11
10.277200
21
285.498000
0
LINE
8
Layer 1
10
4.043510
20
291.150000
11
4.043510
21
285.498000
0
LINE
8
Layer 1
10
2.594050
20
291.150000
11
4.043510
21
291.150000
0
LINE
8
Layer 1
10
81.415300
20
291.155000
11
80.454800
21
291.155000
0
LINE
8
Layer 1
10
9.193320
20
277.129000
11
9.193320
21
278.290000
0
LINE
8
Layer 1
10
9.877900
20
277.129000
11
9.193320
21
277.129000
0
LINE
8
Layer 1
10
9.877900
20
278.290000
11
9.877900
21
277.129000
0
LINE
8
Layer 1
10
9.193320
20
278.290000
11
9.877900
21
278.290000
0
LINE
8
Layer 1
10
79.849000
20
291.150000
11
77.905700
21
291.150000
0
LINE
8
Layer 1
10
81.811000
20
291.150000
11
81.415302
21
291.155024
0
LINE
8
Layer 1
10
2.594120
20
291.150000
11
2.163417
21
290.975112
0
LINE
8
Layer 1
10
2.163417
20
290.975112
11
1.984518
21
290.546059
0
LINE
8
Layer 1
10
82.415300
20
290.541000
11
82.240287
21
290.971832
0
LINE
8
Layer 1
10
82.240287
20
290.971832
11
81.811001
21
291.150605
0
LINE
8
Layer 1
10
81.805300
20
264.472000
11
82.236283
21
264.646733
0
LINE
8
Layer 1
10
82.236283
20
264.646733
11
82.415334
21
265.075941
0
LINE
8
Layer 1
10
82.414600
20
275.899000
11
82.414600
21
265.076000
0
LINE
8
Layer 1
10
1.981150
20
265.081000
11
1.984029
21
275.883800
0
LINE
8
Layer 1
10
1.984020
20
290.546000
11
1.984020
21
275.884000
0
LINE
8
Layer 1
10
77.905700
20
291.150000
11
10.277200
21
291.150000
0
LINE
8
Layer 1
10
82.414600
20
275.899000
11
82.414600
21
290.540000
0
LINE
8
Layer 1
10
3.465730
20
264.473000
11
36.383200
21
264.473000
0
LINE
8
Layer 1
10
1.981720
20
265.081000
11
2.156608
21
264.650297
0
LINE
8
Layer 1
10
2.156608
20
264.650297
11
2.585661
21
264.471398
0
LINE
8
Layer 1
10
81.508500
20
264.471000
11
81.805300
21
264.471000
0
LINE
8
Layer 1
10
2.585450
20
264.471000
11
2.860001
21
264.472411
0
LINE
8
Layer 1
10
36.988900
20
264.471000
11
54.116500
21
264.471000
0
LINE
8
Layer 1
10
54.723700
20
264.471000
11
80.902100
21
264.471000
0
LINE
8
Layer 1
10
80.454800
20
291.155000
11
79.849067
21
291.149976
0
LINE
8
Layer 1
10
79.849067
20
291.149976
11
79.849000
21
291.150000
0
LINE
8
Layer 1
10
81.508500
20
264.471000
11
80.902100
21
264.471000
0
LINE
8
Layer 1
10
80.902100
20
264.471000
11
80.902100
21
264.471000
0
LINE
8
Layer 1
10
80.902100
20
264.471000
11
80.902100
21
264.471000
0
LINE
8
Layer 1
10
54.723700
20
264.471000
11
54.116500
21
264.471000
0
LINE
8
Layer 1
10
36.988900
20
264.471000
11
36.383167
21
264.472411
0
LINE
8
Layer 1
10
3.465730
20
264.473000
11
2.859997
21
264.472977
0
LINE
8
Layer 1
10
36.998300
20
290.348000
11
42.239800
21
290.348000
0
LINE
8
Layer 1
10
42.239800
20
274.187000
11
42.239800
21
290.348000
0
LINE
8
Layer 1
10
36.998300
20
274.187000
11
42.239800
21
274.187000
0
LINE
8
Layer 1
10
36.998300
20
290.348000
11
36.998300
21
274.187000
0
LINE
8
Layer 1
10
10.277200
20
285.498000
11
10.277200
21
291.150000
0
LINE
8
Layer 1
10
4.043510
20
285.498000
11
10.277200
21
285.498000
0
LINE
8
Layer 1
10
4.043510
20
291.150000
11
4.043510
21
285.498000
0
LINE
8
Layer 1
10
2.594050
20
291.150000
11
4.043510
21
291.150000
0
LINE
8
Layer 1
10
81.415300
20
291.155000
11
80.454800
21
291.155000
0
LINE
8
Layer 1
10
9.193320
20
277.129000
11
9.193320
21
278.290000
0
LINE
8
Layer 1
10
9.877900
20
277.129000
11
9.193320
21
277.129000
0
LINE
8
Layer 1
10
9.877900
20
278.290000
11
9.877900
21
277.129000
0
LINE
8
Layer 1
10
9.193320
20
278.290000
11
9.877900
21
278.290000
0
LINE
8
Layer 1
10
79.849000
20
291.150000
11
77.905700
21
291.150000
0
LINE
8
Layer 1
10
81.811000
20
291.150000
11
81.415302
21
291.155024
0
LINE
8
Layer 1
10
2.594120
20
291.150000
11
2.163417
21
290.975112
0
LINE
8
Layer 1
10
2.163417
20
290.975112
11
1.984518
21
290.546059
0
LINE
8
Layer 1
10
82.415300
20
290.541000
11
82.240287
21
290.971832
0
LINE
8
Layer 1
10
82.240287
20
290.971832
11
81.811001
21
291.150605
0
LINE
8
Layer 1
10
81.805300
20
264.472000
11
82.236283
21
264.646733
0
LINE
8
Layer 1
10
82.236283
20
264.646733
11
82.415334
21
265.075941
0
LINE
8
Layer 1
10
82.414600
20
275.899000
11
82.414600
21
265.076000
0
LINE
8
Layer 1
10
1.981150
20
265.081000
11
1.984029
21
275.883800
0
LINE
8
Layer 1
10
1.984020
20
290.546000
11
1.984020
21
275.884000
0
LINE
8
Layer 1
10
77.905700
20
291.150000
11
10.277200
21
291.150000
0
LINE
8
Layer 1
10
82.414600
20
275.899000
11
82.414600
21
290.540000
0
LINE
8
Layer 1
10
3.465730
20
264.473000
11
36.383200
21
264.473000
0
LINE
8
Layer 1
10
1.981720
20
265.081000
11
2.156608
21
264.650297
0
LINE
8
Layer 1
10
2.156608
20
264.650297
11
2.585661
21
264.471398
0
LINE
8
Layer 1
10
81.508500
20
264.471000
11
81.805300
21
264.471000
0
LINE
8
Layer 1
10
2.585450
20
264.471000
11
2.860001
21
264.472411
0
LINE
8
Layer 1
10
36.988900
20
264.471000
11
54.116500
21
264.471000
0
LINE
8
Layer 1
10
54.723700
20
264.471000
11
80.902100
21
264.471000
0
LINE
8
Layer 1
10
80.454800
20
291.155000
11
79.849067
21
291.149976
0
LINE
8
Layer 1
10
79.849067
20
291.149976
11
79.849000
21
291.150000
0
LINE
8
Layer 1
10
81.508500
20
264.471000
11
80.902100
21
264.471000
0
LINE
8
Layer 1
10
80.902100
20
264.471000
11
80.902100
21
264.471000
0
LINE
8
Layer 1
10
80.902100
20
264.471000
11
80.902100
21
264.471000
0
LINE
8
Layer 1
10
54.723700
20
264.471000
11
54.116500
21
264.471000
0
LINE
8
Layer 1
10
36.988900
20
264.471000
11
36.383167
21
264.472411
0
LINE
8
Layer 1
10
3.465730
20
264.473000
11
2.859997
21
264.472977
0
LINE
8
Layer 1
10
36.998300
20
290.348000
11
42.239800
21
290.348000
0
LINE
8
Layer 1
10
42.239800
20
274.187000
11
42.239800
21
290.348000
0
LINE
8
Layer 1
10
36.998300
20
274.187000
11
42.239800
21
274.187000
0
LINE
8
Layer 1
10
36.998300
20
290.348000
11
36.998300
21
274.187000
0
LINE
8
Layer 1
10
10.277200
20
285.498000
11
10.277200
21
291.150000
0
LINE
8
Layer 1
10
4.043510
20
285.498000
11
10.277200
21
285.498000
0
LINE
8
Layer 1
10
4.043510
20
291.150000
11
4.043510
21
285.498000
0
LINE
8
Layer 1
10
2.594050
20
291.150000
11
4.043510
21
291.150000
0
LINE
8
Layer 1
10
81.415300
20
291.155000
11
80.454800
21
291.155000
0
LINE
8
Layer 1
10
9.193320
20
277.129000
11
9.193320
21
278.290000
0
LINE
8
Layer 1
10
9.877900
20
277.129000
11
9.193320
21
277.129000
0
LINE
8
Layer 1
10
9.877900
20
278.290000
11
9.877900
21
277.129000
0
LINE
8
Layer 1
10
9.193320
20
278.290000
11
9.877900
21
278.290000
0
LINE
8
Layer 1
10
79.849000
20
291.150000
11
77.905700
21
291.150000
0
LINE
8
Layer 1
10
81.811000
20
291.150000
11
81.415302
21
291.155024
0
LINE
8
Layer 1
10
2.594120
20
291.150000
11
2.163417
21
290.975112
0
LINE
8
Layer 1
10
2.163417
20
290.975112
11
1.984518
21
290.546059
0
LINE
8
Layer 1
10
82.415300
20
290.541000
11
82.240287
21
290.971832
0
LINE
8
Layer 1
10
82.240287
20
290.971832
11
81.811001
21
291.150605
0
LINE
8
Layer 1
10
81.805300
20
264.472000
11
82.236283
21
264.646733
0
LINE
8
Layer 1
10
82.236283
20
264.646733
11
82.415334
21
265.075941
0
LINE
8
Layer 1
10
82.414600
20
275.899000
11
82.414600
21
265.076000
0
LINE
8
Layer 1
10
1.981150
20
265.081000
11
1.984029
21
275.883800
0
LINE
8
Layer 1
10
1.984020
20
290.546000
11
1.984020
21
275.884000
0
LINE
8
Layer 1
10
77.905700
20
291.150000
11
10.277200
21
291.150000
0
LINE
8
Layer 1
10
82.414600
20
275.899000
11
82.414600
21
290.540000
0
LINE
8
Layer 1
10
3.465730
20
264.473000
11
36.383200
21
264.473000
0
LINE
8
Layer 1
10
1.981720
20
265.081000
11
2.156608
21
264.650297
0
LINE
8
Layer 1
10
2.156608
20
264.650297
11
2.585661
21
264.471398
0
LINE
8
Layer 1
10
81.508500
20
264.471000
11
81.805300
21
264.471000
0
LINE
8
Layer 1
10
2.585450
20
264.471000
11
2.860001
21
264.472411
0
LINE
8
Layer 1
10
36.988900
20
264.471000
11
54.116500
21
264.471000
0
LINE
8
Layer 1
10
54.723700
20
264.471000
11
80.902100
21
264.471000
0
LINE
8
Layer 1
10
80.454800
20
291.155000
11
79.849067
21
291.149976
0
LINE
8
Layer 1
10
79.849067
20
291.149976
11
79.849000
21
291.150000
0
LINE
8
Layer 1
10
81.508500
20
264.471000
11
80.902100
21
264.471000
0
LINE
8
Layer 1
10
80.902100
20
264.471000
11
80.902100
21
264.471000
0
LINE
8
Layer 1
10
80.902100
20
264.471000
11
80.902100
21
264.471000
0
LINE
8
Layer 1
10
54.723700
20
264.471000
11
54.116500
21
264.471000
0
LINE
8
Layer 1
10
36.988900
20
264.471000
11
36.383167
21
264.472411
0
LINE
8
Layer 1
10
3.465730
20
264.473000
11
2.859997
21
264.472977
 0 
ENDSEC
 0 
EOF