999
"DXF R12 Output" (www.mydxf.blogspot.com)
 0 
SECTION
 2 
HEADER
 9 
$ACADVER
 1 
AC1009
 9 
$EXTMIN
 10 
 0 
 20 
 0 
 9 
$EXTMAX
 10 
 8.5 
 20 
 11 
 0 
ENDSEC
 0 
SECTION
 2 
ENTITIES
0
LINE
8
Layer 1
10
1284.060000
20
-22253.900000
11
1390.170000
21
-22253.900000
0
LINE
8
Layer 1
10
1390.170000
20
-22253.900000
11
14588.300000
21
-22253.900000
0
LINE
8
Layer 1
10
21570.500000
20
-22253.900000
11
14588.300000
21
-22253.900000
0
LINE
8
Layer 1
10
32471.800000
20
-22253.900000
11
32354.200000
21
-22253.900000
0
LINE
8
Layer 1
10
32354.200000
20
-22253.900000
11
30934.300000
21
-22253.900000
0
LINE
8
Layer 1
10
32352.800000
20
-32757.100000
11
21807.200000
21
-32757.100000
0
LINE
8
Layer 1
10
21807.200000
20
-32757.100000
11
21568.500000
21
-32757.100000
0
LINE
8
Layer 1
10
21568.500000
20
-32757.100000
11
21568.500000
21
-32757.100000
0
LINE
8
Layer 1
10
14586.000000
20
-32757.100000
11
21568.500000
21
-32757.100000
0
LINE
8
Layer 1
10
1280.670000
20
-32757.100000
11
1388.480000
21
-32757.100000
0
LINE
8
Layer 1
10
32352.800000
20
-32757.100000
11
32469.600000
21
-32757.100000
0
LINE
8
Layer 1
10
2389.520000
20
-29428.600000
11
2389.520000
21
-30982.500000
0
LINE
8
Layer 1
10
3944.000000
20
-30982.500000
11
3944.000000
21
-29428.600000
0
LINE
8
Layer 1
10
2389.520000
20
-30982.500000
11
3944.000000
21
-30982.500000
0
LINE
8
Layer 1
10
3944.000000
20
-29428.600000
11
2389.520000
21
-29428.600000
0
LINE
8
Layer 1
10
6589.550000
20
-30982.500000
11
6589.550000
21
-29428.600000
0
LINE
8
Layer 1
10
5035.070000
20
-30982.500000
11
6589.550000
21
-30982.500000
0
LINE
8
Layer 1
10
6589.550000
20
-29428.600000
11
5035.070000
21
-29428.600000
0
LINE
8
Layer 1
10
5035.070000
20
-29428.600000
11
5035.070000
21
-30982.500000
0
LINE
8
Layer 1
10
4876.180000
20
-27311.900000
11
4876.180000
21
-28866.100000
0
LINE
8
Layer 1
10
4876.180000
20
-28866.100000
11
6430.660000
21
-28866.100000
0
LINE
8
Layer 1
10
6430.660000
20
-27311.900000
11
4876.180000
21
-27311.900000
0
LINE
8
Layer 1
10
6430.660000
20
-28866.100000
11
6430.660000
21
-27311.900000
0
LINE
8
Layer 1
10
3741.650000
20
-27311.900000
11
2187.170000
21
-27311.900000
0
LINE
8
Layer 1
10
3741.650000
20
-28866.100000
11
3741.650000
21
-27311.900000
0
LINE
8
Layer 1
10
2187.170000
20
-27311.900000
11
2187.170000
21
-28866.100000
0
LINE
8
Layer 1
10
2187.170000
20
-28866.100000
11
3741.650000
21
-28866.100000
0
LINE
8
Layer 1
10
1924.990000
20
-26749.500000
11
3479.460000
21
-26749.500000
0
LINE
8
Layer 1
10
3479.460000
20
-26749.500000
11
3479.460000
21
-25195.300000
0
LINE
8
Layer 1
10
1924.990000
20
-25195.300000
11
1924.990000
21
-26749.500000
0
LINE
8
Layer 1
10
3479.460000
20
-25195.300000
11
1924.990000
21
-25195.300000
0
LINE
8
Layer 1
10
4345.040000
20
-25194.100000
11
4345.040000
21
-26748.300000
0
LINE
8
Layer 1
10
4345.040000
20
-26748.300000
11
5899.520000
21
-26748.300000
0
LINE
8
Layer 1
10
5899.520000
20
-25194.100000
11
4345.040000
21
-25194.100000
0
LINE
8
Layer 1
10
5899.520000
20
-26748.300000
11
5899.520000
21
-25194.100000
0
LINE
8
Layer 1
10
3986.050000
20
-23078.600000
11
3986.050000
21
-24632.800000
0
LINE
8
Layer 1
10
5540.530000
20
-23078.600000
11
3986.050000
21
-23078.600000
0
LINE
8
Layer 1
10
5540.530000
20
-24632.800000
11
5540.530000
21
-23078.600000
0
LINE
8
Layer 1
10
3986.050000
20
-24632.800000
11
5540.530000
21
-24632.800000
0
LINE
8
Layer 1
10
1828.470000
20
-24633.900000
11
3382.940000
21
-24633.900000
0
LINE
8
Layer 1
10
3382.940000
20
-23079.400000
11
1828.470000
21
-23079.400000
0
LINE
8
Layer 1
10
3382.940000
20
-24633.900000
11
3382.940000
21
-23079.400000
0
LINE
8
Layer 1
10
1828.470000
20
-23079.400000
11
1828.470000
21
-24633.900000
0
LINE
8
Layer 1
10
29614.900000
20
-29967.100000
11
29614.900000
21
-31521.500000
0
LINE
8
Layer 1
10
29614.900000
20
-31521.500000
11
31169.400000
21
-31521.500000
0
LINE
8
Layer 1
10
31169.400000
20
-31521.500000
11
31169.400000
21
-29967.100000
0
LINE
8
Layer 1
10
31169.400000
20
-29967.100000
11
29614.900000
21
-29967.100000
0
LINE
8
Layer 1
10
27499.400000
20
-31520.400000
11
29053.900000
21
-31520.400000
0
LINE
8
Layer 1
10
27499.400000
20
-29965.900000
11
27499.400000
21
-31520.400000
0
LINE
8
Layer 1
10
29053.900000
20
-29965.900000
11
27499.400000
21
-29965.900000
0
LINE
8
Layer 1
10
29053.900000
20
-31520.400000
11
29053.900000
21
-29965.900000
0
LINE
8
Layer 1
10
25382.700000
20
-31520.400000
11
26937.200000
21
-31520.400000
0
LINE
8
Layer 1
10
26937.200000
20
-29965.900000
11
25382.700000
21
-29965.900000
0
LINE
8
Layer 1
10
26937.200000
20
-31520.400000
11
26937.200000
21
-29965.900000
0
LINE
8
Layer 1
10
25382.700000
20
-29965.900000
11
25382.700000
21
-31520.400000
0
LINE
8
Layer 1
10
26726.100000
20
-27428.500000
11
25171.600000
21
-27428.500000
0
LINE
8
Layer 1
10
26726.100000
20
-28983.000000
11
26726.100000
21
-27428.500000
0
LINE
8
Layer 1
10
25171.600000
20
-27428.500000
11
25171.600000
21
-28983.000000
0
LINE
8
Layer 1
10
25171.600000
20
-28983.000000
11
26726.100000
21
-28983.000000
0
LINE
8
Layer 1
10
27499.400000
20
-27851.800000
11
27499.400000
21
-29406.300000
0
LINE
8
Layer 1
10
27499.400000
20
-29406.300000
11
29053.900000
21
-29406.300000
0
LINE
8
Layer 1
10
29053.900000
20
-27851.800000
11
27499.400000
21
-27851.800000
0
LINE
8
Layer 1
10
29053.900000
20
-29406.300000
11
29053.900000
21
-27851.800000
0
LINE
8
Layer 1
10
29984.900000
20
-27427.400000
11
29984.900000
21
-28981.800000
0
LINE
8
Layer 1
10
29984.900000
20
-28981.800000
11
31539.400000
21
-28981.800000
0
LINE
8
Layer 1
10
31539.400000
20
-27427.400000
11
29984.900000
21
-27427.400000
0
LINE
8
Layer 1
10
31539.400000
20
-28981.800000
11
31539.400000
21
-27427.400000
0
LINE
8
Layer 1
10
31074.000000
20
-26758.500000
11
31074.000000
21
-25204.000000
0
LINE
8
Layer 1
10
31074.000000
20
-25204.000000
11
29519.500000
21
-25204.000000
0
LINE
8
Layer 1
10
29519.500000
20
-26758.500000
11
31074.000000
21
-26758.500000
0
LINE
8
Layer 1
10
29519.500000
20
-25204.000000
11
29519.500000
21
-26758.500000
0
LINE
8
Layer 1
10
26610.700000
20
-26760.700000
11
28165.100000
21
-26760.700000
0
LINE
8
Layer 1
10
28165.100000
20
-25206.300000
11
26610.700000
21
-25206.300000
0
LINE
8
Layer 1
10
28165.100000
20
-26760.700000
11
28165.100000
21
-25206.300000
0
LINE
8
Layer 1
10
26610.700000
20
-25206.300000
11
26610.700000
21
-26760.700000
0
LINE
8
Layer 1
10
25868.400000
20
-24640.700000
11
27422.900000
21
-24640.700000
0
LINE
8
Layer 1
10
27422.900000
20
-23086.200000
11
25868.400000
21
-23086.200000
0
LINE
8
Layer 1
10
27422.900000
20
-24640.700000
11
27422.900000
21
-23086.200000
0
LINE
8
Layer 1
10
25868.400000
20
-23086.200000
11
25868.400000
21
-24640.700000
0
LINE
8
Layer 1
10
18717.200000
20
-23674.100000
11
17167.240000
21
-23809.567000
0
LINE
8
Layer 1
10
18852.900000
20
-25222.900000
11
18717.151000
21
-23674.070000
0
LINE
8
Layer 1
10
17305.000000
20
-25357.300000
11
18852.990000
21
-25222.962000
0
LINE
8
Layer 1
10
17167.200000
20
-23809.500000
11
17304.924000
21
-25357.210000
0
LINE
8
Layer 1
10
20959.400000
20
-25036.400000
11
20823.933000
21
-23487.280000
0
LINE
8
Layer 1
10
19411.700000
20
-25170.700000
11
20959.410000
21
-25036.362000
0
LINE
8
Layer 1
10
19274.000000
20
-23623.000000
11
19411.724000
21
-25170.710000
0
LINE
8
Layer 1
10
20824.000000
20
-23487.300000
11
19274.040000
21
-23623.049000
0
LINE
8
Layer 1
10
23068.500000
20
-24855.200000
11
22932.751000
21
-23306.370000
0
LINE
8
Layer 1
10
21520.500000
20
-24989.500000
11
23068.490000
21
-24855.162000
0
LINE
8
Layer 1
10
22932.700000
20
-23306.300000
11
21382.740000
21
-23441.767000
0
LINE
8
Layer 1
10
21382.800000
20
-23441.800000
11
21520.524000
21
-24989.510000
0
LINE
8
Layer 1
10
23630.700000
20
-24805.200000
11
25178.410000
21
-24670.580000
0
LINE
8
Layer 1
10
25042.900000
20
-23121.800000
11
23492.940000
21
-23257.267000
0
LINE
8
Layer 1
10
23493.000000
20
-23257.200000
11
23630.724000
21
-24805.190000
0
LINE
8
Layer 1
10
25178.400000
20
-24670.600000
11
25042.933000
21
-23121.770000
0
LINE
8
Layer 1
10
25753.800000
20
-25182.800000
11
24203.840000
21
-25318.549000
0
LINE
8
Layer 1
10
24203.900000
20
-25318.600000
11
24341.624000
21
-26866.310000
0
LINE
8
Layer 1
10
24341.600000
20
-26866.300000
11
25889.590000
21
-26731.680000
0
LINE
8
Layer 1
10
25889.600000
20
-26731.700000
11
25753.851000
21
-25182.870000
0
LINE
8
Layer 1
10
22090.600000
20
-25502.900000
11
22228.324000
21
-27050.610000
0
LINE
8
Layer 1
10
22228.300000
20
-27050.600000
11
23776.010000
21
-26916.262000
0
LINE
8
Layer 1
10
23640.600000
20
-25367.400000
11
22090.640000
21
-25502.867000
0
LINE
8
Layer 1
10
23776.000000
20
-26916.200000
11
23640.533000
21
-25367.370000
0
LINE
8
Layer 1
10
21669.500000
20
-27100.500000
11
21534.033000
21
-25551.670000
0
LINE
8
Layer 1
10
20121.800000
20
-27235.200000
11
21669.510000
21
-27100.580000
0
LINE
8
Layer 1
10
21534.100000
20
-25551.700000
11
19983.850000
21
-25687.449000
0
LINE
8
Layer 1
10
19983.800000
20
-25687.500000
11
20121.807000
21
-27235.210000
0
LINE
8
Layer 1
10
19429.500000
20
-25734.000000
11
17879.540000
21
-25869.467000
0
LINE
8
Layer 1
10
18017.300000
20
-27417.500000
11
19565.010000
21
-27282.880000
0
LINE
8
Layer 1
10
19565.000000
20
-27282.900000
11
19429.533000
21
-25734.070000
0
LINE
8
Layer 1
10
17879.600000
20
-25869.500000
11
18017.324000
21
-27417.490000
0
LINE
8
Layer 1
10
22946.300000
20
-29112.800000
11
24494.010000
21
-28978.462000
0
LINE
8
Layer 1
10
24494.000000
20
-28978.400000
11
24358.251000
21
-27429.570000
0
LINE
8
Layer 1
10
22808.300000
20
-27565.100000
11
22946.307000
21
-29112.810000
0
LINE
8
Layer 1
10
24358.200000
20
-27429.600000
11
22808.240000
21
-27565.067000
0
LINE
8
Layer 1
10
20835.000000
20
-29298.500000
11
22382.710000
21
-29164.162000
0
LINE
8
Layer 1
10
22382.700000
20
-29164.100000
11
22247.233000
21
-27614.980000
0
LINE
8
Layer 1
10
22247.200000
20
-27615.000000
11
20697.240000
21
-27750.749000
0
LINE
8
Layer 1
10
20697.300000
20
-27750.800000
11
20835.024000
21
-29298.510000
0
LINE
8
Layer 1
10
20138.500000
20
-27796.200000
11
18588.540000
21
-27931.667000
0
LINE
8
Layer 1
10
20273.900000
20
-29345.100000
11
20138.433000
21
-27796.270000
0
LINE
8
Layer 1
10
18726.200000
20
-29479.700000
11
20273.910000
21
-29345.080000
0
LINE
8
Layer 1
10
18588.500000
20
-27931.700000
11
18726.224000
21
-29479.690000
0
LINE
8
Layer 1
10
19266.100000
20
-30001.500000
11
17716.140000
21
-30136.967000
0
LINE
8
Layer 1
10
19401.600000
20
-31550.300000
11
19266.133000
21
-30001.470000
0
LINE
8
Layer 1
10
17853.900000
20
-31685.000000
11
19401.610000
21
-31550.380000
0
LINE
8
Layer 1
10
17716.200000
20
-30137.000000
11
17853.924000
21
-31684.990000
0
LINE
8
Layer 1
10
6703.850000
20
-25216.100000
11
8252.970000
21
-25352.978000
0
LINE
8
Layer 1
10
8117.220000
20
-26901.900000
11
6568.390000
21
-26765.305000
0
LINE
8
Layer 1
10
8252.970000
20
-25353.000000
11
8117.221000
21
-26901.830000
0
LINE
8
Layer 1
10
6568.380000
20
-26765.300000
11
6703.847000
21
-25216.180000
0
LINE
8
Layer 1
10
6361.800000
20
-23062.800000
11
7910.630000
21
-23199.678000
0
LINE
8
Layer 1
10
7775.170000
20
-24748.500000
11
6226.050000
21
-24611.905000
0
LINE
8
Layer 1
10
6226.050000
20
-24611.900000
11
6361.799000
21
-23062.780000
0
LINE
8
Layer 1
10
7910.630000
20
-23199.700000
11
7775.163000
21
-24748.530000
0
LINE
8
Layer 1
10
8469.430000
20
-23244.000000
11
10018.260000
21
-23380.595000
0
LINE
8
Layer 1
10
9882.800000
20
-24929.700000
11
8333.970000
21
-24792.822000
0
LINE
8
Layer 1
10
10018.300000
20
-23380.600000
11
9882.833000
21
-24929.720000
0
LINE
8
Layer 1
10
8333.960000
20
-24792.800000
11
8469.427000
21
-23243.970000
0
LINE
8
Layer 1
10
8809.510000
20
-25396.200000
11
10358.340000
21
-25532.795000
0
LINE
8
Layer 1
10
10222.900000
20
-27081.900000
11
8674.070000
21
-26945.022000
0
LINE
8
Layer 1
10
10358.300000
20
-25532.800000
11
10222.833000
21
-27081.920000
0
LINE
8
Layer 1
10
8674.040000
20
-26945.000000
11
8809.507000
21
-25396.170000
0
LINE
8
Layer 1
10
8666.140000
20
-29074.100000
11
7117.310000
21
-28937.222000
0
LINE
8
Layer 1
10
7117.310000
20
-28937.200000
11
7252.777000
21
-27388.370000
0
LINE
8
Layer 1
10
7252.770000
20
-27388.400000
11
8801.600000
21
-27524.995000
0
LINE
8
Layer 1
10
8801.610000
20
-27525.000000
11
8666.143000
21
-29074.120000
0
LINE
8
Layer 1
10
9229.450000
20
-29120.700000
11
9364.917000
21
-27571.870000
0
LINE
8
Layer 1
10
10914.000000
20
-27708.400000
11
10778.251000
21
-29257.230000
0
LINE
8
Layer 1
10
9364.920000
20
-27571.900000
11
10914.040000
21
-27708.495000
0
LINE
8
Layer 1
10
10778.300000
20
-29257.300000
11
9229.470000
21
-29120.705000
0
LINE
8
Layer 1
10
12469.400000
20
-25719.600000
11
12333.933000
21
-27268.430000
0
LINE
8
Layer 1
10
12333.900000
20
-27268.500000
11
10785.070000
21
-27131.905000
0
LINE
8
Layer 1
10
10920.500000
20
-25583.000000
11
12469.330000
21
-25719.595000
0
LINE
8
Layer 1
10
10785.100000
20
-27131.900000
11
10920.567000
21
-25583.070000
0
LINE
8
Layer 1
10
12125.100000
20
-23564.000000
11
11989.633000
21
-25112.830000
0
LINE
8
Layer 1
10
10576.200000
20
-23427.400000
11
12125.030000
21
-23563.995000
0
LINE
8
Layer 1
10
10440.800000
20
-24976.300000
11
10576.267000
21
-23427.470000
0
LINE
8
Layer 1
10
11989.600000
20
-25112.800000
11
10440.770000
21
-24976.205000
0
LINE
8
Layer 1
10
12551.800000
20
-25159.700000
11
12687.267000
21
-23610.580000
0
LINE
8
Layer 1
10
14236.100000
20
-23747.500000
11
14100.633000
21
-25296.330000
0
LINE
8
Layer 1
10
12687.200000
20
-23610.600000
11
14236.030000
21
-23747.478000
0
LINE
8
Layer 1
10
14100.600000
20
-25296.300000
11
12551.770000
21
-25159.705000
0
LINE
8
Layer 1
10
14440.700000
20
-27450.800000
11
12891.870000
21
-27313.922000
0
LINE
8
Layer 1
10
12891.800000
20
-27313.900000
11
13027.267000
21
-25765.070000
0
LINE
8
Layer 1
10
14576.200000
20
-25901.700000
11
14440.733000
21
-27450.820000
0
LINE
8
Layer 1
10
13027.300000
20
-25765.100000
11
14576.130000
21
-25901.695000
0
LINE
8
Layer 1
10
11338.500000
20
-29304.100000
11
11473.967000
21
-27754.980000
0
LINE
8
Layer 1
10
11474.000000
20
-27755.000000
11
13022.830000
21
-27891.878000
0
LINE
8
Layer 1
10
12887.300000
20
-29440.700000
11
11338.470000
21
-29304.105000
0
LINE
8
Layer 1
10
13022.800000
20
-27891.900000
11
12887.333000
21
-29440.730000
0
LINE
8
Layer 1
10
15129.600000
20
-28077.300000
11
14993.851000
21
-29626.130000
0
LINE
8
Layer 1
10
14993.800000
20
-29626.100000
11
13444.970000
21
-29489.505000
0
LINE
8
Layer 1
10
13580.800000
20
-27940.700000
11
15129.630000
21
-28077.295000
0
LINE
8
Layer 1
10
13445.000000
20
-29489.500000
11
13580.749000
21
-27940.670000
0
LINE
8
Layer 1
10
11416.100000
20
-31437.200000
11
11551.849000
21
-29888.080000
0
LINE
8
Layer 1
10
1042.980000
20
-32517.200000
11
1043.165068
21
-32529.064769
0
LINE
8
Layer 1
10
1043.165068
20
-32529.064769
11
1043.936921
21
-32540.853518
0
LINE
8
Layer 1
10
1043.936921
20
-32540.853518
11
1045.287481
21
-32552.546351
0
LINE
8
Layer 1
10
1045.287481
20
-32552.546351
11
1047.208670
21
-32564.123372
0
LINE
8
Layer 1
10
1047.208670
20
-32564.123372
11
1049.692409
21
-32575.564685
0
LINE
8
Layer 1
10
1049.692409
20
-32575.564685
11
1052.730620
21
-32586.850394
0
LINE
8
Layer 1
10
1052.730620
20
-32586.850394
11
1056.315225
21
-32597.960603
0
LINE
8
Layer 1
10
1056.315225
20
-32597.960603
11
1060.438145
21
-32608.875415
0
LINE
8
Layer 1
10
1060.438145
20
-32608.875415
11
1065.091301
21
-32619.574935
0
LINE
8
Layer 1
10
1065.091301
20
-32619.574935
11
1070.266616
21
-32630.039267
0
LINE
8
Layer 1
10
1070.266616
20
-32630.039267
11
1075.956010
21
-32640.248515
0
LINE
8
Layer 1
10
1075.956010
20
-32640.248515
11
1082.151407
21
-32650.182782
0
LINE
8
Layer 1
10
1082.151407
20
-32650.182782
11
1088.844726
21
-32659.822173
0
LINE
8
Layer 1
10
1088.844726
20
-32659.822173
11
1096.027890
21
-32669.146792
0
LINE
8
Layer 1
10
1096.027890
20
-32669.146792
11
1103.692820
21
-32678.136742
0
LINE
8
Layer 1
10
1103.692820
20
-32678.136742
11
1111.831439
21
-32686.772128
0
LINE
8
Layer 1
10
1111.831439
20
-32686.772128
11
1120.390305
21
-32694.991179
0
LINE
8
Layer 1
10
1120.390305
20
-32694.991179
11
1129.308152
21
-32702.739881
0
LINE
8
Layer 1
10
1129.308152
20
-32702.739881
11
1138.565160
21
-32710.009967
0
LINE
8
Layer 1
10
1138.565160
20
-32710.009967
11
1148.141509
21
-32716.793176
0
LINE
8
Layer 1
10
1148.141509
20
-32716.793176
11
1158.017380
21
-32723.081242
0
LINE
8
Layer 1
10
1158.017380
20
-32723.081242
11
1168.172953
21
-32728.865901
0
LINE
8
Layer 1
10
1168.172953
20
-32728.865901
11
1178.588409
21
-32734.138889
0
LINE
8
Layer 1
10
1178.588409
20
-32734.138889
11
1189.243928
21
-32738.891942
0
LINE
8
Layer 1
10
1189.243928
20
-32738.891942
11
1200.119691
21
-32743.116796
0
LINE
8
Layer 1
10
1200.119691
20
-32743.116796
11
1211.195877
21
-32746.805186
0
LINE
8
Layer 1
10
1211.195877
20
-32746.805186
11
1222.452667
21
-32749.948849
0
LINE
8
Layer 1
10
1222.452667
20
-32749.948849
11
1233.870243
21
-32752.539519
0
LINE
8
Layer 1
10
1233.870243
20
-32752.539519
11
1245.428783
21
-32754.568934
0
LINE
8
Layer 1
10
1245.428783
20
-32754.568934
11
1257.108469
21
-32756.028828
0
LINE
8
Layer 1
10
1257.108469
20
-32756.028828
11
1268.889481
21
-32756.910939
0
LINE
8
Layer 1
10
1268.889481
20
-32756.910939
11
1280.752000
21
-32757.207000
0
LINE
8
Layer 1
10
11551.900000
20
-29888.000000
11
13100.730000
21
-30024.878000
0
LINE
8
Layer 1
10
22703.900000
20
-29699.500000
11
21153.940000
21
-29834.684000
0
LINE
8
Layer 1
10
21291.600000
20
-31382.700000
11
22839.590000
21
-31248.080000
0
LINE
8
Layer 1
10
22839.600000
20
-31248.100000
11
22703.851000
21
-29699.550000
0
LINE
8
Layer 1
10
21153.900000
20
-29834.700000
11
21291.624000
21
-31382.690000
0
LINE
8
Layer 1
10
30641.600000
20
-24644.100000
11
30641.600000
21
-23089.600000
0
LINE
8
Layer 1
10
1388.480000
20
-32757.100000
11
14586.000000
21
-32757.100000
0
LINE
8
Layer 1
10
32709.500000
20
-28258.500000
11
32709.500000
21
-22494.100000
0
LINE
8
Layer 1
10
30934.300000
20
-22253.900000
11
21570.500000
21
-22253.900000
0
LINE
8
Layer 1
10
1043.890000
20
-22491.900000
11
1043.890000
21
-28264.100000
0
LINE
8
Layer 1
10
1042.760000
20
-32516.900000
11
1043.888890
21
-28264.100000
0
LINE
8
Layer 1
10
32709.500000
20
-28258.500000
11
32709.500000
21
-32519.200000
0
LINE
8
Layer 1
10
30809.600000
20
-23019.600000
11
31572.700000
21
-23019.600000
0
LINE
8
Layer 1
10
31572.700000
20
-23019.600000
11
31572.700000
21
-24995.200000
0
LINE
8
Layer 1
10
31572.700000
20
-24995.200000
11
30809.600000
21
-24995.200000
0
LINE
8
Layer 1
10
30809.600000
20
-24995.200000
11
30809.600000
21
-23019.600000
0
LINE
8
Layer 1
10
28158.400000
20
-24992.900000
11
28158.400000
21
-23017.400000
0
LINE
8
Layer 1
10
28921.800000
20
-24992.900000
11
28158.400000
21
-24992.900000
0
LINE
8
Layer 1
10
28158.400000
20
-23017.400000
11
28921.800000
21
-23017.400000
0
LINE
8
Layer 1
10
28921.800000
20
-23017.400000
11
28921.800000
21
-24992.900000
0
LINE
8
Layer 1
10
23794.900000
20
-31514.800000
11
23622.745000
21
-29549.690000
0
LINE
8
Layer 1
10
23622.800000
20
-29549.700000
11
22865.034000
21
-29617.433300
0
LINE
8
Layer 1
10
22865.000000
20
-29617.400000
11
23036.027000
21
-31584.770000
0
LINE
8
Layer 1
10
23036.000000
20
-31584.800000
11
23794.895000
21
-31514.808900
0
LINE
8
Layer 1
10
20222.800000
20
-29848.300000
11
20393.827000
21
-31815.950000
0
LINE
8
Layer 1
10
20393.900000
20
-31815.900000
11
21152.795000
21
-31745.908900
0
LINE
8
Layer 1
10
20980.600000
20
-29780.800000
11
20222.834000
21
-29848.251100
0
LINE
8
Layer 1
10
21152.800000
20
-31745.900000
11
20980.645000
21
-29780.790000
0
LINE
8
Layer 1
10
13860.700000
20
-32003.900000
11
14033.984000
21
-30037.090000
0
LINE
8
Layer 1
10
14034.000000
20
-30037.100000
11
13275.105000
21
-29970.495600
0
LINE
8
Layer 1
10
13275.100000
20
-29970.500000
11
13100.687000
21
-31939.280000
0
LINE
8
Layer 1
10
13100.700000
20
-31939.200000
11
13860.724000
21
-32003.828800
0
LINE
8
Layer 1
10
10457.400000
20
-31705.800000
11
11217.142000
21
-31770.428800
0
LINE
8
Layer 1
10
11390.700000
20
-29803.900000
11
10631.805000
21
-29737.295600
0
LINE
8
Layer 1
10
10631.800000
20
-29737.300000
11
10457.387000
21
-31705.800000
0
LINE
8
Layer 1
10
11217.100000
20
-31770.500000
11
11390.667000
21
-29803.980000
0
LINE
8
Layer 1
10
12964.900000
20
-31573.800000
11
11416.070000
21
-31437.205000
0
LINE
8
Layer 1
10
32469.600000
20
-32757.200000
11
32481.470522
21
-32757.022892
0
LINE
8
Layer 1
10
32481.470522
20
-32757.022892
11
32493.265318
21
-32756.258395
0
LINE
8
Layer 1
10
32493.265318
20
-32756.258395
11
32504.964460
21
-32754.914588
0
LINE
8
Layer 1
10
32504.964460
20
-32754.914588
11
32516.548020
21
-32752.999551
0
LINE
8
Layer 1
10
32516.548020
20
-32752.999551
11
32527.996071
21
-32750.521363
0
LINE
8
Layer 1
10
32527.996071
20
-32750.521363
11
32539.288684
21
-32747.488105
0
LINE
8
Layer 1
10
32539.288684
20
-32747.488105
11
32550.405932
21
-32743.907855
0
LINE
8
Layer 1
10
32550.405932
20
-32743.907855
11
32561.327887
21
-32739.788694
0
LINE
8
Layer 1
10
32561.327887
20
-32739.788694
11
32572.034620
21
-32735.138700
0
LINE
8
Layer 1
10
32572.034620
20
-32735.138700
11
32582.506205
21
-32729.965954
0
LINE
8
Layer 1
10
32582.506205
20
-32729.965954
11
32592.722713
21
-32724.278534
0
LINE
8
Layer 1
10
32592.722713
20
-32724.278534
11
32602.664216
21
-32718.084522
0
LINE
8
Layer 1
10
32602.664216
20
-32718.084522
11
32612.310786
21
-32711.391995
0
LINE
8
Layer 1
10
32612.310786
20
-32711.391995
11
32621.642496
21
-32704.209034
0
LINE
8
Layer 1
10
32621.642496
20
-32704.209034
11
32630.639418
21
-32696.543718
0
LINE
8
Layer 1
10
32630.639418
20
-32696.543718
11
32639.281624
21
-32688.404128
0
LINE
8
Layer 1
10
32639.281624
20
-32688.404128
11
32647.507236
21
-32679.843756
0
LINE
8
Layer 1
10
32647.507236
20
-32679.843756
11
32655.262144
21
-32670.923943
0
LINE
8
Layer 1
10
32655.262144
20
-32670.923943
11
32662.538070
21
-32661.664535
0
LINE
8
Layer 1
10
32662.538070
20
-32661.664535
11
32669.326735
21
-32652.085377
0
LINE
8
Layer 1
10
32669.326735
20
-32652.085377
11
32675.619861
21
-32642.206316
0
LINE
8
Layer 1
10
32675.619861
20
-32642.206316
11
32681.409168
21
-32632.047197
0
LINE
8
Layer 1
10
32681.409168
20
-32632.047197
11
32686.686380
21
-32621.627868
0
LINE
8
Layer 1
10
32686.686380
20
-32621.627868
11
32691.443216
21
-32610.968173
0
LINE
8
Layer 1
10
32691.443216
20
-32610.968173
11
32695.671400
21
-32600.087959
0
LINE
8
Layer 1
10
32695.671400
20
-32600.087959
11
32699.362651
21
-32589.007073
0
LINE
8
Layer 1
10
32699.362651
20
-32589.007073
11
32702.508692
21
-32577.745359
0
LINE
8
Layer 1
10
32702.508692
20
-32577.745359
11
32705.101245
21
-32566.322665
0
LINE
8
Layer 1
10
32705.101245
20
-32566.322665
11
32707.132031
21
-32554.758835
0
LINE
8
Layer 1
10
32707.132031
20
-32554.758835
11
32708.592771
21
-32543.073717
0
LINE
8
Layer 1
10
32708.592771
20
-32543.073717
11
32709.475187
21
-32531.287157
0
LINE
8
Layer 1
10
32709.475187
20
-32531.287157
11
32709.771000
21
-32519.419000
0
LINE
8
Layer 1
10
32709.800000
20
-22493.900000
11
32709.614507
21
-22482.030851
0
LINE
8
Layer 1
10
32709.614507
20
-22482.030851
11
32708.841801
21
-22470.237821
0
LINE
8
Layer 1
10
32708.841801
20
-22470.237821
11
32707.489972
21
-22458.540827
0
LINE
8
Layer 1
10
32707.489972
20
-22458.540827
11
32705.567111
21
-22446.959783
0
LINE
8
Layer 1
10
32705.567111
20
-22446.959783
11
32703.081307
21
-22435.514607
0
LINE
8
Layer 1
10
32703.081307
20
-22435.514607
11
32700.040652
21
-22424.225216
0
LINE
8
Layer 1
10
32700.040652
20
-22424.225216
11
32696.453236
21
-22413.111525
0
LINE
8
Layer 1
10
32696.453236
20
-22413.111525
11
32692.327149
21
-22402.193450
0
LINE
8
Layer 1
10
32692.327149
20
-22402.193450
11
32687.670482
21
-22391.490908
0
LINE
8
Layer 1
10
32687.670482
20
-22391.490908
11
32682.491325
21
-22381.023816
0
LINE
8
Layer 1
10
32682.491325
20
-22381.023816
11
32676.797769
21
-22370.812089
0
LINE
8
Layer 1
10
32676.797769
20
-22370.812089
11
32670.597903
21
-22360.875645
0
LINE
8
Layer 1
10
32670.597903
20
-22360.875645
11
32663.899819
21
-22351.234398
0
LINE
8
Layer 1
10
32663.899819
20
-22351.234398
11
32656.711607
21
-22341.908266
0
LINE
8
Layer 1
10
32656.711607
20
-22341.908266
11
32649.041357
21
-22332.917166
0
LINE
8
Layer 1
10
32649.041357
20
-22332.917166
11
32640.897160
21
-22324.281012
0
LINE
8
Layer 1
10
32640.897160
20
-22324.281012
11
32632.332533
21
-22316.061629
0
LINE
8
Layer 1
10
32632.332533
20
-22316.061629
11
32623.408828
21
-22308.313072
0
LINE
8
Layer 1
10
32623.408828
20
-22308.313072
11
32614.145892
21
-22301.043606
0
LINE
8
Layer 1
10
32614.145892
20
-22301.043606
11
32604.563568
21
-22294.261494
0
LINE
8
Layer 1
10
32604.563568
20
-22294.261494
11
32594.681703
21
-22287.975001
0
LINE
8
Layer 1
10
32594.681703
20
-22287.975001
11
32584.520139
21
-22282.192392
0
LINE
8
Layer 1
10
32584.520139
20
-22282.192392
11
32574.098723
21
-22276.921930
0
LINE
8
Layer 1
10
32574.098723
20
-22276.921930
11
32563.437299
21
-22272.171879
0
LINE
8
Layer 1
10
32563.437299
20
-22272.171879
11
32552.555711
21
-22267.950504
0
LINE
8
Layer 1
10
32552.555711
20
-22267.950504
11
32541.473806
21
-22264.266070
0
LINE
8
Layer 1
10
32541.473806
20
-22264.266070
11
32530.211427
21
-22261.126839
0
LINE
8
Layer 1
10
32530.211427
20
-22261.126839
11
32518.788419
21
-22258.541077
0
LINE
8
Layer 1
10
32518.788419
20
-22258.541077
11
32507.224628
21
-22256.517048
0
LINE
8
Layer 1
10
32507.224628
20
-22256.517048
11
32495.539898
21
-22255.063016
0
LINE
8
Layer 1
10
32495.539898
20
-22255.063016
11
32483.754074
21
-22254.187245
0
LINE
8
Layer 1
10
32483.754074
20
-22254.187245
11
32471.887000
21
-22253.898000
0
LINE
8
Layer 1
10
29087.200000
20
-23089.600000
11
29087.200000
21
-24644.100000
0
LINE
8
Layer 1
10
13100.700000
20
-30024.900000
11
12964.951000
21
-31573.730000
0
LINE
8
Layer 1
10
1284.090000
20
-22253.900000
11
1272.225397
21
-22254.085311
0
LINE
8
Layer 1
10
1272.225397
20
-22254.085311
11
1260.436824
21
-22254.857389
0
LINE
8
Layer 1
10
1260.436824
20
-22254.857389
11
1248.744175
21
-22256.208157
0
LINE
8
Layer 1
10
1248.744175
20
-22256.208157
11
1237.167345
21
-22258.129537
0
LINE
8
Layer 1
10
1237.167345
20
-22258.129537
11
1225.726229
21
-22260.613449
0
LINE
8
Layer 1
10
1225.726229
20
-22260.613449
11
1214.440724
21
-22263.651815
0
LINE
8
Layer 1
10
1214.440724
20
-22263.651815
11
1203.330722
21
-22267.236558
0
LINE
8
Layer 1
10
1203.330722
20
-22267.236558
11
1192.416121
21
-22271.359598
0
LINE
8
Layer 1
10
1192.416121
20
-22271.359598
11
1181.716814
21
-22276.012857
0
LINE
8
Layer 1
10
1181.716814
20
-22276.012857
11
1171.252698
21
-22281.188257
0
LINE
8
Layer 1
10
1171.252698
20
-22281.188257
11
1161.043666
21
-22286.877720
0
LINE
8
Layer 1
10
1161.043666
20
-22286.877720
11
1151.109615
21
-22293.073167
0
LINE
8
Layer 1
10
1151.109615
20
-22293.073167
11
1141.470439
21
-22299.766520
0
LINE
8
Layer 1
10
1141.470439
20
-22299.766520
11
1132.146033
21
-22306.949700
0
LINE
8
Layer 1
10
1132.146033
20
-22306.949700
11
1123.156292
21
-22314.614629
0
LINE
8
Layer 1
10
1123.156292
20
-22314.614629
11
1114.521112
21
-22322.753229
0
LINE
8
Layer 1
10
1114.521112
20
-22322.753229
11
1106.302260
21
-22331.312060
0
LINE
8
Layer 1
10
1106.302260
20
-22331.312060
11
1098.553748
21
-22340.229859
0
LINE
8
Layer 1
10
1098.553748
20
-22340.229859
11
1091.283840
21
-22349.486805
0
LINE
8
Layer 1
10
1091.283840
20
-22349.486805
11
1084.500800
21
-22359.063081
0
LINE
8
Layer 1
10
1084.500800
20
-22359.063081
11
1078.212891
21
-22368.938866
0
LINE
8
Layer 1
10
1078.212891
20
-22368.938866
11
1072.428377
21
-22379.094343
0
LINE
8
Layer 1
10
1072.428377
20
-22379.094343
11
1067.155522
21
-22389.509693
0
LINE
8
Layer 1
10
1067.155522
20
-22389.509693
11
1062.402590
21
-22400.165096
0
LINE
8
Layer 1
10
1062.402590
20
-22400.165096
11
1058.177844
21
-22411.040735
0
LINE
8
Layer 1
10
1058.177844
20
-22411.040735
11
1054.489549
21
-22422.116789
0
LINE
8
Layer 1
10
1054.489549
20
-22422.116789
11
1051.345968
21
-22433.373441
0
LINE
8
Layer 1
10
1051.345968
20
-22433.373441
11
1048.755364
21
-22444.790871
0
LINE
8
Layer 1
10
1048.755364
20
-22444.790871
11
1046.726001
21
-22456.349261
0
LINE
8
Layer 1
10
1046.726001
20
-22456.349261
11
1045.266144
21
-22468.028791
0
LINE
8
Layer 1
10
1045.266144
20
-22468.028791
11
1044.384056
21
-22479.809644
0
LINE
8
Layer 1
10
1044.384056
20
-22479.809644
11
1044.088000
21
-22491.672000
0
LINE
8
Layer 1
10
30641.600000
20
-23089.600000
11
29087.200000
21
-23089.600000
0
LINE
8
Layer 1
10
29087.200000
20
-24644.100000
11
30641.600000
21
-24644.100000
0
LINE
8
Layer 1
10
97.144900
20
332.261000
11
97.144900
21
334.888000
0
LINE
8
Layer 1
10
93.547700
20
332.261000
11
97.144900
21
332.261000
0
LINE
8
Layer 1
10
93.547700
20
334.888000
11
93.547700
21
332.261000
0
LINE
8
Layer 1
10
142.447000
20
308.209000
11
169.839000
21
308.209000
0
LINE
8
Layer 1
10
125.319000
20
308.209000
11
142.447000
21
308.209000
0
LINE
8
Layer 1
10
90.915500
20
308.209000
11
91.190051
21
308.210439
0
LINE
8
Layer 1
10
169.839000
20
308.209000
11
170.135000
21
308.209000
0
LINE
8
Layer 1
10
90.311800
20
308.820000
11
90.486687
21
308.389296
0
LINE
8
Layer 1
10
90.486687
20
308.389296
11
90.915741
21
308.210396
0
LINE
8
Layer 1
10
91.190000
20
308.211000
11
125.318900
21
308.209561
0
LINE
8
Layer 1
10
170.745000
20
319.637000
11
170.745000
21
334.278000
0
LINE
8
Layer 1
10
166.236000
20
334.888000
11
97.144900
21
334.888000
0
LINE
8
Layer 1
10
90.314100
20
334.284000
11
90.314100
21
319.622000
0
LINE
8
Layer 1
10
90.311200
20
308.819000
11
90.314079
21
319.621800
0
LINE
8
Layer 1
10
170.745000
20
319.637000
11
170.745000
21
308.814000
0
LINE
8
Layer 1
10
170.135000
20
308.210000
11
170.565983
21
308.384733
0
LINE
8
Layer 1
10
170.565983
20
308.384733
11
170.745034
21
308.813941
0
LINE
8
Layer 1
10
170.745000
20
334.279000
11
170.569884
21
334.709646
0
LINE
8
Layer 1
10
170.569884
20
334.709646
11
170.140701
21
334.888317
0
LINE
8
Layer 1
10
90.924200
20
334.888000
11
90.493624
21
334.713238
0
LINE
8
Layer 1
10
90.493624
20
334.713238
11
90.314598
21
334.284417
0
LINE
8
Layer 1
10
170.141000
20
334.888000
11
169.745302
21
334.893018
0
LINE
8
Layer 1
10
168.785000
20
334.893000
11
166.235900
21
334.887982
0
LINE
8
Layer 1
10
97.523400
20
322.028000
11
98.207900
21
322.028000
0
LINE
8
Layer 1
10
98.207900
20
322.028000
11
98.207900
21
320.867000
0
LINE
8
Layer 1
10
98.207900
20
320.867000
11
97.523400
21
320.867000
0
LINE
8
Layer 1
10
97.523400
20
320.867000
11
97.523400
21
322.028000
0
LINE
8
Layer 1
10
169.745000
20
334.893000
11
168.785000
21
334.893000
0
LINE
8
Layer 1
10
90.924100
20
334.888000
11
93.547700
21
334.888000
0
LINE
8
Layer 1
10
36.998300
20
290.348000
11
42.239800
21
290.348000
0
LINE
8
Layer 1
10
42.239800
20
274.187000
11
42.239800
21
290.348000
0
LINE
8
Layer 1
10
36.998300
20
274.187000
11
42.239800
21
274.187000
0
LINE
8
Layer 1
10
36.998300
20
290.348000
11
36.998300
21
274.187000
0
LINE
8
Layer 1
10
10.277200
20
285.498000
11
10.277200
21
291.150000
0
LINE
8
Layer 1
10
4.043510
20
285.498000
11
10.277200
21
285.498000
0
LINE
8
Layer 1
10
4.043510
20
291.150000
11
4.043510
21
285.498000
0
LINE
8
Layer 1
10
2.594050
20
291.150000
11
4.043510
21
291.150000
0
LINE
8
Layer 1
10
81.415300
20
291.155000
11
80.454800
21
291.155000
0
LINE
8
Layer 1
10
9.193320
20
277.129000
11
9.193320
21
278.290000
0
LINE
8
Layer 1
10
9.877900
20
277.129000
11
9.193320
21
277.129000
0
LINE
8
Layer 1
10
9.877900
20
278.290000
11
9.877900
21
277.129000
0
LINE
8
Layer 1
10
9.193320
20
278.290000
11
9.877900
21
278.290000
0
LINE
8
Layer 1
10
79.849000
20
291.150000
11
77.905700
21
291.150000
0
LINE
8
Layer 1
10
81.811000
20
291.150000
11
81.415302
21
291.155024
0
LINE
8
Layer 1
10
2.594120
20
291.150000
11
2.163417
21
290.975112
0
LINE
8
Layer 1
10
2.163417
20
290.975112
11
1.984518
21
290.546059
0
LINE
8
Layer 1
10
82.415300
20
290.541000
11
82.240287
21
290.971832
0
LINE
8
Layer 1
10
82.240287
20
290.971832
11
81.811001
21
291.150605
0
LINE
8
Layer 1
10
81.805300
20
264.472000
11
82.236283
21
264.646733
0
LINE
8
Layer 1
10
82.236283
20
264.646733
11
82.415334
21
265.075941
0
LINE
8
Layer 1
10
82.414600
20
275.899000
11
82.414600
21
265.076000
0
LINE
8
Layer 1
10
1.981150
20
265.081000
11
1.984029
21
275.883800
0
LINE
8
Layer 1
10
1.984020
20
290.546000
11
1.984020
21
275.884000
0
LINE
8
Layer 1
10
77.905700
20
291.150000
11
10.277200
21
291.150000
0
LINE
8
Layer 1
10
82.414600
20
275.899000
11
82.414600
21
290.540000
0
LINE
8
Layer 1
10
3.465730
20
264.473000
11
36.383200
21
264.473000
0
LINE
8
Layer 1
10
1.981720
20
265.081000
11
2.156608
21
264.650297
0
LINE
8
Layer 1
10
2.156608
20
264.650297
11
2.585661
21
264.471398
0
LINE
8
Layer 1
10
81.508500
20
264.471000
11
81.805300
21
264.471000
0
LINE
8
Layer 1
10
2.585450
20
264.471000
11
2.860001
21
264.472411
0
LINE
8
Layer 1
10
36.988900
20
264.471000
11
54.116500
21
264.471000
0
LINE
8
Layer 1
10
54.723700
20
264.471000
11
80.902100
21
264.471000
0
LINE
8
Layer 1
10
80.454800
20
291.155000
11
79.849067
21
291.149976
0
LINE
8
Layer 1
10
79.849067
20
291.149976
11
79.849000
21
291.150000
0
LINE
8
Layer 1
10
81.508500
20
264.471000
11
80.902100
21
264.471000
0
LINE
8
Layer 1
10
80.902100
20
264.471000
11
80.902100
21
264.471000
0
LINE
8
Layer 1
10
80.902100
20
264.471000
11
80.902100
21
264.471000
0
LINE
8
Layer 1
10
54.723700
20
264.471000
11
54.116500
21
264.471000
0
LINE
8
Layer 1
10
36.988900
20
264.471000
11
36.383167
21
264.472411
0
LINE
8
Layer 1
10
3.465730
20
264.473000
11
2.859997
21
264.472977
 0 
ENDSEC
 0 
EOF