999
"DXF R12 Output" (www.mydxf.blogspot.com)
 0 
SECTION
 2 
HEADER
 9 
$ACADVER
 1 
AC1009
 9 
$EXTMIN
 10 
 0 
 20 
 0 
 9 
$EXTMAX
 10 
 8.5 
 20 
 11 
 0 
ENDSEC
 0 
SECTION
 2 
ENTITIES
0
LINE
8
Layer 1
10
33859.900000
20
-4375.010000
11
33656.100000
21
-4375.010000
0
LINE
8
Layer 1
10
33656.100000
20
-4091.090000
11
33656.100000
21
-4374.440000
0
LINE
8
Layer 1
10
32553.700000
20
-4091.090000
11
33656.100000
21
-4091.090000
0
LINE
8
Layer 1
10
32553.700000
20
-4375.010000
11
32553.700000
21
-4091.090000
0
LINE
8
Layer 1
10
31379.100000
20
-6541.910000
11
31447.962200
21
-6487.723400
0
LINE
8
Layer 1
10
31338.500000
20
-6491.110000
11
31372.931100
21
-6436.923400
0
LINE
8
Layer 1
10
35683.300000
20
-14043.100000
11
35695.157197
21
-14042.909352
0
LINE
8
Layer 1
10
35695.157197
20
-14042.909352
11
35706.938230
21
-14042.132688
0
LINE
8
Layer 1
10
35706.938230
20
-14042.132688
11
35718.623243
21
-14040.778078
0
LINE
8
Layer 1
10
35718.623243
20
-14040.778078
11
35730.192379
21
-14038.853589
0
LINE
8
Layer 1
10
35730.192379
20
-14038.853589
11
35741.625779
21
-14036.367291
0
LINE
8
Layer 1
10
35741.625779
20
-14036.367291
11
35752.903588
21
-14033.327250
0
LINE
8
Layer 1
10
35752.903588
20
-14033.327250
11
35764.005947
21
-14029.741537
0
LINE
8
Layer 1
10
35764.005947
20
-14029.741537
11
35774.913001
21
-14025.618218
0
LINE
8
Layer 1
10
35774.913001
20
-14025.618218
11
35785.604890
21
-14020.965364
0
LINE
8
Layer 1
10
35785.604890
20
-14020.965364
11
35796.061760
21
-14015.791042
0
LINE
8
Layer 1
10
35796.061760
20
-14015.791042
11
35806.263751
21
-14010.103320
0
LINE
8
Layer 1
10
35806.263751
20
-14010.103320
11
35816.191008
21
-14003.910267
0
LINE
8
Layer 1
10
35816.191008
20
-14003.910267
11
35825.823673
21
-13997.219952
0
LINE
8
Layer 1
10
35825.823673
20
-13997.219952
11
35835.141889
21
-13990.040443
0
LINE
8
Layer 1
10
35835.141889
20
-13990.040443
11
35844.125798
21
-13982.379808
0
LINE
8
Layer 1
10
35844.125798
20
-13982.379808
11
35852.755544
21
-13974.246116
0
LINE
8
Layer 1
10
35852.755544
20
-13974.246116
11
35860.969476
21
-13965.692708
0
LINE
8
Layer 1
10
35860.969476
20
-13965.692708
11
35868.713679
21
-13956.780735
0
LINE
8
Layer 1
10
35868.713679
20
-13956.780735
11
35875.979900
21
-13947.529976
0
LINE
8
Layer 1
10
35875.979900
20
-13947.529976
11
35882.759884
21
-13937.960213
0
LINE
8
Layer 1
10
35882.759884
20
-13937.960213
11
35889.045379
21
-13928.091227
0
LINE
8
Layer 1
10
35889.045379
20
-13928.091227
11
35894.828131
21
-13917.942799
0
LINE
8
Layer 1
10
35894.828131
20
-13917.942799
11
35900.099886
21
-13907.534710
0
LINE
8
Layer 1
10
35900.099886
20
-13907.534710
11
35904.852391
21
-13896.886740
0
LINE
8
Layer 1
10
35904.852391
20
-13896.886740
11
35909.077393
21
-13886.018671
0
LINE
8
Layer 1
10
35909.077393
20
-13886.018671
11
35912.766637
21
-13874.950283
0
LINE
8
Layer 1
10
35912.766637
20
-13874.950283
11
35915.911870
21
-13863.701358
0
LINE
8
Layer 1
10
35915.911870
20
-13863.701358
11
35918.504839
21
-13852.291676
0
LINE
8
Layer 1
10
35918.504839
20
-13852.291676
11
35920.537290
21
-13840.741018
0
LINE
8
Layer 1
10
35920.537290
20
-13840.741018
11
35922.000969
21
-13829.069166
0
LINE
8
Layer 1
10
35922.000969
20
-13829.069166
11
35922.887624
21
-13817.295899
0
LINE
8
Layer 1
10
35922.887624
20
-13817.295899
11
35923.189000
21
-13805.441000
0
LINE
8
Layer 1
10
4494.390000
20
-14043.100000
11
35683.000000
21
-14043.100000
0
LINE
8
Layer 1
10
4256.670000
20
-13803.100000
11
4256.853765
21
-13814.960992
0
LINE
8
Layer 1
10
4256.853765
20
-13814.960992
11
4257.623951
21
-13826.746096
0
LINE
8
Layer 1
10
4257.623951
20
-13826.746096
11
4258.972491
21
-13838.435432
0
LINE
8
Layer 1
10
4258.972491
20
-13838.435432
11
4260.891320
21
-13850.009122
0
LINE
8
Layer 1
10
4260.891320
20
-13850.009122
11
4263.372371
21
-13861.447286
0
LINE
8
Layer 1
10
4263.372371
20
-13861.447286
11
4266.407577
21
-13872.730045
0
LINE
8
Layer 1
10
4266.407577
20
-13872.730045
11
4269.988872
21
-13883.837521
0
LINE
8
Layer 1
10
4269.988872
20
-13883.837521
11
4274.108190
21
-13894.749833
0
LINE
8
Layer 1
10
4274.108190
20
-13894.749833
11
4278.757465
21
-13905.447103
0
LINE
8
Layer 1
10
4278.757465
20
-13905.447103
11
4283.928629
21
-13915.909452
0
LINE
8
Layer 1
10
4283.928629
20
-13915.909452
11
4289.613617
21
-13926.117001
0
LINE
8
Layer 1
10
4289.613617
20
-13926.117001
11
4295.804361
21
-13936.049870
0
LINE
8
Layer 1
10
4295.804361
20
-13936.049870
11
4302.492796
21
-13945.688181
0
LINE
8
Layer 1
10
4302.492796
20
-13945.688181
11
4309.670856
21
-13955.012054
0
LINE
8
Layer 1
10
4309.670856
20
-13955.012054
11
4317.330473
21
-13964.001610
0
LINE
8
Layer 1
10
4317.330473
20
-13964.001610
11
4325.463582
21
-13972.636970
0
LINE
8
Layer 1
10
4325.463582
20
-13972.636970
11
4334.016813
21
-13980.856407
0
LINE
8
Layer 1
10
4334.016813
20
-13980.856407
11
4342.928979
21
-13988.605933
0
LINE
8
Layer 1
10
4342.928979
20
-13988.605933
11
4352.180281
21
-13995.877284
0
LINE
8
Layer 1
10
4352.180281
20
-13995.877284
11
4361.750923
21
-14002.662194
0
LINE
8
Layer 1
10
4361.750923
20
-14002.662194
11
4371.621108
21
-14008.952398
0
LINE
8
Layer 1
10
4371.621108
20
-14008.952398
11
4381.771039
21
-14014.739629
0
LINE
8
Layer 1
10
4381.771039
20
-14014.739629
11
4392.180918
21
-14020.015621
0
LINE
8
Layer 1
10
4392.180918
20
-14020.015621
11
4402.830949
21
-14024.772110
0
LINE
8
Layer 1
10
4402.830949
20
-14024.772110
11
4413.701334
21
-14029.000829
0
LINE
8
Layer 1
10
4413.701334
20
-14029.000829
11
4424.772277
21
-14032.693513
0
LINE
8
Layer 1
10
4424.772277
20
-14032.693513
11
4436.023980
21
-14035.841896
0
LINE
8
Layer 1
10
4436.023980
20
-14035.841896
11
4447.436646
21
-14038.437713
0
LINE
8
Layer 1
10
4447.436646
20
-14038.437713
11
4458.990478
21
-14040.472697
0
LINE
8
Layer 1
10
4458.990478
20
-14040.472697
11
4470.665679
21
-14041.938584
0
LINE
8
Layer 1
10
4470.665679
20
-14041.938584
11
4482.442452
21
-14042.827107
0
LINE
8
Layer 1
10
4482.442452
20
-14042.827107
11
4494.301000
21
-14043.130000
0
LINE
8
Layer 1
10
4256.470000
20
-13802.900000
11
4257.598890
21
-9549.530000
0
LINE
8
Layer 1
10
4257.600000
20
-3777.540000
11
4257.600000
21
-9549.550000
0
LINE
8
Layer 1
10
4497.770000
20
-3539.770000
11
4485.909941
21
-3539.955125
0
LINE
8
Layer 1
10
4485.909941
20
-3539.955125
11
4474.125821
21
-3540.726572
0
LINE
8
Layer 1
10
4474.125821
20
-3540.726572
11
4462.437514
21
-3542.076276
0
LINE
8
Layer 1
10
4462.437514
20
-3542.076276
11
4450.864895
21
-3543.996171
0
LINE
8
Layer 1
10
4450.864895
20
-3543.996171
11
4439.427837
21
-3546.478189
0
LINE
8
Layer 1
10
4439.427837
20
-3546.478189
11
4428.146213
21
-3549.514265
0
LINE
8
Layer 1
10
4428.146213
20
-3549.514265
11
4417.039899
21
-3553.096333
0
LINE
8
Layer 1
10
4417.039899
20
-3553.096333
11
4406.128768
21
-3557.216325
0
LINE
8
Layer 1
10
4406.128768
20
-3557.216325
11
4395.432694
21
-3561.866176
0
LINE
8
Layer 1
10
4395.432694
20
-3561.866176
11
4384.971551
21
-3567.037820
0
LINE
8
Layer 1
10
4384.971551
20
-3567.037820
11
4374.765212
21
-3572.723189
0
LINE
8
Layer 1
10
4374.765212
20
-3572.723189
11
4364.833551
21
-3578.914218
0
LINE
8
Layer 1
10
4364.833551
20
-3578.914218
11
4355.196443
21
-3585.602840
0
LINE
8
Layer 1
10
4355.196443
20
-3585.602840
11
4345.873762
21
-3592.780989
0
LINE
8
Layer 1
10
4345.873762
20
-3592.780989
11
4336.885381
21
-3600.440598
0
LINE
8
Layer 1
10
4336.885381
20
-3600.440598
11
4328.251174
21
-3608.573602
0
LINE
8
Layer 1
10
4328.251174
20
-3608.573602
11
4320.032851
21
-3617.126640
0
LINE
8
Layer 1
10
4320.032851
20
-3617.126640
11
4312.284384
21
-3626.038535
0
LINE
8
Layer 1
10
4312.284384
20
-3626.038535
11
4305.014034
21
-3635.289493
0
LINE
8
Layer 1
10
4305.014034
20
-3635.289493
11
4298.230066
21
-3644.859722
0
LINE
8
Layer 1
10
4298.230066
20
-3644.859722
11
4291.940742
21
-3654.729429
0
LINE
8
Layer 1
10
4291.940742
20
-3654.729429
11
4286.154325
21
-3664.878821
0
LINE
8
Layer 1
10
4286.154325
20
-3664.878821
11
4280.879080
21
-3675.288106
0
LINE
8
Layer 1
10
4280.879080
20
-3675.288106
11
4276.123269
21
-3685.937490
0
LINE
8
Layer 1
10
4276.123269
20
-3685.937490
11
4271.895155
21
-3696.807180
0
LINE
8
Layer 1
10
4271.895155
20
-3696.807180
11
4268.203002
21
-3707.877385
0
LINE
8
Layer 1
10
4268.203002
20
-3707.877385
11
4265.055073
21
-3719.128310
0
LINE
8
Layer 1
10
4265.055073
20
-3719.128310
11
4262.459631
21
-3730.540163
0
LINE
8
Layer 1
10
4262.459631
20
-3730.540163
11
4260.424939
21
-3742.093152
0
LINE
8
Layer 1
10
4260.424939
20
-3742.093152
11
4258.959262
21
-3753.767483
0
LINE
8
Layer 1
10
4258.959262
20
-3753.767483
11
4258.070861
21
-3765.543363
0
LINE
8
Layer 1
10
4258.070861
20
-3765.543363
11
4257.768000
21
-3777.401000
0
LINE
8
Layer 1
10
4599.940000
20
-3539.630000
11
4497.770000
21
-3539.630000
0
LINE
8
Layer 1
10
18036.500000
20
-3539.630000
11
4599.940000
21
-3539.630000
0
LINE
8
Layer 1
10
25018.700000
20
-3539.630000
11
18036.500000
21
-3539.630000
0
LINE
8
Layer 1
10
35564.200000
20
-3539.630000
11
25018.700000
21
-3539.630000
0
LINE
8
Layer 1
10
35685.300000
20
-3539.630000
11
35564.200000
21
-3539.630000
0
LINE
8
Layer 1
10
35923.200000
20
-3779.770000
11
35923.014875
21
-3767.909941
0
LINE
8
Layer 1
10
35923.014875
20
-3767.909941
11
35922.243428
21
-3756.125821
0
LINE
8
Layer 1
10
35922.243428
20
-3756.125821
11
35920.893724
21
-3744.437514
0
LINE
8
Layer 1
10
35920.893724
20
-3744.437514
11
35918.973829
21
-3732.864895
0
LINE
8
Layer 1
10
35918.973829
20
-3732.864895
11
35916.491811
21
-3721.427837
0
LINE
8
Layer 1
10
35916.491811
20
-3721.427837
11
35913.455735
21
-3710.146213
0
LINE
8
Layer 1
10
35913.455735
20
-3710.146213
11
35909.873667
21
-3699.039899
0
LINE
8
Layer 1
10
35909.873667
20
-3699.039899
11
35905.753675
21
-3688.128768
0
LINE
8
Layer 1
10
35905.753675
20
-3688.128768
11
35901.103824
21
-3677.432694
0
LINE
8
Layer 1
10
35901.103824
20
-3677.432694
11
35895.932180
21
-3666.971551
0
LINE
8
Layer 1
10
35895.932180
20
-3666.971551
11
35890.246811
21
-3656.765212
0
LINE
8
Layer 1
10
35890.246811
20
-3656.765212
11
35884.055782
21
-3646.833551
0
LINE
8
Layer 1
10
35884.055782
20
-3646.833551
11
35877.367160
21
-3637.196443
0
LINE
8
Layer 1
10
35877.367160
20
-3637.196443
11
35870.189011
21
-3627.873762
0
LINE
8
Layer 1
10
35870.189011
20
-3627.873762
11
35862.529402
21
-3618.885381
0
LINE
8
Layer 1
10
35862.529402
20
-3618.885381
11
35854.396398
21
-3610.251174
0
LINE
8
Layer 1
10
35854.396398
20
-3610.251174
11
35845.843360
21
-3602.032851
0
LINE
8
Layer 1
10
35845.843360
20
-3602.032851
11
35836.931465
21
-3594.284384
0
LINE
8
Layer 1
10
35836.931465
20
-3594.284384
11
35827.680507
21
-3587.014034
0
LINE
8
Layer 1
10
35827.680507
20
-3587.014034
11
35818.110278
21
-3580.230066
0
LINE
8
Layer 1
10
35818.110278
20
-3580.230066
11
35808.240571
21
-3573.940742
0
LINE
8
Layer 1
10
35808.240571
20
-3573.940742
11
35798.091179
21
-3568.154325
0
LINE
8
Layer 1
10
35798.091179
20
-3568.154325
11
35787.681894
21
-3562.879080
0
LINE
8
Layer 1
10
35787.681894
20
-3562.879080
11
35777.032510
21
-3558.123269
0
LINE
8
Layer 1
10
35777.032510
20
-3558.123269
11
35766.162820
21
-3553.895155
0
LINE
8
Layer 1
10
35766.162820
20
-3553.895155
11
35755.092615
21
-3550.203002
0
LINE
8
Layer 1
10
35755.092615
20
-3550.203002
11
35743.841690
21
-3547.055073
0
LINE
8
Layer 1
10
35743.841690
20
-3547.055073
11
35732.429837
21
-3544.459631
0
LINE
8
Layer 1
10
35732.429837
20
-3544.459631
11
35720.876848
21
-3542.424939
0
LINE
8
Layer 1
10
35720.876848
20
-3542.424939
11
35709.202517
21
-3540.959262
0
LINE
8
Layer 1
10
35709.202517
20
-3540.959262
11
35697.426637
21
-3540.070861
0
LINE
8
Layer 1
10
35697.426637
20
-3540.070861
11
35685.569000
21
-3539.768000
0
LINE
8
Layer 1
10
35923.200000
20
-9544.180000
11
35923.200000
21
-3779.520000
0
LINE
8
Layer 1
10
35923.200000
20
-9544.180000
11
35923.200000
21
-13805.200000
0
LINE
8
Layer 1
10
20106.100000
20
-3872.090000
11
18018.700000
21
-3872.090000
0
LINE
8
Layer 1
10
20106.100000
20
-7674.740000
11
20106.100000
21
-3872.090000
0
LINE
8
Layer 1
10
19758.400000
20
-7674.740000
11
20106.100000
21
-7674.740000
0
LINE
8
Layer 1
10
19758.400000
20
-10217.600000
11
19758.400000
21
-7674.740000
0
LINE
8
Layer 1
10
18268.200000
20
-10217.600000
11
19758.400000
21
-10217.600000
0
LINE
8
Layer 1
10
18371.000000
20
-7679.820000
11
18370.435556
21
-9364.120000
0
LINE
8
Layer 1
10
18018.700000
20
-7679.820000
11
18371.000000
21
-7679.820000
0
LINE
8
Layer 1
10
18018.700000
20
-3872.090000
11
18018.700000
21
-7679.820000
0
LINE
8
Layer 1
10
7229.960000
20
-4161.080000
11
6950.000000
21
-4161.080000
0
LINE
8
Layer 1
10
7229.960000
20
-3607.360000
11
7229.960000
21
-4161.080000
0
LINE
8
Layer 1
10
6950.000000
20
-3607.360000
11
7229.960000
21
-3607.360000
0
LINE
8
Layer 1
10
6950.000000
20
-4161.080000
11
6950.000000
21
-3607.360000
0
LINE
8
Layer 1
10
5247.070000
20
-4162.210000
11
5247.070000
21
-3608.490000
0
LINE
8
Layer 1
10
5527.040000
20
-4162.210000
11
5247.070000
21
-4162.210000
0
LINE
8
Layer 1
10
5527.040000
20
-3608.490000
11
5527.040000
21
-4162.210000
0
LINE
8
Layer 1
10
5247.070000
20
-3608.490000
11
5527.040000
21
-3608.490000
0
LINE
8
Layer 1
10
7394.220000
20
-9005.700000
11
7066.270000
21
-9005.700000
0
LINE
8
Layer 1
10
7066.270000
20
-9357.350000
11
7394.220000
21
-9357.350000
0
LINE
8
Layer 1
10
7066.270000
20
-9005.700000
11
7066.270000
21
-9357.350000
0
LINE
8
Layer 1
10
7394.220000
20
-9357.350000
11
7394.220000
21
-9005.700000
0
LINE
8
Layer 1
10
7397.600000
20
-8261.200000
11
7069.660000
21
-8261.200000
0
LINE
8
Layer 1
10
7397.600000
20
-8612.850000
11
7397.600000
21
-8261.200000
0
LINE
8
Layer 1
10
7069.660000
20
-8612.850000
11
7397.600000
21
-8612.850000
0
LINE
8
Layer 1
10
7069.660000
20
-8261.200000
11
7069.660000
21
-8612.850000
0
LINE
8
Layer 1
10
27417.900000
20
-6603.430000
11
27137.936000
21
-6616.976700
0
LINE
8
Layer 1
10
28186.100000
20
-6313.310000
11
28205.291100
21
-6534.008000
0
LINE
8
Layer 1
10
27137.900000
20
-6616.980000
11
27123.788900
21
-6419.425000
0
LINE
8
Layer 1
10
27123.800000
20
-6419.420000
11
28186.080000
21
-6313.305000
0
LINE
8
Layer 1
10
28168.000000
20
-6215.090000
11
27102.330000
21
-6316.125000
0
LINE
8
Layer 1
10
28147.100000
20
-5976.330000
11
28167.984400
21
-6215.090000
0
LINE
8
Layer 1
10
27102.300000
20
-6316.130000
11
27084.237800
21
-6068.904000
0
LINE
8
Layer 1
10
28391.500000
20
-5954.320000
11
28147.096000
21
-5976.333300
0
LINE
8
Layer 1
10
25091.200000
20
-6804.370000
11
25077.088900
21
-6606.815000
0
LINE
8
Layer 1
10
26139.400000
20
-6500.700000
11
26158.591100
21
-6714.060000
0
LINE
8
Layer 1
10
25308.000000
20
-6788.570000
11
25091.254000
21
-6804.374400
0
LINE
8
Layer 1
10
25077.100000
20
-6606.820000
11
26139.380000
21
-6500.705000
0
LINE
8
Layer 1
10
25048.900000
20
-6500.140000
11
25030.837800
21
-6248.398000
0
LINE
8
Layer 1
10
26093.700000
20
-6155.260000
11
26114.584400
21
-6399.100000
0
LINE
8
Layer 1
10
26114.600000
20
-6399.100000
11
25048.930000
21
-6500.135000
0
LINE
8
Layer 1
10
26282.200000
20
-6138.890000
11
26093.676000
21
-6155.258900
0
LINE
8
Layer 1
10
23199.800000
20
-6972.580000
11
22976.280000
21
-6993.464400
0
LINE
8
Layer 1
10
22962.100000
20
-6795.910000
11
24024.380000
21
-6689.795000
0
LINE
8
Layer 1
10
24024.400000
20
-6689.790000
11
24041.897800
21
-6892.425000
0
LINE
8
Layer 1
10
22976.300000
20
-6993.460000
11
22962.188900
21
-6795.905000
0
LINE
8
Layer 1
10
23979.800000
20
-6583.110000
11
22914.130000
21
-6684.145000
0
LINE
8
Layer 1
10
23959.000000
20
-6342.660000
11
23979.884400
21
-6583.113000
0
LINE
8
Layer 1
10
24174.000000
20
-6324.030000
11
23958.947000
21
-6342.656700
0
LINE
8
Layer 1
10
22914.200000
20
-6684.150000
11
22896.702200
21
-6435.795000
0
LINE
8
Layer 1
10
22066.900000
20
-6531.750000
11
22349.122000
21
-6503.527800
0
LINE
8
Layer 1
10
21301.000000
20
-6807.190000
11
21285.195600
21
-6578.590000
0
LINE
8
Layer 1
10
22349.200000
20
-6503.520000
11
22366.697800
21
-6706.155000
0
LINE
8
Layer 1
10
22366.700000
20
-6706.160000
11
21301.030000
21
-6807.195000
0
LINE
8
Layer 1
10
21299.900000
20
-6877.750000
11
22362.180000
21
-6771.635000
0
LINE
8
Layer 1
10
21314.000000
20
-7075.310000
11
21299.888900
21
-6877.755000
0
LINE
8
Layer 1
10
22362.100000
20
-6771.630000
11
22379.597800
21
-6974.265000
0
LINE
8
Layer 1
10
22379.600000
20
-6974.270000
11
21313.930000
21
-7075.305000
0
LINE
8
Layer 1
10
26968.600000
20
-10854.300000
11
26954.488900
21
-10656.745000
0
LINE
8
Layer 1
10
28016.700000
20
-10550.600000
11
28034.197800
21
-10753.235000
0
LINE
8
Layer 1
10
28034.200000
20
-10753.200000
11
26968.530000
21
-10854.235000
0
LINE
8
Layer 1
10
26954.500000
20
-10656.700000
11
28016.780000
21
-10550.585000
0
LINE
8
Layer 1
10
26930.800000
20
-10588.400000
11
26916.688900
21
-10390.845000
0
LINE
8
Layer 1
10
27978.900000
20
-10284.700000
11
27996.397800
21
-10487.335000
0
LINE
8
Layer 1
10
27996.400000
20
-10487.400000
11
26930.730000
21
-10588.435000
0
LINE
8
Layer 1
10
26916.600000
20
-10390.800000
11
27978.880000
21
-10284.685000
0
LINE
8
Layer 1
10
24811.800000
20
-10741.900000
11
24795.995600
21
-10518.945000
0
LINE
8
Layer 1
10
25860.000000
20
-10438.300000
11
25877.497800
21
-10640.935000
0
LINE
8
Layer 1
10
25594.700000
20
-10449.000000
11
25859.989000
21
-10438.275600
0
LINE
8
Layer 1
10
25877.500000
20
-10640.900000
11
24811.830000
21
-10741.935000
0
LINE
8
Layer 1
10
21675.200000
20
-11113.300000
11
21698.906600
21
-11065.886700
0
LINE
8
Layer 1
10
22737.500000
20
-11007.200000
11
22754.997800
21
-11209.835000
0
LINE
8
Layer 1
10
21692.700000
20
-11354.400000
11
21675.202200
21
-11113.382000
0
LINE
8
Layer 1
10
22755.000000
20
-11209.900000
11
22478.987000
21
-11237.557800
0
LINE
8
Layer 1
10
22741.400000
20
-10698.500000
11
22764.542200
21
-10964.918000
0
LINE
8
Layer 1
10
21698.900000
20
-11065.900000
11
21684.788900
21
-10868.345000
0
LINE
8
Layer 1
10
22764.600000
20
-10964.900000
11
22737.506700
21
-11007.233300
0
LINE
8
Layer 1
10
21684.800000
20
-10868.400000
11
21938.800000
21
-10769.057900
0
LINE
8
Layer 1
10
11716.700000
20
-10613.200000
11
11730.811100
21
-10415.645000
0
LINE
8
Layer 1
10
10668.600000
20
-10309.600000
11
10651.102200
21
-10512.235000
0
LINE
8
Layer 1
10
10651.100000
20
-10512.200000
11
11716.770000
21
-10613.235000
0
LINE
8
Layer 1
10
11730.800000
20
-10415.700000
11
11883.200000
21
-10358.691200
0
LINE
8
Layer 1
10
12443.200000
20
-10407.800000
11
12630.595000
21
-10483.999900
0
LINE
8
Layer 1
10
12613.100000
20
-10686.600000
11
12608.020000
21
-10811.907000
0
LINE
8
Layer 1
10
12630.600000
20
-10484.000000
11
12613.102200
21
-10686.635000
0
LINE
8
Layer 1
10
13678.700000
20
-10787.700000
11
13692.811100
21
-10590.145000
0
LINE
8
Layer 1
10
12590.500000
20
-11014.600000
11
13656.170000
21
-11115.635000
0
LINE
8
Layer 1
10
12608.000000
20
-10811.900000
11
12590.502200
21
-11014.535000
0
LINE
8
Layer 1
10
13656.200000
20
-11115.600000
11
13670.311100
21
-10918.045000
0
LINE
8
Layer 1
10
13670.300000
20
-10918.000000
11
13678.766660
21
-10787.613000
0
LINE
8
Layer 1
10
14958.300000
20
-10932.700000
11
16023.970000
21
-11033.735000
0
LINE
8
Layer 1
10
16038.100000
20
-10836.200000
11
16101.317700
21
-10727.262000
0
LINE
8
Layer 1
10
16024.000000
20
-11033.800000
11
16038.111100
21
-10836.245000
0
LINE
8
Layer 1
10
14975.800000
20
-10730.100000
11
14958.302200
21
-10932.735000
0
LINE
8
Layer 1
10
17263.500000
20
-11132.500000
11
18054.286000
21
-11212.086600
0
LINE
8
Layer 1
10
18068.400000
20
-11014.600000
11
18208.947000
21
-10910.742000
0
LINE
8
Layer 1
10
18054.300000
20
-11212.100000
11
18068.411100
21
-11014.545000
0
LINE
8
Layer 1
10
17006.100000
20
-10908.400000
11
16988.602200
21
-11087.329000
0
LINE
8
Layer 1
10
15764.400000
20
-6448.210000
11
15519.996000
21
-6432.405600
0
LINE
8
Layer 1
10
15502.500000
20
-6635.040000
11
15502.500000
21
-6747.360000
0
LINE
8
Layer 1
10
16568.100000
20
-6736.070000
11
16582.211100
21
-6538.515000
0
LINE
8
Layer 1
10
15520.000000
20
-6432.400000
11
15502.502200
21
-6635.035000
0
LINE
8
Layer 1
10
16564.700000
20
-6853.480000
11
16568.086660
21
-6736.076000
0
LINE
8
Layer 1
10
15681.900000
20
-7004.750000
11
16240.700000
21
-7053.856600
0
LINE
8
Layer 1
10
16550.600000
20
-7051.030000
11
16564.711100
21
-6853.475000
0
LINE
8
Layer 1
10
15502.500000
20
-6747.360000
11
15479.357800
21
-6987.249000
0
LINE
8
Layer 1
10
13849.800000
20
-6628.830000
11
13832.302200
21
-6831.465000
0
LINE
8
Layer 1
10
14897.900000
20
-6932.500000
11
14912.011100
21
-6734.945000
0
LINE
8
Layer 1
10
13878.000000
20
-6479.250000
11
13849.777800
21
-6628.828000
0
LINE
8
Layer 1
10
13832.300000
20
-6831.470000
11
14132.020000
21
-6869.287700
0
LINE
8
Layer 1
10
14912.000000
20
-6734.950000
11
14943.608900
21
-6580.292000
0
LINE
8
Layer 1
10
14943.700000
20
-6580.290000
11
14958.940000
21
-6378.219000
0
LINE
8
Layer 1
10
13896.000000
20
-6285.080000
11
13877.937800
21
-6479.249000
0
LINE
8
Layer 1
10
13655.000000
20
-6264.200000
11
13896.018000
21
-6285.084400
0
LINE
8
Layer 1
10
12245.600000
20
-6702.210000
11
12023.774000
21
-6684.712200
0
LINE
8
Layer 1
10
13311.800000
20
-6797.600000
11
13328.733300
21
-6562.791000
0
LINE
8
Layer 1
10
13328.800000
20
-6562.790000
11
13342.911100
21
-6447.079000
0
LINE
8
Layer 1
10
12266.500000
20
-6456.670000
11
12245.615600
21
-6702.203000
0
LINE
8
Layer 1
10
12277.200000
20
-6346.040000
11
12266.475600
21
-6456.671000
0
LINE
8
Layer 1
10
13357.000000
20
-6249.520000
11
13095.662000
21
-6214.524500
0
LINE
8
Layer 1
10
12294.700000
20
-6145.100000
11
12277.202200
21
-6346.042000
0
LINE
8
Layer 1
10
13342.900000
20
-6447.080000
11
13357.011100
21
-6249.525000
0
LINE
8
Layer 1
10
11207.600000
20
-6355.070000
11
11216.066660
21
-6259.114500
0
LINE
8
Layer 1
10
11189.000000
20
-6612.460000
11
11207.626700
21
-6355.074000
0
LINE
8
Layer 1
10
10145.300000
20
-6248.960000
11
10119.900000
21
-6518.764000
0
LINE
8
Layer 1
10
10119.900000
20
-6518.760000
11
9915.571000
21
-6501.262200
0
LINE
8
Layer 1
10
11230.200000
20
-6061.560000
11
10986.360000
21
-6030.515600
0
LINE
8
Layer 1
10
11216.100000
20
-6259.120000
11
11230.211100
21
-6061.565000
0
LINE
8
Layer 1
10
10150.400000
20
-6158.080000
11
10145.320000
21
-6248.955500
0
LINE
8
Layer 1
10
10166.800000
20
-5960.530000
11
10150.431100
21
-6158.085000
0
LINE
8
Layer 1
10
9035.620000
20
-6217.350000
11
9035.055556
21
-6480.381000
0
LINE
8
Layer 1
10
7954.140000
20
-6480.380000
11
7955.268890
21
-6217.349000
0
LINE
8
Layer 1
10
7559.600000
20
-6480.380000
11
7954.140000
21
-6480.380000
0
LINE
8
Layer 1
10
9018.120000
20
-6145.100000
11
9035.617800
21
-6217.348800
0
LINE
8
Layer 1
10
8753.960000
20
-5915.940000
11
9018.120000
21
-5911.988890
0
LINE
8
Layer 1
10
7955.270000
20
-6217.350000
11
7937.772200
21
-6145.101200
0
LINE
8
Layer 1
10
9018.120000
20
-5911.990000
11
9018.120000
21
-6145.100000
0
LINE
8
Layer 1
10
7937.780000
20
-6145.100000
11
7937.780000
21
-5917.630000
0
LINE
8
Layer 1
10
6596.660000
20
-5919.320000
11
6316.131000
21
-5920.448890
0
LINE
8
Layer 1
10
5235.780000
20
-6178.970000
11
5235.215556
21
-5919.326000
0
LINE
8
Layer 1
10
5227.320000
20
-6219.610000
11
5235.786660
21
-6178.970000
0
LINE
8
Layer 1
10
6316.130000
20
-5920.450000
11
6316.130000
21
-6178.970000
0
LINE
8
Layer 1
10
6316.130000
20
-6178.970000
11
6307.663340
21
-6219.610000
0
LINE
8
Layer 1
10
5227.320000
20
-6479.820000
11
5227.320000
21
-6219.610000
0
LINE
8
Layer 1
10
6307.660000
20
-6219.610000
11
6307.660000
21
-6479.820000
0
LINE
8
Layer 1
10
5136.440000
20
-6480.380000
11
5227.315500
21
-6479.815556
0
LINE
8
Layer 1
10
5830.710000
20
-10423.600000
11
5830.710000
21
-10190.500000
0
LINE
8
Layer 1
10
6911.050000
20
-10190.500000
11
6911.050000
21
-10423.600000
0
LINE
8
Layer 1
10
5830.710000
20
-10434.900000
11
5830.710000
21
-10423.600000
0
LINE
8
Layer 1
10
5830.710000
20
-10190.500000
11
5401.168000
21
-10150.988900
0
LINE
8
Layer 1
10
6911.050000
20
-10668.000000
11
7157.148000
21
-10712.591100
0
LINE
8
Layer 1
10
6911.050000
20
-10423.600000
11
6911.050000
21
-10434.900000
0
LINE
8
Layer 1
10
5830.710000
20
-10668.000000
11
5830.710000
21
-10434.900000
0
LINE
8
Layer 1
10
6911.050000
20
-10434.900000
11
6911.050000
21
-10668.000000
0
LINE
8
Layer 1
10
8389.330000
20
-10410.600000
11
8389.330000
21
-10177.500000
0
LINE
8
Layer 1
10
9469.680000
20
-10177.500000
11
9469.680000
21
-10410.600000
0
LINE
8
Layer 1
10
9469.680000
20
-10410.600000
11
9260.836000
21
-10492.444400
0
LINE
8
Layer 1
10
9645.780000
20
-10152.700000
11
9469.673000
21
-10177.535500
0
LINE
8
Layer 1
10
8180.490000
20
-10492.400000
11
8389.334000
21
-10410.555600
0
LINE
8
Layer 1
10
8180.490000
20
-10725.600000
11
8180.490000
21
-10492.400000
0
LINE
8
Layer 1
10
8248.780000
20
-10725.600000
11
8180.490000
21
-10725.600000
0
LINE
8
Layer 1
10
9260.830000
20
-10492.400000
11
9260.830000
21
-10712.000000
0
LINE
8
Layer 1
10
32996.800000
20
-10379.600000
11
34077.200000
21
-10379.600000
0
LINE
8
Layer 1
10
32996.800000
20
-10612.700000
11
32996.800000
21
-10379.600000
0
LINE
8
Layer 1
10
34077.200000
20
-10612.700000
11
32996.800000
21
-10612.700000
0
LINE
8
Layer 1
10
34077.200000
20
-10379.600000
11
34077.200000
21
-10612.700000
0
LINE
8
Layer 1
10
34086.800000
20
-10783.100000
11
34086.800000
21
-11016.300000
0
LINE
8
Layer 1
10
33006.400000
20
-10783.100000
11
34086.800000
21
-10783.100000
0
LINE
8
Layer 1
10
33006.400000
20
-11016.300000
11
33006.400000
21
-10783.100000
0
LINE
8
Layer 1
10
34086.800000
20
-11016.300000
11
33006.400000
21
-11016.300000
0
LINE
8
Layer 1
10
32512.000000
20
-10985.200000
11
32512.000000
21
-11218.300000
0
LINE
8
Layer 1
10
31431.600000
20
-10985.200000
11
31431.600000
21
-10949.600000
0
LINE
8
Layer 1
10
31431.600000
20
-11251.600000
11
31431.600000
21
-10985.200000
0
LINE
8
Layer 1
10
32512.000000
20
-11218.300000
11
32266.467000
21
-11251.602200
0
LINE
8
Layer 1
10
32512.000000
20
-10716.500000
11
32512.000000
21
-10949.600000
0
LINE
8
Layer 1
10
32512.000000
20
-10949.600000
11
32512.000000
21
-10985.200000
0
LINE
8
Layer 1
10
32265.900000
20
-10716.500000
11
32512.000000
21
-10716.500000
0
LINE
8
Layer 1
10
31431.600000
20
-10949.600000
11
31431.600000
21
-10690.600000
0
LINE
8
Layer 1
10
29150.700000
20
-10828.900000
11
29150.700000
21
-10595.700000
0
LINE
8
Layer 1
10
30231.100000
20
-10595.700000
11
30231.100000
21
-10828.900000
0
LINE
8
Layer 1
10
30231.100000
20
-10828.900000
11
29150.700000
21
-10828.900000
0
LINE
8
Layer 1
10
29150.700000
20
-10595.700000
11
29130.944500
21
-10535.868900
0
LINE
8
Layer 1
10
30211.300000
20
-10302.800000
11
30211.300000
21
-10535.900000
0
LINE
8
Layer 1
10
30211.300000
20
-10535.900000
11
30231.055500
21
-10595.731100
0
LINE
8
Layer 1
10
29937.500000
20
-10302.200000
11
30211.255000
21
-10302.764444
0
LINE
8
Layer 1
10
29131.000000
20
-10535.900000
11
29131.000000
21
-10268.400000
0
LINE
8
Layer 1
10
30550.500000
20
-5926.660000
11
30550.500000
21
-6202.110000
0
LINE
8
Layer 1
10
30639.100000
20
-5926.660000
11
30550.500000
21
-5926.660000
0
LINE
8
Layer 1
10
29470.200000
20
-6202.110000
11
29470.200000
21
-5926.660000
0
LINE
8
Layer 1
10
30550.500000
20
-6202.110000
11
30624.442200
21
-6254.603300
0
LINE
8
Layer 1
10
29544.100000
20
-6487.720000
11
29544.100000
21
-6254.600000
0
LINE
8
Layer 1
10
29544.100000
20
-6254.600000
11
29470.157800
21
-6202.106700
0
LINE
8
Layer 1
10
29544.100000
20
-6487.720000
11
29824.064000
21
-6492.235550
0
LINE
8
Layer 1
10
30624.500000
20
-6254.600000
11
30624.500000
21
-6491.110000
0
LINE
8
Layer 1
10
32221.900000
20
-7844.640000
11
32221.900000
21
-6764.300000
0
LINE
8
Layer 1
10
32455.000000
20
-7844.640000
11
32221.900000
21
-7844.640000
0
LINE
8
Layer 1
10
32455.000000
20
-6764.300000
11
32455.000000
21
-7844.640000
0
LINE
8
Layer 1
10
32221.900000
20
-6764.300000
11
32455.000000
21
-6764.300000
0
LINE
8
Layer 1
10
34025.200000
20
-5845.950000
11
33859.900000
21
-5845.950000
0
LINE
8
Layer 1
10
34025.200000
20
-4038.030000
11
34025.200000
21
-5845.950000
0
LINE
8
Layer 1
10
34788.900000
20
-4038.030000
11
34025.200000
21
-4038.030000
0
LINE
8
Layer 1
10
32133.800000
20
-5843.120000
11
32304.800000
21
-5843.120000
0
LINE
8
Layer 1
10
32133.800000
20
-4045.370000
11
32133.800000
21
-5843.120000
0
LINE
8
Layer 1
10
31372.900000
20
-4045.370000
11
32133.800000
21
-4045.370000
0
LINE
8
Layer 1
10
32733.800000
20
-6487.720000
11
31448.000000
21
-6487.720000
0
LINE
8
Layer 1
10
31372.900000
20
-6436.920000
11
31372.900000
21
-4045.370000
0
LINE
8
Layer 1
10
24332.100000
20
-12617.000000
11
24499.175000
21
-12607.968900
0
LINE
8
Layer 1
10
26216.700000
20
-12449.900000
11
26046.238000
21
-12465.704400
0
LINE
8
Layer 1
10
26812.200000
20
-10622.800000
11
26834.777800
21
-10832.209000
0
LINE
8
Layer 1
10
24185.300000
20
-10852.600000
11
24332.055000
21
-12617.050000
0
LINE
8
Layer 1
10
26057.600000
20
-10688.300000
11
26812.262000
21
-10622.824500
0
LINE
8
Layer 1
10
24499.100000
20
-12608.000000
11
24368.149000
21
-11119.000000
0
LINE
8
Layer 1
10
26834.800000
20
-10832.200000
11
27033.484000
21
-13004.740000
0
LINE
8
Layer 1
10
25918.100000
20
-10983.500000
11
26046.229000
21
-12465.730000
0
LINE
8
Layer 1
10
23623.700000
20
-13291.000000
11
23417.678000
21
-10920.340000
0
LINE
8
Layer 1
10
26077.900000
20
-10905.600000
11
26057.580000
21
-10688.289000
0
LINE
8
Layer 1
10
27033.500000
20
-13004.800000
11
23623.700000
21
-13291.000000
0
LINE
8
Layer 1
10
23417.700000
20
-10920.300000
11
24185.344000
21
-10852.566700
0
LINE
8
Layer 1
10
24368.200000
20
-11119.000000
11
25918.160000
21
-10983.533000
0
LINE
8
Layer 1
10
26077.900000
20
-10905.600000
11
26216.753000
21
-12449.920000
0
LINE
8
Layer 1
10
14466.700000
20
-12640.700000
11
14637.162000
21
-12656.504400
0
LINE
8
Layer 1
10
14605.600000
20
-11096.400000
11
14466.747000
21
-12640.720000
0
LINE
8
Layer 1
10
16498.100000
20
-11043.300000
11
16351.345000
21
-12807.750000
0
LINE
8
Layer 1
10
16988.600000
20
-11087.400000
11
16498.098000
21
-11043.373400
0
LINE
8
Layer 1
10
17059.800000
20
-13481.700000
11
17263.564000
21
-11132.480000
0
LINE
8
Layer 1
10
13649.900000
20
-13195.600000
11
17059.710000
21
-13481.773000
0
LINE
8
Layer 1
10
13848.600000
20
-11023.000000
11
13649.916000
21
-13195.540000
0
LINE
8
Layer 1
10
13871.200000
20
-10813.600000
11
13848.622200
21
-11023.009000
0
LINE
8
Layer 1
10
14625.900000
20
-10879.100000
11
13871.238000
21
-10813.624500
0
LINE
8
Layer 1
10
14605.600000
20
-11096.400000
11
14625.920000
21
-10879.089000
0
LINE
8
Layer 1
10
10333.800000
20
-10223.200000
11
10668.515000
21
-10309.559900
0
LINE
8
Layer 1
10
11883.200000
20
-10358.700000
11
12018.667000
21
-8809.300000
0
LINE
8
Layer 1
10
12018.700000
20
-8809.280000
11
10468.740000
21
-8673.813000
0
LINE
8
Layer 1
10
10468.700000
20
-8673.810000
11
10333.798000
21
-10223.210000
0
LINE
8
Layer 1
10
14128.000000
20
-8993.850000
11
12578.040000
21
-8858.383000
0
LINE
8
Layer 1
10
13692.800000
20
-10590.100000
11
13992.520000
21
-10543.251100
0
LINE
8
Layer 1
10
13992.600000
20
-10543.200000
11
14128.067000
21
-8993.800000
0
LINE
8
Layer 1
10
12578.100000
20
-8858.380000
11
12443.198000
21
-10407.780000
0
LINE
8
Layer 1
10
16101.300000
20
-10727.300000
11
16236.767000
21
-9177.900000
0
LINE
8
Layer 1
10
14686.800000
20
-9042.390000
11
14551.898000
21
-10591.790000
0
LINE
8
Layer 1
10
14551.900000
20
-10591.800000
11
14975.797000
21
-10730.089000
0
LINE
8
Layer 1
10
16236.800000
20
-9177.860000
11
14686.840000
21
-9042.393000
0
LINE
8
Layer 1
10
15546.500000
20
-8554.150000
11
15681.967000
21
-7004.750000
0
LINE
8
Layer 1
10
14132.000000
20
-6869.280000
11
13997.098000
21
-8418.680000
0
LINE
8
Layer 1
10
13997.100000
20
-8418.680000
11
15546.500000
21
-8554.147000
0
LINE
8
Layer 1
10
15479.300000
20
-6987.250000
11
14897.923000
21
-6932.498900
0
LINE
8
Layer 1
10
13573.700000
20
-6820.180000
11
13311.798000
21
-6797.602200
0
LINE
8
Layer 1
10
11888.900000
20
-8234.110000
11
13438.300000
21
-8369.577000
0
LINE
8
Layer 1
10
12023.800000
20
-6684.710000
11
11888.898000
21
-8234.110000
0
LINE
8
Layer 1
10
13438.300000
20
-8369.580000
11
13573.767000
21
-6820.180000
0
LINE
8
Layer 1
10
11465.600000
20
-6636.730000
11
11189.022000
21
-6612.458900
0
LINE
8
Layer 1
10
9915.590000
20
-6501.270000
11
9780.688000
21
-8050.670000
0
LINE
8
Layer 1
10
9780.690000
20
-8050.660000
11
11330.090000
21
-8186.127000
0
LINE
8
Layer 1
10
11330.100000
20
-8186.130000
11
11465.567000
21
-6636.730000
0
LINE
8
Layer 1
10
10986.300000
20
-6030.520000
11
11121.767000
21
-4481.120000
0
LINE
8
Layer 1
10
9436.940000
20
-5895.050000
11
10166.766000
21
-5960.525500
0
LINE
8
Layer 1
10
9571.840000
20
-4345.650000
11
9436.938000
21
-5895.050000
0
LINE
8
Layer 1
10
11121.800000
20
-4481.120000
11
9571.840000
21
-4345.653000
0
LINE
8
Layer 1
10
13231.100000
20
-4665.130000
11
11681.140000
21
-4529.663000
0
LINE
8
Layer 1
10
13095.700000
20
-6214.530000
11
13231.167000
21
-4665.130000
0
LINE
8
Layer 1
10
11546.300000
20
-6079.060000
11
12294.753000
21
-6145.099900
0
LINE
8
Layer 1
10
11681.200000
20
-4529.660000
11
11546.298000
21
-6079.060000
0
LINE
8
Layer 1
10
15204.400000
20
-6398.540000
11
15339.867000
21
-4849.140000
0
LINE
8
Layer 1
10
13789.900000
20
-4713.670000
11
13654.998000
21
-6264.200000
0
LINE
8
Layer 1
10
14958.900000
20
-6378.220000
11
15204.433000
21
-6398.540000
0
LINE
8
Layer 1
10
15339.900000
20
-4849.140000
11
13789.940000
21
-4713.673000
0
LINE
8
Layer 1
10
16582.200000
20
-6538.520000
11
17313.719000
21
-6583.675500
0
LINE
8
Layer 1
10
17449.200000
20
-5034.280000
11
15899.240000
21
-4898.813000
0
LINE
8
Layer 1
10
17313.800000
20
-6583.670000
11
17449.267000
21
-5034.270000
0
LINE
8
Layer 1
10
15899.300000
20
-4898.810000
11
15764.398000
21
-6448.210000
0
LINE
8
Layer 1
10
17655.200000
20
-8738.720000
11
17790.667000
21
-7189.320000
0
LINE
8
Layer 1
10
16240.700000
20
-7053.860000
11
16105.798000
21
-8603.260000
0
LINE
8
Layer 1
10
17790.700000
20
-7189.320000
11
16550.620000
21
-7051.031000
0
LINE
8
Layer 1
10
16105.800000
20
-8603.260000
11
17655.200000
21
-8738.727000
0
LINE
8
Layer 1
10
16659.600000
20
-10775.200000
11
17006.169000
21
-10908.409000
0
LINE
8
Layer 1
10
18209.000000
20
-10910.700000
11
18267.702200
21
-10217.563000
0
LINE
8
Layer 1
10
16794.500000
20
-9225.840000
11
16659.598000
21
-10775.240000
0
LINE
8
Layer 1
10
18370.400000
20
-9364.130000
11
16794.470000
21
-9225.841000
0
LINE
8
Layer 1
10
14765.300000
20
-11174.300000
11
14637.171000
21
-12656.530000
0
LINE
8
Layer 1
10
16315.300000
20
-11309.800000
11
14765.340000
21
-11174.333000
0
LINE
8
Layer 1
10
16184.300000
20
-12798.800000
11
16315.251000
21
-11309.800000
0
LINE
8
Layer 1
10
16351.400000
20
-12807.800000
11
16184.325000
21
-12798.768900
0
LINE
8
Layer 1
10
20514.200000
20
-6645.200000
11
21285.231000
21
-6578.595600
0
LINE
8
Layer 1
10
22066.900000
20
-6531.750000
11
21928.611000
21
-4960.340000
0
LINE
8
Layer 1
10
21928.600000
20
-4960.330000
11
20378.640000
21
-5095.797000
0
LINE
8
Layer 1
10
20378.700000
20
-5095.800000
11
20514.167000
21
-6645.200000
0
LINE
8
Layer 1
10
24038.500000
20
-4774.630000
11
22488.540000
21
-4910.097000
0
LINE
8
Layer 1
10
22624.000000
20
-6459.500000
11
22896.626000
21
-6435.793400
0
LINE
8
Layer 1
10
24174.000000
20
-6324.030000
11
24038.533000
21
-4774.630000
0
LINE
8
Layer 1
10
22488.600000
20
-4910.100000
11
22624.067000
21
-6459.500000
0
LINE
8
Layer 1
10
24596.800000
20
-4724.960000
11
24732.267000
21
-6274.360000
0
LINE
8
Layer 1
10
26282.200000
20
-6138.890000
11
26146.733000
21
-4589.490000
0
LINE
8
Layer 1
10
26146.700000
20
-4589.490000
11
24596.740000
21
-4724.957000
0
LINE
8
Layer 1
10
24732.200000
20
-6274.360000
11
25030.791000
21
-6248.395600
0
LINE
8
Layer 1
10
28391.500000
20
-5954.320000
11
28256.033000
21
-4404.920000
0
LINE
8
Layer 1
10
26841.600000
20
-6089.790000
11
27084.311000
21
-6068.905600
0
LINE
8
Layer 1
10
28256.100000
20
-4404.920000
11
26706.140000
21
-4540.387000
0
LINE
8
Layer 1
10
26706.100000
20
-4540.390000
11
26841.567000
21
-6089.790000
0
LINE
8
Layer 1
10
27417.900000
20
-6603.430000
11
27553.367000
21
-8152.830000
0
LINE
8
Layer 1
10
27553.300000
20
-8152.830000
11
29103.260000
21
-8017.363000
0
LINE
8
Layer 1
10
28967.800000
20
-6467.960000
11
28205.236000
21
-6533.999900
0
LINE
8
Layer 1
10
29103.300000
20
-8017.360000
11
28967.833000
21
-6467.960000
0
LINE
8
Layer 1
10
26857.900000
20
-6653.100000
11
26158.554000
21
-6714.060000
0
LINE
8
Layer 1
10
26993.400000
20
-8202.500000
11
26857.933000
21
-6653.100000
0
LINE
8
Layer 1
10
25308.000000
20
-6788.570000
11
25443.467000
21
-8337.970000
0
LINE
8
Layer 1
10
25443.400000
20
-8337.970000
11
26993.360000
21
-8202.503000
0
LINE
8
Layer 1
10
23335.200000
20
-8521.980000
11
24885.160000
21
-8386.513000
0
LINE
8
Layer 1
10
24749.700000
20
-6837.110000
11
24041.887000
21
-6892.425500
0
LINE
8
Layer 1
10
23199.800000
20
-6972.580000
11
23335.267000
21
-8521.980000
0
LINE
8
Layer 1
10
24885.200000
20
-8386.510000
11
24749.733000
21
-6837.110000
0
LINE
8
Layer 1
10
22777.600000
20
-8570.520000
11
22642.133000
21
-7021.120000
0
LINE
8
Layer 1
10
21092.100000
20
-7156.590000
11
21227.567000
21
-8705.990000
0
LINE
8
Layer 1
10
22642.100000
20
-7021.120000
11
21092.140000
21
-7156.587000
0
LINE
8
Layer 1
10
21227.600000
20
-8705.980000
11
22777.560000
21
-8570.513000
0
LINE
8
Layer 1
10
23353.300000
20
-9084.160000
11
21803.340000
21
-9219.627000
0
LINE
8
Layer 1
10
23488.800000
20
-10633.600000
11
23353.333000
21
-9084.200000
0
LINE
8
Layer 1
10
21803.300000
20
-9219.630000
11
21938.767000
21
-10769.030000
0
LINE
8
Layer 1
10
22741.400000
20
-10698.500000
11
23488.724000
21
-10633.588900
0
LINE
8
Layer 1
10
22619.000000
20
-12834.900000
11
22479.018000
21
-11237.520000
0
LINE
8
Layer 1
10
21692.700000
20
-11354.400000
11
20933.523000
21
-11421.004400
0
LINE
8
Layer 1
10
21069.000000
20
-12970.400000
11
22618.960000
21
-12834.933000
0
LINE
8
Layer 1
10
20933.500000
20
-11421.000000
11
21068.967000
21
-12970.400000
0
LINE
8
Layer 1
10
24044.700000
20
-10583.900000
11
24795.975000
21
-10518.988900
0
LINE
8
Layer 1
10
23909.300000
20
-9034.490000
11
24044.767000
21
-10583.890000
0
LINE
8
Layer 1
10
25459.200000
20
-8899.020000
11
23909.240000
21
-9034.487000
0
LINE
8
Layer 1
10
25594.700000
20
-10449.000000
11
25459.233000
21
-8899.040000
0
LINE
8
Layer 1
10
26020.300000
20
-8850.480000
11
26155.767000
21
-10399.880000
0
LINE
8
Layer 1
10
27570.300000
20
-8715.020000
11
26020.340000
21
-8850.487000
0
LINE
8
Layer 1
10
27705.700000
20
-10264.400000
11
27570.233000
21
-8715.000000
0
LINE
8
Layer 1
10
26155.800000
20
-10399.900000
11
27705.760000
21
-10264.433000
0
LINE
8
Layer 1
10
28382.500000
20
-8713.890000
11
28382.500000
21
-10268.400000
0
LINE
8
Layer 1
10
28382.500000
20
-10268.400000
11
29131.000000
21
-10268.400000
0
LINE
8
Layer 1
10
29937.500000
20
-10302.200000
11
29937.500000
21
-8712.760000
0
LINE
8
Layer 1
10
29937.500000
20
-8712.760000
11
28382.500000
21
-8712.760000
0
LINE
8
Layer 1
10
28594.200000
20
-12808.400000
11
30149.200000
21
-12808.400000
0
LINE
8
Layer 1
10
30149.200000
20
-12808.400000
11
30149.200000
21
-11252.800000
0
LINE
8
Layer 1
10
28594.200000
20
-11253.900000
11
28594.200000
21
-12808.400000
0
LINE
8
Layer 1
10
30149.200000
20
-11252.800000
11
28594.200000
21
-11252.800000
0
LINE
8
Layer 1
10
31431.600000
20
-11251.600000
11
30711.400000
21
-11251.600000
0
LINE
8
Layer 1
10
30711.400000
20
-11252.800000
11
30711.400000
21
-12807.200000
0
LINE
8
Layer 1
10
32266.400000
20
-12807.200000
11
32266.400000
21
-11251.600000
0
LINE
8
Layer 1
10
30711.400000
20
-12807.200000
11
32266.400000
21
-12807.200000
0
LINE
8
Layer 1
10
34383.100000
20
-11252.200000
11
32828.100000
21
-11252.200000
0
LINE
8
Layer 1
10
34383.100000
20
-12807.800000
11
34383.100000
21
-11252.200000
0
LINE
8
Layer 1
10
32828.100000
20
-12807.800000
11
34383.100000
21
-12807.800000
0
LINE
8
Layer 1
10
32828.100000
20
-11253.300000
11
32828.100000
21
-12807.800000
0
LINE
8
Layer 1
10
32264.700000
20
-9134.960000
11
30709.700000
21
-9134.960000
0
LINE
8
Layer 1
10
32265.900000
20
-10716.500000
11
32264.771110
21
-9134.930000
0
LINE
8
Layer 1
10
30709.700000
20
-9136.090000
11
30709.700000
21
-10690.600000
0
LINE
8
Layer 1
10
30709.700000
20
-10690.600000
11
31431.600000
21
-10690.600000
0
LINE
8
Layer 1
10
33199.500000
20
-8711.630000
11
33199.500000
21
-10266.100000
0
LINE
8
Layer 1
10
33199.500000
20
-10266.100000
11
34754.500000
21
-10266.100000
0
LINE
8
Layer 1
10
34754.500000
20
-8710.500000
11
33199.500000
21
-8710.500000
0
LINE
8
Layer 1
10
34754.500000
20
-10266.100000
11
34754.500000
21
-8710.500000
0
LINE
8
Layer 1
10
29824.100000
20
-8046.710000
11
31379.100000
21
-8046.710000
0
LINE
8
Layer 1
10
29824.100000
20
-6492.230000
11
29824.100000
21
-8046.710000
0
LINE
8
Layer 1
10
31379.100000
20
-8046.710000
11
31379.100000
21
-6541.910000
0
LINE
8
Layer 1
10
31338.500000
20
-6491.110000
11
30624.500000
21
-6491.110000
0
LINE
8
Layer 1
10
34287.700000
20
-8046.150000
11
34287.700000
21
-6490.540000
0
LINE
8
Layer 1
10
32732.700000
20
-6491.670000
11
32732.700000
21
-8046.150000
0
LINE
8
Layer 1
10
34287.700000
20
-6490.540000
11
34790.055000
21
-6487.717780
0
LINE
8
Layer 1
10
32732.700000
20
-8046.150000
11
34287.700000
21
-8046.150000
0
LINE
8
Layer 1
10
33859.900000
20
-5845.950000
11
33859.900000
21
-4375.010000
0
LINE
8
Layer 1
10
32553.700000
20
-4375.010000
11
32304.800000
21
-4375.010000
0
LINE
8
Layer 1
10
34788.900000
20
-4038.030000
11
34790.028890
21
-6487.720000
0
LINE
8
Layer 1
10
32304.800000
20
-4376.130000
11
32304.800000
21
-5843.120000
0
LINE
8
Layer 1
10
30639.100000
20
-5926.660000
11
30639.100000
21
-4371.050000
0
LINE
8
Layer 1
10
29084.100000
20
-4372.180000
11
29084.100000
21
-5926.660000
0
LINE
8
Layer 1
10
29084.100000
20
-5926.660000
11
29470.200000
21
-5926.660000
0
LINE
8
Layer 1
10
30639.100000
20
-4371.050000
11
29084.100000
21
-4371.050000
0
LINE
8
Layer 1
10
5602.110000
20
-10713.700000
11
5602.110000
21
-12268.200000
0
LINE
8
Layer 1
10
7157.150000
20
-12268.200000
11
7157.150000
21
-10712.600000
0
LINE
8
Layer 1
10
5602.110000
20
-12268.200000
11
7157.150000
21
-12268.200000
0
LINE
8
Layer 1
10
5830.710000
20
-10668.000000
11
5602.110000
21
-10712.591100
0
LINE
8
Layer 1
10
8248.780000
20
-12269.300000
11
9803.830000
21
-12269.300000
0
LINE
8
Layer 1
10
9803.830000
20
-10713.700000
11
9260.835000
21
-10712.006670
0
LINE
8
Layer 1
10
9803.830000
20
-12269.300000
11
9803.830000
21
-10713.700000
0
LINE
8
Layer 1
10
8248.780000
20
-10725.600000
11
8248.780000
21
-12269.300000
0
LINE
8
Layer 1
10
8090.740000
20
-10152.700000
11
8389.331000
21
-10177.535500
0
LINE
8
Layer 1
10
9645.780000
20
-10152.700000
11
9645.780000
21
-8597.050000
0
LINE
8
Layer 1
10
9645.780000
20
-8597.050000
11
8090.740000
21
-8597.050000
0
LINE
8
Layer 1
10
8090.740000
20
-8598.180000
11
8090.740000
21
-10152.700000
0
LINE
8
Layer 1
10
6956.210000
20
-10151.000000
11
6956.210000
21
-8595.350000
0
LINE
8
Layer 1
10
5401.160000
20
-8596.480000
11
5401.160000
21
-10151.000000
0
LINE
8
Layer 1
10
6956.210000
20
-8595.350000
11
5401.160000
21
-8595.350000
0
LINE
8
Layer 1
10
6911.050000
20
-10190.500000
11
6956.205500
21
-10150.988900
0
LINE
8
Layer 1
10
7559.600000
20
-6480.380000
11
7559.600000
21
-8036.550000
0
LINE
8
Layer 1
10
9114.640000
20
-8036.550000
11
9114.640000
21
-6480.950000
0
LINE
8
Layer 1
10
7559.600000
20
-8036.550000
11
9114.640000
21
-8036.550000
0
LINE
8
Layer 1
10
9114.640000
20
-6480.950000
11
9035.053400
21
-6480.385556
0
LINE
8
Layer 1
10
6691.480000
20
-6480.380000
11
6307.658000
21
-6479.815556
0
LINE
8
Layer 1
10
6691.480000
20
-8035.990000
11
6691.480000
21
-6480.380000
0
LINE
8
Layer 1
10
5136.440000
20
-8035.990000
11
6691.480000
21
-8035.990000
0
LINE
8
Layer 1
10
5136.440000
20
-6480.380000
11
5136.440000
21
-8035.990000
0
LINE
8
Layer 1
10
7198.920000
20
-5915.940000
11
7937.777000
21
-5917.633330
0
LINE
8
Layer 1
10
8753.960000
20
-5915.940000
11
8753.960000
21
-4360.330000
0
LINE
8
Layer 1
10
8753.960000
20
-4360.330000
11
7198.920000
21
-4360.330000
0
LINE
8
Layer 1
10
7198.920000
20
-4361.460000
11
7198.920000
21
-5915.940000
0
LINE
8
Layer 1
10
6596.660000
20
-4363.720000
11
5041.610000
21
-4363.720000
0
LINE
8
Layer 1
10
6596.660000
20
-5919.320000
11
6596.660000
21
-4363.720000
0
LINE
8
Layer 1
10
5041.610000
20
-5919.320000
11
5235.220000
21
-5919.320000
0
LINE
8
Layer 1
10
5041.610000
20
-4364.850000
11
5041.610000
21
-5919.320000
0
LINE
8
Layer 1
10
2974.340000
20
-14023.000000
11
2974.340000
21
-14032.900000
0
LINE
8
Layer 1
10
1111.110000
20
-6581.980000
11
1333.220000
21
-6581.980000
0
LINE
8
Layer 1
10
38.179700
20
56.116100
11
10.911700
21
56.116100
0
LINE
8
Layer 1
10
55.914400
20
56.116100
11
38.179700
21
56.116100
0
LINE
8
Layer 1
10
82.700000
20
56.116100
11
55.914400
21
56.116100
0
LINE
8
Layer 1
10
83.007500
20
56.116100
11
82.700000
21
56.116100
0
LINE
8
Layer 1
10
83.611800
20
55.506200
11
83.437039
21
55.936778
0
LINE
8
Layer 1
10
83.437039
20
55.936778
11
83.008217
21
56.115805
0
LINE
8
Layer 1
10
83.611800
20
40.864600
11
83.611800
21
30.041600
0
LINE
8
Layer 1
10
83.002500
20
29.437300
11
83.432916
21
29.612189
0
LINE
8
Layer 1
10
83.432916
20
29.612189
11
83.611817
21
30.040953
0
LINE
8
Layer 1
10
80.735100
20
54.706800
11
80.735100
21
43.696100
0
LINE
8
Layer 1
10
45.166800
20
32.210800
11
41.839210
21
32.215090
0
LINE
8
Layer 1
10
45.232700
20
31.393600
11
45.166750
21
32.210802
0
LINE
8
Layer 1
10
80.414000
20
31.862400
11
45.232700
21
31.393584
0
LINE
8
Layer 1
10
80.414000
20
37.234500
11
80.414000
21
31.862400
0
LINE
8
Layer 1
10
81.357300
20
38.304000
11
80.413933
21
37.234470
0
LINE
8
Layer 1
10
81.357300
20
43.073900
11
81.357300
21
38.304000
0
LINE
8
Layer 1
10
80.735100
20
43.696100
11
81.357320
21
43.073880
0
LINE
8
Layer 1
10
75.056300
20
54.706800
11
80.735100
21
54.706800
0
LINE
8
Layer 1
10
72.054100
20
54.706800
11
75.056300
21
54.706800
0
LINE
8
Layer 1
10
65.526600
20
54.706800
11
72.054100
21
54.706800
0
LINE
8
Layer 1
10
64.783900
20
54.689600
11
65.526550
21
54.706815
0
LINE
8
Layer 1
10
44.882900
20
52.946200
11
64.783900
21
54.689560
0
LINE
8
Layer 1
10
43.436300
20
52.946200
11
44.882900
21
52.946200
0
LINE
8
Layer 1
10
43.436300
20
55.268800
11
43.436300
21
52.946200
0
LINE
8
Layer 1
10
38.133100
20
55.268800
11
43.436300
21
55.268800
0
LINE
8
Layer 1
10
38.133100
20
52.973500
11
38.133100
21
55.268800
0
LINE
8
Layer 1
10
37.457800
20
52.973500
11
38.133100
21
52.973500
0
LINE
8
Layer 1
10
26.751000
20
54.041600
11
37.457800
21
52.973500
0
LINE
8
Layer 1
10
10.911700
20
54.041600
11
26.751000
21
54.041600
0
LINE
8
Layer 1
10
10.911700
20
56.116100
11
10.911700
21
54.041600
0
LINE
8
Layer 1
10
3.782640
20
29.437300
11
83.001800
21
29.437300
0
LINE
8
Layer 1
10
3.178840
20
30.046900
11
3.353576
21
29.616276
0
LINE
8
Layer 1
10
3.353576
20
29.616276
11
3.782423
21
29.437224
0
LINE
8
Layer 1
10
3.178340
20
30.047400
11
3.181219
21
40.851000
0
LINE
8
Layer 1
10
3.181210
20
55.511800
11
3.181210
21
40.850900
0
LINE
8
Layer 1
10
3.791240
20
56.115800
11
3.360662
21
55.941039
0
LINE
8
Layer 1
10
3.360662
20
55.941039
11
3.181635
21
55.512217
0
LINE
8
Layer 1
10
5.434970
20
56.116100
11
3.791240
21
56.116100
0
LINE
8
Layer 1
10
5.434970
20
54.040100
11
5.434970
21
56.116100
0
LINE
8
Layer 1
10
5.165430
20
53.578500
11
5.434963
21
54.040147
0
LINE
8
Layer 1
10
5.165430
20
52.721100
11
5.165430
21
53.578500
0
LINE
8
Layer 1
10
5.165430
20
51.503900
11
5.165430
21
52.721100
0
LINE
8
Layer 1
10
4.688020
20
51.503900
11
5.165430
21
51.503900
0
LINE
8
Layer 1
10
4.688020
20
49.360600
11
4.688020
21
51.503900
0
LINE
8
Layer 1
10
4.926010
20
43.984300
11
4.688018
21
49.360630
0
LINE
8
Layer 1
10
5.376190
20
38.628000
11
4.926010
21
43.984300
0
LINE
8
Layer 1
10
5.879410
20
33.237300
11
5.376186
21
38.627970
0
LINE
8
Layer 1
10
35.695800
20
30.851700
11
5.879410
21
33.237300
0
LINE
8
Layer 1
10
40.510100
20
30.886100
11
35.695780
21
30.851691
0
LINE
8
Layer 1
10
41.839200
20
32.215100
11
40.510170
21
30.886070
0
LINE
8
Layer 1
10
83.611800
20
40.864600
11
83.611800
21
55.506800
0
LINE
8
Layer 1
10
38.322600
20
27.645600
11
11.054500
21
27.645600
0
LINE
8
Layer 1
10
56.057300
20
27.645600
11
38.322600
21
27.645600
0
LINE
8
Layer 1
10
82.842900
20
27.645600
11
56.057300
21
27.645600
0
LINE
8
Layer 1
10
83.150400
20
27.645600
11
82.842900
21
27.645600
0
LINE
8
Layer 1
10
83.754700
20
27.035600
11
83.579939
21
27.466178
0
LINE
8
Layer 1
10
83.579939
20
27.466178
11
83.151117
21
27.645205
0
LINE
8
Layer 1
10
83.754700
20
12.394000
11
83.754700
21
1.571100
0
LINE
8
Layer 1
10
83.145400
20
0.966730
11
83.575816
21
1.141619
0
LINE
8
Layer 1
10
83.575816
20
1.141619
11
83.754717
21
1.570383
0
LINE
8
Layer 1
10
80.878000
20
26.236300
11
80.878000
21
15.225500
0
LINE
8
Layer 1
10
45.309600
20
3.740270
11
41.982010
21
3.744560
0
LINE
8
Layer 1
10
45.375600
20
2.923070
11
45.309650
21
3.740272
0
LINE
8
Layer 1
10
80.556900
20
3.391880
11
45.375600
21
2.923070
0
LINE
8
Layer 1
10
80.556900
20
8.763910
11
80.556900
21
3.391880
0
LINE
8
Layer 1
10
81.500200
20
9.833440
11
80.556833
21
8.763910
0
LINE
8
Layer 1
10
81.500200
20
14.603300
11
81.500200
21
9.833440
0
LINE
8
Layer 1
10
80.878000
20
15.225500
11
81.500220
21
14.603280
0
LINE
8
Layer 1
10
75.199200
20
26.236300
11
80.878000
21
26.236300
0
LINE
8
Layer 1
10
72.197000
20
26.236300
11
75.199200
21
26.236300
0
LINE
8
Layer 1
10
65.669400
20
26.236300
11
72.197000
21
26.236300
0
LINE
8
Layer 1
10
64.926800
20
26.219100
11
65.669450
21
26.236315
0
LINE
8
Layer 1
10
45.025800
20
24.475700
11
64.926800
21
26.219060
0
LINE
8
Layer 1
10
43.579200
20
24.475700
11
45.025800
21
24.475700
0
LINE
8
Layer 1
10
43.579200
20
26.798300
11
43.579200
21
24.475700
0
LINE
8
Layer 1
10
38.276000
20
26.798300
11
43.579200
21
26.798300
0
LINE
8
Layer 1
10
38.276000
20
24.502900
11
38.276000
21
26.798300
0
LINE
8
Layer 1
10
37.600700
20
24.502900
11
38.276000
21
24.502900
0
LINE
8
Layer 1
10
26.893900
20
25.571000
11
37.600700
21
24.502900
0
LINE
8
Layer 1
10
11.054500
20
25.571000
11
26.893900
21
25.571000
0
LINE
8
Layer 1
10
11.054500
20
27.645600
11
11.054500
21
25.571000
0
LINE
8
Layer 1
10
3.925530
20
0.966801
11
83.144700
21
0.966801
0
LINE
8
Layer 1
10
3.321740
20
1.576410
11
3.496476
21
1.145786
0
LINE
8
Layer 1
10
3.496476
20
1.145786
11
3.925323
21
0.966734
0
LINE
8
Layer 1
10
3.321230
20
1.576830
11
3.324109
21
12.380430
0
LINE
8
Layer 1
10
3.324100
20
27.041300
11
3.324100
21
12.380400
0
LINE
8
Layer 1
10
3.934140
20
27.645200
11
3.503562
21
27.470439
0
LINE
8
Layer 1
10
3.503562
20
27.470439
11
3.324535
21
27.041617
0
LINE
8
Layer 1
10
5.577860
20
27.645600
11
3.934140
21
27.645600
0
LINE
8
Layer 1
10
5.577860
20
25.569600
11
5.577860
21
27.645600
0
LINE
8
Layer 1
10
5.308320
20
25.108000
11
5.577853
21
25.569647
0
LINE
8
Layer 1
10
5.308320
20
24.250600
11
5.308320
21
25.108000
0
LINE
8
Layer 1
10
5.308320
20
23.033400
11
5.308320
21
24.250600
0
LINE
8
Layer 1
10
4.830910
20
23.033400
11
5.308320
21
23.033400
0
LINE
8
Layer 1
10
4.830910
20
20.890000
11
4.830910
21
23.033400
0
LINE
8
Layer 1
10
5.068900
20
15.513700
11
4.830908
21
20.890030
0
LINE
8
Layer 1
10
5.519080
20
10.157500
11
5.068900
21
15.513700
0
LINE
8
Layer 1
10
6.022300
20
4.766790
11
5.519080
21
10.157500
0
LINE
8
Layer 1
10
35.838700
20
2.381130
11
6.022300
21
4.766790
0
LINE
8
Layer 1
10
40.653000
20
2.415540
11
35.838680
21
2.381131
0
LINE
8
Layer 1
10
41.982100
20
3.744570
11
40.653070
21
2.415540
0
LINE
8
Layer 1
10
83.754700
20
12.394000
11
83.754700
21
27.036300
0
LINE
8
Layer 1
10
930.833000
20
-5707.600000
11
1633.850000
21
-5707.600000
0
LINE
8
Layer 1
10
930.268000
20
-6811.370000
11
1673.359000
21
-6811.087778
0
LINE
8
Layer 1
10
31962.800000
20
-5705.620000
11
31542.300000
21
-5705.620000
0
LINE
8
Layer 1
10
32116.400000
20
-6810.520000
11
31581.872000
21
-6811.084444
0
LINE
8
Layer 1
10
690.662000
20
-5945.510000
11
692.637550
21
-6571.196000
0
LINE
8
Layer 1
10
32356.500000
20
-5947.540000
11
32356.314507
21
-5935.670851
0
LINE
8
Layer 1
10
32356.314507
20
-5935.670851
11
32355.541801
21
-5923.877821
0
LINE
8
Layer 1
10
32355.541801
20
-5923.877821
11
32354.189972
21
-5912.180827
0
LINE
8
Layer 1
10
32354.189972
20
-5912.180827
11
32352.267111
21
-5900.599783
0
LINE
8
Layer 1
10
32352.267111
20
-5900.599783
11
32349.781307
21
-5889.154607
0
LINE
8
Layer 1
10
32349.781307
20
-5889.154607
11
32346.740652
21
-5877.865216
0
LINE
8
Layer 1
10
32346.740652
20
-5877.865216
11
32343.153236
21
-5866.751525
0
LINE
8
Layer 1
10
32343.153236
20
-5866.751525
11
32339.027149
21
-5855.833450
0
LINE
8
Layer 1
10
32339.027149
20
-5855.833450
11
32334.370482
21
-5845.130908
0
LINE
8
Layer 1
10
32334.370482
20
-5845.130908
11
32329.191325
21
-5834.663816
0
LINE
8
Layer 1
10
32329.191325
20
-5834.663816
11
32323.497769
21
-5824.452089
0
LINE
8
Layer 1
10
32323.497769
20
-5824.452089
11
32317.297903
21
-5814.515645
0
LINE
8
Layer 1
10
32317.297903
20
-5814.515645
11
32310.599819
21
-5804.874398
0
LINE
8
Layer 1
10
32310.599819
20
-5804.874398
11
32303.411607
21
-5795.548266
0
LINE
8
Layer 1
10
32303.411607
20
-5795.548266
11
32295.741357
21
-5786.557166
0
LINE
8
Layer 1
10
32295.741357
20
-5786.557166
11
32287.597160
21
-5777.921012
0
LINE
8
Layer 1
10
32287.597160
20
-5777.921012
11
32279.032533
21
-5769.701629
0
LINE
8
Layer 1
10
32279.032533
20
-5769.701629
11
32270.108828
21
-5761.953072
0
LINE
8
Layer 1
10
32270.108828
20
-5761.953072
11
32260.845892
21
-5754.683606
0
LINE
8
Layer 1
10
32260.845892
20
-5754.683606
11
32251.263568
21
-5747.901494
0
LINE
8
Layer 1
10
32251.263568
20
-5747.901494
11
32241.381703
21
-5741.615001
0
LINE
8
Layer 1
10
32241.381703
20
-5741.615001
11
32231.220139
21
-5735.832392
0
LINE
8
Layer 1
10
32231.220139
20
-5735.832392
11
32220.798723
21
-5730.561930
0
LINE
8
Layer 1
10
32220.798723
20
-5730.561930
11
32210.137299
21
-5725.811879
0
LINE
8
Layer 1
10
32210.137299
20
-5725.811879
11
32199.255711
21
-5721.590504
0
LINE
8
Layer 1
10
32199.255711
20
-5721.590504
11
32188.173806
21
-5717.906070
0
LINE
8
Layer 1
10
32188.173806
20
-5717.906070
11
32176.911427
21
-5714.766839
0
LINE
8
Layer 1
10
32176.911427
20
-5714.766839
11
32165.488419
21
-5712.181077
0
LINE
8
Layer 1
10
32165.488419
20
-5712.181077
11
32153.924628
21
-5710.157048
0
LINE
8
Layer 1
10
32153.924628
20
-5710.157048
11
32142.239898
21
-5708.703016
0
LINE
8
Layer 1
10
32142.239898
20
-5708.703016
11
32130.454074
21
-5707.827245
0
LINE
8
Layer 1
10
32130.454074
20
-5707.827245
11
32118.587000
21
-5707.538000
0
LINE
8
Layer 1
10
930.861000
20
-5707.540000
11
918.996397
21
-5707.725311
0
LINE
8
Layer 1
10
918.996397
20
-5707.725311
11
907.207824
21
-5708.497389
0
LINE
8
Layer 1
10
907.207824
20
-5708.497389
11
895.515175
21
-5709.848157
0
LINE
8
Layer 1
10
895.515175
20
-5709.848157
11
883.938345
21
-5711.769537
0
LINE
8
Layer 1
10
883.938345
20
-5711.769537
11
872.497229
21
-5714.253449
0
LINE
8
Layer 1
10
872.497229
20
-5714.253449
11
861.211724
21
-5717.291815
0
LINE
8
Layer 1
10
861.211724
20
-5717.291815
11
850.101722
21
-5720.876558
0
LINE
8
Layer 1
10
850.101722
20
-5720.876558
11
839.187121
21
-5724.999598
0
LINE
8
Layer 1
10
839.187121
20
-5724.999598
11
828.487814
21
-5729.652857
0
LINE
8
Layer 1
10
828.487814
20
-5729.652857
11
818.023698
21
-5734.828257
0
LINE
8
Layer 1
10
818.023698
20
-5734.828257
11
807.814666
21
-5740.517720
0
LINE
8
Layer 1
10
807.814666
20
-5740.517720
11
797.880615
21
-5746.713167
0
LINE
8
Layer 1
10
797.880615
20
-5746.713167
11
788.241439
21
-5753.406520
0
LINE
8
Layer 1
10
788.241439
20
-5753.406520
11
778.917033
21
-5760.589700
0
LINE
8
Layer 1
10
778.917033
20
-5760.589700
11
769.927292
21
-5768.254629
0
LINE
8
Layer 1
10
769.927292
20
-5768.254629
11
761.292112
21
-5776.393229
0
LINE
8
Layer 1
10
761.292112
20
-5776.393229
11
753.073260
21
-5784.952060
0
LINE
8
Layer 1
10
753.073260
20
-5784.952060
11
745.324748
21
-5793.869859
0
LINE
8
Layer 1
10
745.324748
20
-5793.869859
11
738.054840
21
-5803.126805
0
LINE
8
Layer 1
10
738.054840
20
-5803.126805
11
731.271800
21
-5812.703081
0
LINE
8
Layer 1
10
731.271800
20
-5812.703081
11
724.983891
21
-5822.578866
0
LINE
8
Layer 1
10
724.983891
20
-5822.578866
11
719.199377
21
-5832.734343
0
LINE
8
Layer 1
10
719.199377
20
-5832.734343
11
713.926522
21
-5843.149693
0
LINE
8
Layer 1
10
713.926522
20
-5843.149693
11
709.173590
21
-5853.805096
0
LINE
8
Layer 1
10
709.173590
20
-5853.805096
11
704.948844
21
-5864.680735
0
LINE
8
Layer 1
10
704.948844
20
-5864.680735
11
701.260549
21
-5875.756789
0
LINE
8
Layer 1
10
701.260549
20
-5875.756789
11
698.116968
21
-5887.013441
0
LINE
8
Layer 1
10
698.116968
20
-5887.013441
11
695.526364
21
-5898.430871
0
LINE
8
Layer 1
10
695.526364
20
-5898.430871
11
693.497001
21
-5909.989261
0
LINE
8
Layer 1
10
693.497001
20
-5909.989261
11
692.037144
21
-5921.668791
0
LINE
8
Layer 1
10
692.037144
20
-5921.668791
11
691.155056
21
-5933.449644
0
LINE
8
Layer 1
10
691.155056
20
-5933.449644
11
690.859000
21
-5945.312000
0
LINE
8
Layer 1
10
31542.300000
20
-5705.620000
11
30581.052000
21
-5707.595550
0
LINE
8
Layer 1
10
32356.300000
20
-6572.610000
11
32356.300000
21
-5947.770000
0
LINE
8
Layer 1
10
30581.100000
20
-5707.600000
11
1633.850000
21
-5707.600000
0
LINE
8
Layer 1
10
32118.600000
20
-5707.600000
11
31962.813000
21
-5705.624450
0
LINE
8
Layer 1
10
31581.800000
20
-6811.090000
11
1673.360000
21
-6811.090000
0
LINE
8
Layer 1
10
32116.400000
20
-6810.380000
11
32128.270232
21
-6810.202903
0
LINE
8
Layer 1
10
32128.270232
20
-6810.202903
11
32140.064743
21
-6809.438446
0
LINE
8
Layer 1
10
32140.064743
20
-6809.438446
11
32151.763608
21
-6808.094707
0
LINE
8
Layer 1
10
32151.763608
20
-6808.094707
11
32163.346899
21
-6806.179764
0
LINE
8
Layer 1
10
32163.346899
20
-6806.179764
11
32174.794691
21
-6803.701697
0
LINE
8
Layer 1
10
32174.794691
20
-6803.701697
11
32186.087056
21
-6800.668585
0
LINE
8
Layer 1
10
32186.087056
20
-6800.668585
11
32197.204068
21
-6797.088506
0
LINE
8
Layer 1
10
32197.204068
20
-6797.088506
11
32208.125801
21
-6792.969539
0
LINE
8
Layer 1
10
32208.125801
20
-6792.969539
11
32218.832329
21
-6788.319763
0
LINE
8
Layer 1
10
32218.832329
20
-6788.319763
11
32229.303723
21
-6783.147256
0
LINE
8
Layer 1
10
32229.303723
20
-6783.147256
11
32239.520059
21
-6777.460098
0
LINE
8
Layer 1
10
32239.520059
20
-6777.460098
11
32249.461409
21
-6771.266368
0
LINE
8
Layer 1
10
32249.461409
20
-6771.266368
11
32259.107848
21
-6764.574143
0
LINE
8
Layer 1
10
32259.107848
20
-6764.574143
11
32268.439448
21
-6757.391503
0
LINE
8
Layer 1
10
32268.439448
20
-6757.391503
11
32277.436282
21
-6749.726527
0
LINE
8
Layer 1
10
32277.436282
20
-6749.726527
11
32286.078426
21
-6741.587294
0
LINE
8
Layer 1
10
32286.078426
20
-6741.587294
11
32294.304004
21
-6733.027292
0
LINE
8
Layer 1
10
32294.304004
20
-6733.027292
11
32302.058910
21
-6724.107856
0
LINE
8
Layer 1
10
32302.058910
20
-6724.107856
11
32309.334864
21
-6714.848830
0
LINE
8
Layer 1
10
32309.334864
20
-6714.848830
11
32316.123588
21
-6705.270058
0
LINE
8
Layer 1
10
32316.123588
20
-6705.270058
11
32322.416804
21
-6695.391385
0
LINE
8
Layer 1
10
32322.416804
20
-6695.391385
11
32328.206233
21
-6685.232656
0
LINE
8
Layer 1
10
32328.206233
20
-6685.232656
11
32333.483597
21
-6674.813713
0
LINE
8
Layer 1
10
32333.483597
20
-6674.813713
11
32338.240618
21
-6664.154403
0
LINE
8
Layer 1
10
32338.240618
20
-6664.154403
11
32342.469016
21
-6653.274569
0
LINE
8
Layer 1
10
32342.469016
20
-6653.274569
11
32346.160514
21
-6642.194056
0
LINE
8
Layer 1
10
32346.160514
20
-6642.194056
11
32349.306833
21
-6630.932708
0
LINE
8
Layer 1
10
32349.306833
20
-6630.932708
11
32351.899695
21
-6619.510369
0
LINE
8
Layer 1
10
32351.899695
20
-6619.510369
11
32353.930821
21
-6607.946885
0
LINE
8
Layer 1
10
32353.930821
20
-6607.946885
11
32355.391933
21
-6596.262099
0
LINE
8
Layer 1
10
32355.391933
20
-6596.262099
11
32356.274752
21
-6584.475856
0
LINE
8
Layer 1
10
32356.274752
20
-6584.475856
11
32356.571000
21
-6572.608000
0
LINE
8
Layer 1
10
692.637000
20
-6571.200000
11
692.822311
21
-6583.064603
0
LINE
8
Layer 1
10
692.822311
20
-6583.064603
11
693.594389
21
-6594.853176
0
LINE
8
Layer 1
10
693.594389
20
-6594.853176
11
694.945157
21
-6606.545825
0
LINE
8
Layer 1
10
694.945157
20
-6606.545825
11
696.866537
21
-6618.122655
0
LINE
8
Layer 1
10
696.866537
20
-6618.122655
11
699.350449
21
-6629.563771
0
LINE
8
Layer 1
10
699.350449
20
-6629.563771
11
702.388815
21
-6640.849276
0
LINE
8
Layer 1
10
702.388815
20
-6640.849276
11
705.973558
21
-6651.959278
0
LINE
8
Layer 1
10
705.973558
20
-6651.959278
11
710.096598
21
-6662.873879
0
LINE
8
Layer 1
10
710.096598
20
-6662.873879
11
714.749857
21
-6673.573186
0
LINE
8
Layer 1
10
714.749857
20
-6673.573186
11
719.925257
21
-6684.037302
0
LINE
8
Layer 1
10
719.925257
20
-6684.037302
11
725.614720
21
-6694.246334
0
LINE
8
Layer 1
10
725.614720
20
-6694.246334
11
731.810167
21
-6704.180385
0
LINE
8
Layer 1
10
731.810167
20
-6704.180385
11
738.503520
21
-6713.819561
0
LINE
8
Layer 1
10
738.503520
20
-6713.819561
11
745.686700
21
-6723.143967
0
LINE
8
Layer 1
10
745.686700
20
-6723.143967
11
753.351629
21
-6732.133708
0
LINE
8
Layer 1
10
753.351629
20
-6732.133708
11
761.490229
21
-6740.768888
0
LINE
8
Layer 1
10
761.490229
20
-6740.768888
11
770.049060
21
-6748.987740
0
LINE
8
Layer 1
10
770.049060
20
-6748.987740
11
778.966859
21
-6756.736252
0
LINE
8
Layer 1
10
778.966859
20
-6756.736252
11
788.223805
21
-6764.006160
0
LINE
8
Layer 1
10
788.223805
20
-6764.006160
11
797.800081
21
-6770.789200
0
LINE
8
Layer 1
10
797.800081
20
-6770.789200
11
807.675866
21
-6777.077109
0
LINE
8
Layer 1
10
807.675866
20
-6777.077109
11
817.831343
21
-6782.861623
0
LINE
8
Layer 1
10
817.831343
20
-6782.861623
11
828.246693
21
-6788.134478
0
LINE
8
Layer 1
10
828.246693
20
-6788.134478
11
838.902096
21
-6792.887410
0
LINE
8
Layer 1
10
838.902096
20
-6792.887410
11
849.777735
21
-6797.112156
0
LINE
8
Layer 1
10
849.777735
20
-6797.112156
11
860.853789
21
-6800.800451
0
LINE
8
Layer 1
10
860.853789
20
-6800.800451
11
872.110441
21
-6803.944032
0
LINE
8
Layer 1
10
872.110441
20
-6803.944032
11
883.527871
21
-6806.534636
0
LINE
8
Layer 1
10
883.527871
20
-6806.534636
11
895.086261
21
-6808.563999
0
LINE
8
Layer 1
10
895.086261
20
-6808.563999
11
906.765791
21
-6810.023856
0
LINE
8
Layer 1
10
906.765791
20
-6810.023856
11
918.546644
21
-6810.905944
0
LINE
8
Layer 1
10
918.546644
20
-6810.905944
11
930.409000
21
-6811.202000
0
LINE
8
Layer 1
10
952.846000
20
-4974.100000
11
1633.848000
21
-4973.817778
0
LINE
8
Layer 1
10
32138.900000
20
-4973.260000
11
31542.300000
21
-4973.260000
0
LINE
8
Layer 1
10
715.215000
20
-4733.930000
11
715.400311
21
-4745.794603
0
LINE
8
Layer 1
10
715.400311
20
-4745.794603
11
716.172389
21
-4757.583176
0
LINE
8
Layer 1
10
716.172389
20
-4757.583176
11
717.523157
21
-4769.275825
0
LINE
8
Layer 1
10
717.523157
20
-4769.275825
11
719.444537
21
-4780.852655
0
LINE
8
Layer 1
10
719.444537
20
-4780.852655
11
721.928449
21
-4792.293771
0
LINE
8
Layer 1
10
721.928449
20
-4792.293771
11
724.966815
21
-4803.579276
0
LINE
8
Layer 1
10
724.966815
20
-4803.579276
11
728.551558
21
-4814.689278
0
LINE
8
Layer 1
10
728.551558
20
-4814.689278
11
732.674598
21
-4825.603879
0
LINE
8
Layer 1
10
732.674598
20
-4825.603879
11
737.327857
21
-4836.303186
0
LINE
8
Layer 1
10
737.327857
20
-4836.303186
11
742.503257
21
-4846.767302
0
LINE
8
Layer 1
10
742.503257
20
-4846.767302
11
748.192720
21
-4856.976334
0
LINE
8
Layer 1
10
748.192720
20
-4856.976334
11
754.388167
21
-4866.910385
0
LINE
8
Layer 1
10
754.388167
20
-4866.910385
11
761.081520
21
-4876.549561
0
LINE
8
Layer 1
10
761.081520
20
-4876.549561
11
768.264700
21
-4885.873967
0
LINE
8
Layer 1
10
768.264700
20
-4885.873967
11
775.929629
21
-4894.863708
0
LINE
8
Layer 1
10
775.929629
20
-4894.863708
11
784.068229
21
-4903.498888
0
LINE
8
Layer 1
10
784.068229
20
-4903.498888
11
792.627060
21
-4911.717740
0
LINE
8
Layer 1
10
792.627060
20
-4911.717740
11
801.544859
21
-4919.466252
0
LINE
8
Layer 1
10
801.544859
20
-4919.466252
11
810.801805
21
-4926.736160
0
LINE
8
Layer 1
10
810.801805
20
-4926.736160
11
820.378081
21
-4933.519200
0
LINE
8
Layer 1
10
820.378081
20
-4933.519200
11
830.253866
21
-4939.807109
0
LINE
8
Layer 1
10
830.253866
20
-4939.807109
11
840.409343
21
-4945.591623
0
LINE
8
Layer 1
10
840.409343
20
-4945.591623
11
850.824693
21
-4950.864478
0
LINE
8
Layer 1
10
850.824693
20
-4950.864478
11
861.480096
21
-4955.617410
0
LINE
8
Layer 1
10
861.480096
20
-4955.617410
11
872.355735
21
-4959.842156
0
LINE
8
Layer 1
10
872.355735
20
-4959.842156
11
883.431789
21
-4963.530451
0
LINE
8
Layer 1
10
883.431789
20
-4963.530451
11
894.688441
21
-4966.674032
0
LINE
8
Layer 1
10
894.688441
20
-4966.674032
11
906.105871
21
-4969.264636
0
LINE
8
Layer 1
10
906.105871
20
-4969.264636
11
917.664261
21
-4971.293999
0
LINE
8
Layer 1
10
917.664261
20
-4971.293999
11
929.343791
21
-4972.753856
0
LINE
8
Layer 1
10
929.343791
20
-4972.753856
11
941.124644
21
-4973.635944
0
LINE
8
Layer 1
10
941.124644
20
-4973.635944
11
952.987000
21
-4973.932000
0
LINE
8
Layer 1
10
31542.300000
20
-4973.260000
11
1633.800000
21
-4973.824444
0
LINE
8
Layer 1
10
32138.900000
20
-4973.110000
11
32150.770232
21
-4972.932903
0
LINE
8
Layer 1
10
32150.770232
20
-4972.932903
11
32162.564743
21
-4972.168446
0
LINE
8
Layer 1
10
32162.564743
20
-4972.168446
11
32174.263608
21
-4970.824707
0
LINE
8
Layer 1
10
32174.263608
20
-4970.824707
11
32185.846899
21
-4968.909764
0
LINE
8
Layer 1
10
32185.846899
20
-4968.909764
11
32197.294691
21
-4966.431697
0
LINE
8
Layer 1
10
32197.294691
20
-4966.431697
11
32208.587056
21
-4963.398585
0
LINE
8
Layer 1
10
32208.587056
20
-4963.398585
11
32219.704068
21
-4959.818506
0
LINE
8
Layer 1
10
32219.704068
20
-4959.818506
11
32230.625801
21
-4955.699539
0
LINE
8
Layer 1
10
32230.625801
20
-4955.699539
11
32241.332329
21
-4951.049763
0
LINE
8
Layer 1
10
32241.332329
20
-4951.049763
11
32251.803723
21
-4945.877256
0
LINE
8
Layer 1
10
32251.803723
20
-4945.877256
11
32262.020059
21
-4940.190098
0
LINE
8
Layer 1
10
32262.020059
20
-4940.190098
11
32271.961409
21
-4933.996368
0
LINE
8
Layer 1
10
32271.961409
20
-4933.996368
11
32281.607848
21
-4927.304143
0
LINE
8
Layer 1
10
32281.607848
20
-4927.304143
11
32290.939448
21
-4920.121503
0
LINE
8
Layer 1
10
32290.939448
20
-4920.121503
11
32299.936282
21
-4912.456527
0
LINE
8
Layer 1
10
32299.936282
20
-4912.456527
11
32308.578426
21
-4904.317294
0
LINE
8
Layer 1
10
32308.578426
20
-4904.317294
11
32316.804004
21
-4895.757292
0
LINE
8
Layer 1
10
32316.804004
20
-4895.757292
11
32324.558910
21
-4886.837856
0
LINE
8
Layer 1
10
32324.558910
20
-4886.837856
11
32331.834864
21
-4877.578830
0
LINE
8
Layer 1
10
32331.834864
20
-4877.578830
11
32338.623588
21
-4868.000058
0
LINE
8
Layer 1
10
32338.623588
20
-4868.000058
11
32344.916804
21
-4858.121385
0
LINE
8
Layer 1
10
32344.916804
20
-4858.121385
11
32350.706233
21
-4847.962656
0
LINE
8
Layer 1
10
32350.706233
20
-4847.962656
11
32355.983597
21
-4837.543713
0
LINE
8
Layer 1
10
32355.983597
20
-4837.543713
11
32360.740618
21
-4826.884403
0
LINE
8
Layer 1
10
32360.740618
20
-4826.884403
11
32364.969016
21
-4816.004569
0
LINE
8
Layer 1
10
32364.969016
20
-4816.004569
11
32368.660514
21
-4804.924056
0
LINE
8
Layer 1
10
32368.660514
20
-4804.924056
11
32371.806833
21
-4793.662708
0
LINE
8
Layer 1
10
32371.806833
20
-4793.662708
11
32374.399695
21
-4782.240369
0
LINE
8
Layer 1
10
32374.399695
20
-4782.240369
11
32376.430821
21
-4770.676885
0
LINE
8
Layer 1
10
32376.430821
20
-4770.676885
11
32377.891933
21
-4758.992099
0
LINE
8
Layer 1
10
32377.891933
20
-4758.992099
11
32378.774752
21
-4747.205856
0
LINE
8
Layer 1
10
32378.774752
20
-4747.205856
11
32379.071000
21
-4735.338000
0
LINE
8
Layer 1
10
32378.800000
20
-4735.340000
11
32378.800000
21
-4110.500000
0
LINE
8
Layer 1
10
30603.700000
20
-3870.330000
11
953.411000
21
-3870.330000
0
LINE
8
Layer 1
10
713.240000
20
-4108.250000
11
715.215550
21
-4733.936000
0
LINE
8
Layer 1
10
32379.100000
20
-4110.280000
11
32378.914507
21
-4098.410851
0
LINE
8
Layer 1
10
32378.914507
20
-4098.410851
11
32378.141801
21
-4086.617821
0
LINE
8
Layer 1
10
32378.141801
20
-4086.617821
11
32376.789972
21
-4074.920827
0
LINE
8
Layer 1
10
32376.789972
20
-4074.920827
11
32374.867111
21
-4063.339783
0
LINE
8
Layer 1
10
32374.867111
20
-4063.339783
11
32372.381307
21
-4051.894607
0
LINE
8
Layer 1
10
32372.381307
20
-4051.894607
11
32369.340652
21
-4040.605216
0
LINE
8
Layer 1
10
32369.340652
20
-4040.605216
11
32365.753236
21
-4029.491525
0
LINE
8
Layer 1
10
32365.753236
20
-4029.491525
11
32361.627149
21
-4018.573450
0
LINE
8
Layer 1
10
32361.627149
20
-4018.573450
11
32356.970482
21
-4007.870908
0
LINE
8
Layer 1
10
32356.970482
20
-4007.870908
11
32351.791325
21
-3997.403816
0
LINE
8
Layer 1
10
32351.791325
20
-3997.403816
11
32346.097769
21
-3987.192089
0
LINE
8
Layer 1
10
32346.097769
20
-3987.192089
11
32339.897903
21
-3977.255645
0
LINE
8
Layer 1
10
32339.897903
20
-3977.255645
11
32333.199819
21
-3967.614398
0
LINE
8
Layer 1
10
32333.199819
20
-3967.614398
11
32326.011607
21
-3958.288266
0
LINE
8
Layer 1
10
32326.011607
20
-3958.288266
11
32318.341357
21
-3949.297166
0
LINE
8
Layer 1
10
32318.341357
20
-3949.297166
11
32310.197160
21
-3940.661012
0
LINE
8
Layer 1
10
32310.197160
20
-3940.661012
11
32301.632533
21
-3932.441629
0
LINE
8
Layer 1
10
32301.632533
20
-3932.441629
11
32292.708828
21
-3924.693072
0
LINE
8
Layer 1
10
32292.708828
20
-3924.693072
11
32283.445892
21
-3917.423606
0
LINE
8
Layer 1
10
32283.445892
20
-3917.423606
11
32273.863568
21
-3910.641494
0
LINE
8
Layer 1
10
32273.863568
20
-3910.641494
11
32263.981703
21
-3904.355001
0
LINE
8
Layer 1
10
32263.981703
20
-3904.355001
11
32253.820139
21
-3898.572392
0
LINE
8
Layer 1
10
32253.820139
20
-3898.572392
11
32243.398723
21
-3893.301930
0
LINE
8
Layer 1
10
32243.398723
20
-3893.301930
11
32232.737299
21
-3888.551879
0
LINE
8
Layer 1
10
32232.737299
20
-3888.551879
11
32221.855711
21
-3884.330504
0
LINE
8
Layer 1
10
32221.855711
20
-3884.330504
11
32210.773806
21
-3880.646070
0
LINE
8
Layer 1
10
32210.773806
20
-3880.646070
11
32199.511427
21
-3877.506839
0
LINE
8
Layer 1
10
32199.511427
20
-3877.506839
11
32188.088419
21
-3874.921077
0
LINE
8
Layer 1
10
32188.088419
20
-3874.921077
11
32176.524628
21
-3872.897048
0
LINE
8
Layer 1
10
32176.524628
20
-3872.897048
11
32164.839898
21
-3871.443016
0
LINE
8
Layer 1
10
32164.839898
20
-3871.443016
11
32153.054074
21
-3870.567245
0
LINE
8
Layer 1
10
32153.054074
20
-3870.567245
11
32141.187000
21
-3870.278000
0
LINE
8
Layer 1
10
953.439000
20
-3870.280000
11
941.574397
21
-3870.465311
0
LINE
8
Layer 1
10
941.574397
20
-3870.465311
11
929.785824
21
-3871.237389
0
LINE
8
Layer 1
10
929.785824
20
-3871.237389
11
918.093175
21
-3872.588157
0
LINE
8
Layer 1
10
918.093175
20
-3872.588157
11
906.516345
21
-3874.509537
0
LINE
8
Layer 1
10
906.516345
20
-3874.509537
11
895.075229
21
-3876.993449
0
LINE
8
Layer 1
10
895.075229
20
-3876.993449
11
883.789724
21
-3880.031815
0
LINE
8
Layer 1
10
883.789724
20
-3880.031815
11
872.679722
21
-3883.616558
0
LINE
8
Layer 1
10
872.679722
20
-3883.616558
11
861.765121
21
-3887.739598
0
LINE
8
Layer 1
10
861.765121
20
-3887.739598
11
851.065814
21
-3892.392857
0
LINE
8
Layer 1
10
851.065814
20
-3892.392857
11
840.601698
21
-3897.568257
0
LINE
8
Layer 1
10
840.601698
20
-3897.568257
11
830.392666
21
-3903.257720
0
LINE
8
Layer 1
10
830.392666
20
-3903.257720
11
820.458615
21
-3909.453167
0
LINE
8
Layer 1
10
820.458615
20
-3909.453167
11
810.819439
21
-3916.146520
0
LINE
8
Layer 1
10
810.819439
20
-3916.146520
11
801.495033
21
-3923.329700
0
LINE
8
Layer 1
10
801.495033
20
-3923.329700
11
792.505292
21
-3930.994629
0
LINE
8
Layer 1
10
792.505292
20
-3930.994629
11
783.870112
21
-3939.133229
0
LINE
8
Layer 1
10
783.870112
20
-3939.133229
11
775.651260
21
-3947.692060
0
LINE
8
Layer 1
10
775.651260
20
-3947.692060
11
767.902748
21
-3956.609859
0
LINE
8
Layer 1
10
767.902748
20
-3956.609859
11
760.632840
21
-3965.866805
0
LINE
8
Layer 1
10
760.632840
20
-3965.866805
11
753.849800
21
-3975.443081
0
LINE
8
Layer 1
10
753.849800
20
-3975.443081
11
747.561891
21
-3985.318866
0
LINE
8
Layer 1
10
747.561891
20
-3985.318866
11
741.777377
21
-3995.474343
0
LINE
8
Layer 1
10
741.777377
20
-3995.474343
11
736.504522
21
-4005.889693
0
LINE
8
Layer 1
10
736.504522
20
-4005.889693
11
731.751590
21
-4016.545096
0
LINE
8
Layer 1
10
731.751590
20
-4016.545096
11
727.526844
21
-4027.420735
0
LINE
8
Layer 1
10
727.526844
20
-4027.420735
11
723.838549
21
-4038.496789
0
LINE
8
Layer 1
10
723.838549
20
-4038.496789
11
720.694968
21
-4049.753441
0
LINE
8
Layer 1
10
720.694968
20
-4049.753441
11
718.104364
21
-4061.170871
0
LINE
8
Layer 1
10
718.104364
20
-4061.170871
11
716.075001
21
-4072.729261
0
LINE
8
Layer 1
10
716.075001
20
-4072.729261
11
714.615144
21
-4084.408791
0
LINE
8
Layer 1
10
714.615144
20
-4084.408791
11
713.733056
21
-4096.189644
0
LINE
8
Layer 1
10
713.733056
20
-4096.189644
11
713.437000
21
-4108.052000
0
LINE
8
Layer 1
10
32141.200000
20
-3870.330000
11
31985.413000
21
-3868.354450
0
LINE
8
Layer 1
10
31985.400000
20
-3868.360000
11
30603.640000
21
-3870.335550
0
LINE
8
Layer 1
10
930.833000
20
-5707.600000
11
1633.850000
21
-5707.600000
0
LINE
8
Layer 1
10
930.268000
20
-6811.370000
11
1673.359000
21
-6811.087778
0
LINE
8
Layer 1
10
31962.800000
20
-5705.620000
11
31542.300000
21
-5705.620000
0
LINE
8
Layer 1
10
32116.400000
20
-6810.520000
11
31581.872000
21
-6811.084444
0
LINE
8
Layer 1
10
690.662000
20
-5945.510000
11
692.637550
21
-6571.196000
0
LINE
8
Layer 1
10
32356.500000
20
-5947.540000
11
32356.314507
21
-5935.670851
0
LINE
8
Layer 1
10
32356.314507
20
-5935.670851
11
32355.541801
21
-5923.877821
0
LINE
8
Layer 1
10
32355.541801
20
-5923.877821
11
32354.189972
21
-5912.180827
0
LINE
8
Layer 1
10
32354.189972
20
-5912.180827
11
32352.267111
21
-5900.599783
0
LINE
8
Layer 1
10
32352.267111
20
-5900.599783
11
32349.781307
21
-5889.154607
0
LINE
8
Layer 1
10
32349.781307
20
-5889.154607
11
32346.740652
21
-5877.865216
0
LINE
8
Layer 1
10
32346.740652
20
-5877.865216
11
32343.153236
21
-5866.751525
0
LINE
8
Layer 1
10
32343.153236
20
-5866.751525
11
32339.027149
21
-5855.833450
0
LINE
8
Layer 1
10
32339.027149
20
-5855.833450
11
32334.370482
21
-5845.130908
0
LINE
8
Layer 1
10
32334.370482
20
-5845.130908
11
32329.191325
21
-5834.663816
0
LINE
8
Layer 1
10
32329.191325
20
-5834.663816
11
32323.497769
21
-5824.452089
0
LINE
8
Layer 1
10
32323.497769
20
-5824.452089
11
32317.297903
21
-5814.515645
0
LINE
8
Layer 1
10
32317.297903
20
-5814.515645
11
32310.599819
21
-5804.874398
0
LINE
8
Layer 1
10
32310.599819
20
-5804.874398
11
32303.411607
21
-5795.548266
0
LINE
8
Layer 1
10
32303.411607
20
-5795.548266
11
32295.741357
21
-5786.557166
0
LINE
8
Layer 1
10
32295.741357
20
-5786.557166
11
32287.597160
21
-5777.921012
0
LINE
8
Layer 1
10
32287.597160
20
-5777.921012
11
32279.032533
21
-5769.701629
0
LINE
8
Layer 1
10
32279.032533
20
-5769.701629
11
32270.108828
21
-5761.953072
0
LINE
8
Layer 1
10
32270.108828
20
-5761.953072
11
32260.845892
21
-5754.683606
0
LINE
8
Layer 1
10
32260.845892
20
-5754.683606
11
32251.263568
21
-5747.901494
0
LINE
8
Layer 1
10
32251.263568
20
-5747.901494
11
32241.381703
21
-5741.615001
0
LINE
8
Layer 1
10
32241.381703
20
-5741.615001
11
32231.220139
21
-5735.832392
0
LINE
8
Layer 1
10
32231.220139
20
-5735.832392
11
32220.798723
21
-5730.561930
0
LINE
8
Layer 1
10
32220.798723
20
-5730.561930
11
32210.137299
21
-5725.811879
0
LINE
8
Layer 1
10
32210.137299
20
-5725.811879
11
32199.255711
21
-5721.590504
0
LINE
8
Layer 1
10
32199.255711
20
-5721.590504
11
32188.173806
21
-5717.906070
0
LINE
8
Layer 1
10
32188.173806
20
-5717.906070
11
32176.911427
21
-5714.766839
0
LINE
8
Layer 1
10
32176.911427
20
-5714.766839
11
32165.488419
21
-5712.181077
0
LINE
8
Layer 1
10
32165.488419
20
-5712.181077
11
32153.924628
21
-5710.157048
0
LINE
8
Layer 1
10
32153.924628
20
-5710.157048
11
32142.239898
21
-5708.703016
0
LINE
8
Layer 1
10
32142.239898
20
-5708.703016
11
32130.454074
21
-5707.827245
0
LINE
8
Layer 1
10
32130.454074
20
-5707.827245
11
32118.587000
21
-5707.538000
0
LINE
8
Layer 1
10
930.861000
20
-5707.540000
11
918.996397
21
-5707.725311
0
LINE
8
Layer 1
10
918.996397
20
-5707.725311
11
907.207824
21
-5708.497389
0
LINE
8
Layer 1
10
907.207824
20
-5708.497389
11
895.515175
21
-5709.848157
0
LINE
8
Layer 1
10
895.515175
20
-5709.848157
11
883.938345
21
-5711.769537
0
LINE
8
Layer 1
10
883.938345
20
-5711.769537
11
872.497229
21
-5714.253449
0
LINE
8
Layer 1
10
872.497229
20
-5714.253449
11
861.211724
21
-5717.291815
0
LINE
8
Layer 1
10
861.211724
20
-5717.291815
11
850.101722
21
-5720.876558
0
LINE
8
Layer 1
10
850.101722
20
-5720.876558
11
839.187121
21
-5724.999598
0
LINE
8
Layer 1
10
839.187121
20
-5724.999598
11
828.487814
21
-5729.652857
0
LINE
8
Layer 1
10
828.487814
20
-5729.652857
11
818.023698
21
-5734.828257
0
LINE
8
Layer 1
10
818.023698
20
-5734.828257
11
807.814666
21
-5740.517720
0
LINE
8
Layer 1
10
807.814666
20
-5740.517720
11
797.880615
21
-5746.713167
0
LINE
8
Layer 1
10
797.880615
20
-5746.713167
11
788.241439
21
-5753.406520
0
LINE
8
Layer 1
10
788.241439
20
-5753.406520
11
778.917033
21
-5760.589700
0
LINE
8
Layer 1
10
778.917033
20
-5760.589700
11
769.927292
21
-5768.254629
0
LINE
8
Layer 1
10
769.927292
20
-5768.254629
11
761.292112
21
-5776.393229
0
LINE
8
Layer 1
10
761.292112
20
-5776.393229
11
753.073260
21
-5784.952060
0
LINE
8
Layer 1
10
753.073260
20
-5784.952060
11
745.324748
21
-5793.869859
0
LINE
8
Layer 1
10
745.324748
20
-5793.869859
11
738.054840
21
-5803.126805
0
LINE
8
Layer 1
10
738.054840
20
-5803.126805
11
731.271800
21
-5812.703081
0
LINE
8
Layer 1
10
731.271800
20
-5812.703081
11
724.983891
21
-5822.578866
0
LINE
8
Layer 1
10
724.983891
20
-5822.578866
11
719.199377
21
-5832.734343
0
LINE
8
Layer 1
10
719.199377
20
-5832.734343
11
713.926522
21
-5843.149693
0
LINE
8
Layer 1
10
713.926522
20
-5843.149693
11
709.173590
21
-5853.805096
0
LINE
8
Layer 1
10
709.173590
20
-5853.805096
11
704.948844
21
-5864.680735
0
LINE
8
Layer 1
10
704.948844
20
-5864.680735
11
701.260549
21
-5875.756789
0
LINE
8
Layer 1
10
701.260549
20
-5875.756789
11
698.116968
21
-5887.013441
0
LINE
8
Layer 1
10
698.116968
20
-5887.013441
11
695.526364
21
-5898.430871
0
LINE
8
Layer 1
10
695.526364
20
-5898.430871
11
693.497001
21
-5909.989261
0
LINE
8
Layer 1
10
693.497001
20
-5909.989261
11
692.037144
21
-5921.668791
0
LINE
8
Layer 1
10
692.037144
20
-5921.668791
11
691.155056
21
-5933.449644
0
LINE
8
Layer 1
10
691.155056
20
-5933.449644
11
690.859000
21
-5945.312000
0
LINE
8
Layer 1
10
31542.300000
20
-5705.620000
11
30581.052000
21
-5707.595550
0
LINE
8
Layer 1
10
32356.300000
20
-6572.610000
11
32356.300000
21
-5947.770000
0
LINE
8
Layer 1
10
30581.100000
20
-5707.600000
11
1633.850000
21
-5707.600000
0
LINE
8
Layer 1
10
32118.600000
20
-5707.600000
11
31962.813000
21
-5705.624450
0
LINE
8
Layer 1
10
31581.800000
20
-6811.090000
11
1673.360000
21
-6811.090000
0
LINE
8
Layer 1
10
32116.400000
20
-6810.380000
11
32128.270232
21
-6810.202903
0
LINE
8
Layer 1
10
32128.270232
20
-6810.202903
11
32140.064743
21
-6809.438446
0
LINE
8
Layer 1
10
32140.064743
20
-6809.438446
11
32151.763608
21
-6808.094707
0
LINE
8
Layer 1
10
32151.763608
20
-6808.094707
11
32163.346899
21
-6806.179764
0
LINE
8
Layer 1
10
32163.346899
20
-6806.179764
11
32174.794691
21
-6803.701697
0
LINE
8
Layer 1
10
32174.794691
20
-6803.701697
11
32186.087056
21
-6800.668585
0
LINE
8
Layer 1
10
32186.087056
20
-6800.668585
11
32197.204068
21
-6797.088506
0
LINE
8
Layer 1
10
32197.204068
20
-6797.088506
11
32208.125801
21
-6792.969539
0
LINE
8
Layer 1
10
32208.125801
20
-6792.969539
11
32218.832329
21
-6788.319763
0
LINE
8
Layer 1
10
32218.832329
20
-6788.319763
11
32229.303723
21
-6783.147256
0
LINE
8
Layer 1
10
32229.303723
20
-6783.147256
11
32239.520059
21
-6777.460098
0
LINE
8
Layer 1
10
32239.520059
20
-6777.460098
11
32249.461409
21
-6771.266368
0
LINE
8
Layer 1
10
32249.461409
20
-6771.266368
11
32259.107848
21
-6764.574143
0
LINE
8
Layer 1
10
32259.107848
20
-6764.574143
11
32268.439448
21
-6757.391503
0
LINE
8
Layer 1
10
32268.439448
20
-6757.391503
11
32277.436282
21
-6749.726527
0
LINE
8
Layer 1
10
32277.436282
20
-6749.726527
11
32286.078426
21
-6741.587294
0
LINE
8
Layer 1
10
32286.078426
20
-6741.587294
11
32294.304004
21
-6733.027292
0
LINE
8
Layer 1
10
32294.304004
20
-6733.027292
11
32302.058910
21
-6724.107856
0
LINE
8
Layer 1
10
32302.058910
20
-6724.107856
11
32309.334864
21
-6714.848830
0
LINE
8
Layer 1
10
32309.334864
20
-6714.848830
11
32316.123588
21
-6705.270058
0
LINE
8
Layer 1
10
32316.123588
20
-6705.270058
11
32322.416804
21
-6695.391385
0
LINE
8
Layer 1
10
32322.416804
20
-6695.391385
11
32328.206233
21
-6685.232656
0
LINE
8
Layer 1
10
32328.206233
20
-6685.232656
11
32333.483597
21
-6674.813713
0
LINE
8
Layer 1
10
32333.483597
20
-6674.813713
11
32338.240618
21
-6664.154403
0
LINE
8
Layer 1
10
32338.240618
20
-6664.154403
11
32342.469016
21
-6653.274569
0
LINE
8
Layer 1
10
32342.469016
20
-6653.274569
11
32346.160514
21
-6642.194056
0
LINE
8
Layer 1
10
32346.160514
20
-6642.194056
11
32349.306833
21
-6630.932708
0
LINE
8
Layer 1
10
32349.306833
20
-6630.932708
11
32351.899695
21
-6619.510369
0
LINE
8
Layer 1
10
32351.899695
20
-6619.510369
11
32353.930821
21
-6607.946885
0
LINE
8
Layer 1
10
32353.930821
20
-6607.946885
11
32355.391933
21
-6596.262099
0
LINE
8
Layer 1
10
32355.391933
20
-6596.262099
11
32356.274752
21
-6584.475856
0
LINE
8
Layer 1
10
32356.274752
20
-6584.475856
11
32356.571000
21
-6572.608000
0
LINE
8
Layer 1
10
692.637000
20
-6571.200000
11
692.822311
21
-6583.064603
0
LINE
8
Layer 1
10
692.822311
20
-6583.064603
11
693.594389
21
-6594.853176
0
LINE
8
Layer 1
10
693.594389
20
-6594.853176
11
694.945157
21
-6606.545825
0
LINE
8
Layer 1
10
694.945157
20
-6606.545825
11
696.866537
21
-6618.122655
0
LINE
8
Layer 1
10
696.866537
20
-6618.122655
11
699.350449
21
-6629.563771
0
LINE
8
Layer 1
10
699.350449
20
-6629.563771
11
702.388815
21
-6640.849276
0
LINE
8
Layer 1
10
702.388815
20
-6640.849276
11
705.973558
21
-6651.959278
0
LINE
8
Layer 1
10
705.973558
20
-6651.959278
11
710.096598
21
-6662.873879
0
LINE
8
Layer 1
10
710.096598
20
-6662.873879
11
714.749857
21
-6673.573186
0
LINE
8
Layer 1
10
714.749857
20
-6673.573186
11
719.925257
21
-6684.037302
0
LINE
8
Layer 1
10
719.925257
20
-6684.037302
11
725.614720
21
-6694.246334
0
LINE
8
Layer 1
10
725.614720
20
-6694.246334
11
731.810167
21
-6704.180385
0
LINE
8
Layer 1
10
731.810167
20
-6704.180385
11
738.503520
21
-6713.819561
0
LINE
8
Layer 1
10
738.503520
20
-6713.819561
11
745.686700
21
-6723.143967
0
LINE
8
Layer 1
10
745.686700
20
-6723.143967
11
753.351629
21
-6732.133708
0
LINE
8
Layer 1
10
753.351629
20
-6732.133708
11
761.490229
21
-6740.768888
0
LINE
8
Layer 1
10
761.490229
20
-6740.768888
11
770.049060
21
-6748.987740
0
LINE
8
Layer 1
10
770.049060
20
-6748.987740
11
778.966859
21
-6756.736252
0
LINE
8
Layer 1
10
778.966859
20
-6756.736252
11
788.223805
21
-6764.006160
0
LINE
8
Layer 1
10
788.223805
20
-6764.006160
11
797.800081
21
-6770.789200
0
LINE
8
Layer 1
10
797.800081
20
-6770.789200
11
807.675866
21
-6777.077109
0
LINE
8
Layer 1
10
807.675866
20
-6777.077109
11
817.831343
21
-6782.861623
0
LINE
8
Layer 1
10
817.831343
20
-6782.861623
11
828.246693
21
-6788.134478
0
LINE
8
Layer 1
10
828.246693
20
-6788.134478
11
838.902096
21
-6792.887410
0
LINE
8
Layer 1
10
838.902096
20
-6792.887410
11
849.777735
21
-6797.112156
0
LINE
8
Layer 1
10
849.777735
20
-6797.112156
11
860.853789
21
-6800.800451
0
LINE
8
Layer 1
10
860.853789
20
-6800.800451
11
872.110441
21
-6803.944032
0
LINE
8
Layer 1
10
872.110441
20
-6803.944032
11
883.527871
21
-6806.534636
0
LINE
8
Layer 1
10
883.527871
20
-6806.534636
11
895.086261
21
-6808.563999
0
LINE
8
Layer 1
10
895.086261
20
-6808.563999
11
906.765791
21
-6810.023856
0
LINE
8
Layer 1
10
906.765791
20
-6810.023856
11
918.546644
21
-6810.905944
0
LINE
8
Layer 1
10
918.546644
20
-6810.905944
11
930.409000
21
-6811.202000
 0 
ENDSEC
 0 
EOF